<svg id="Layer_1" data-name="Layer 1" xmlns="http://www.w3.org/2000/svg" viewBox="0 0 868.18 786.41"><path d="M223.15,30.52c-49.8,27.08-69.37,94.21-52.36,124.39S223.66,244.37,144,310.12c-62,51.19-113.92-6.23-132,41.3S8.5,629.17,230.11,679.54C345.49,699.45,358.2,645.69,395.67,615s203-127.48,307.87-116.73,175,8.2,156.8-132.57S721.91-6,582.79,12.16c-89,13.82-90.44,66.55-151.14,72.5S372.52-50.7,223.15,30.52Z" transform="translate(-6.37 -5.28)" style="fill:#293856;opacity:0.2"/><g id="phone"><path d="M355.93,145.27c-25.21,0-48,26-48,51.2V732.88c0,25.21,24.66,50.58,49.87,50.58H585.1c25.22,0,50.51-24.74,50.51-50V195.85c0-25.22-22.79-50.58-48-50.58Z" transform="translate(-6.37 -5.28)" style="fill:#edd600"/><path d="M586.12,791.69H357.41a58.3,58.3,0,0,1-58.23-58.23v-538a58.29,58.29,0,0,1,58.23-58.23H586.12a58.29,58.29,0,0,1,58.23,58.23v538A58.3,58.3,0,0,1,586.12,791.69Zm-228.71-642a45.78,45.78,0,0,0-45.73,45.74v538a45.78,45.78,0,0,0,45.73,45.74H586.12a45.79,45.79,0,0,0,45.74-45.74v-538a45.79,45.79,0,0,0-45.74-45.74Z" transform="translate(-6.37 -5.28)" style="fill:#293856"/><rect x="288.05" y="263.63" width="13.5" height="27.48" style="fill:#293856"/><rect x="629.23" y="323.58" width="13.5" height="56.2" style="fill:#293856"/><rect x="288.05" y="304.84" width="13.5" height="39.96" style="fill:#293856"/><rect x="288.05" y="358.55" width="13.5" height="39.97" style="fill:#293856"/><polygon points="360.69 742.04 335.47 742.04 348.08 716.82 360.69 742.04" style="fill:#fff;opacity:0.6000000000000001"/><path d="M537.87,734.71a12.62,12.62,0,1,1-12.62-12.62A12.62,12.62,0,0,1,537.87,734.71Z" transform="translate(-6.37 -5.28)" style="fill:#fff;opacity:0.6000000000000001"/><path d="M420.46,734.71a12.62,12.62,0,1,1-6.58-11.08A9.65,9.65,0,0,0,419.1,729,12.54,12.54,0,0,1,420.46,734.71Z" transform="translate(-6.37 -5.28)" style="fill:#fff;opacity:0.6000000000000001"/><path d="M420.64,730.46a8.17,8.17,0,1,1,8.17-8.17A8.18,8.18,0,0,1,420.64,730.46Zm0-13.79a5.63,5.63,0,1,0,5.63,5.62A5.62,5.62,0,0,0,420.64,716.67Z" transform="translate(-6.37 -5.28)" style="fill:#fff"/><polygon points="471.11 742.04 445.89 742.04 445.89 716.82 464.21 716.82 471.11 716.82 471.11 723.91 471.11 742.04" style="fill:#fff;opacity:0.6000000000000001"/><path d="M477.49,716.67a5.63,5.63,0,1,0,5.62,5.62A5.63,5.63,0,0,0,477.49,716.67Z" transform="translate(-6.37 -5.28)" style="fill:#fff"/><g style="opacity:0.6000000000000001"><path d="M596.64,723.45a3.46,3.46,0,0,1-3.45,3.45h-22a3.45,3.45,0,0,1-3.44-3.45h0a3.44,3.44,0,0,1,3.44-3.45h22a3.45,3.45,0,0,1,3.45,3.45Z" transform="translate(-6.37 -5.28)" style="fill:#fff"/><path d="M596.64,732.48a3.46,3.46,0,0,1-3.45,3.46h-22a3.45,3.45,0,0,1-3.44-3.46h0a3.44,3.44,0,0,1,3.44-3.44h22a3.45,3.45,0,0,1,3.45,3.44Z" transform="translate(-6.37 -5.28)" style="fill:#fff"/><path d="M596.64,741.52a3.45,3.45,0,0,1-3.45,3.45h-22a3.44,3.44,0,0,1-3.44-3.45h0a3.45,3.45,0,0,1,3.44-3.45h22a3.46,3.46,0,0,1,3.45,3.45Z" transform="translate(-6.37 -5.28)" style="fill:#fff"/></g><rect x="465.06" y="417.15" width="133.94" height="10.41" style="fill:#fff"/><rect x="465.06" y="400.34" width="133.94" height="10.41" style="fill:#fff"/><rect x="330.29" y="538.62" width="268.71" height="160.72" style="fill:#fff;opacity:0.5"/><path d="M606.64,527.67H469.74V443.75h136.9Z" transform="translate(-6.37 -5.28)" style="fill:#fff;opacity:0.5"/></g><path d="M598.83,314.21c-13.58,10.2-76.82,50.08-85.31,38.66s47.48-61.08,61.05-71.28,30-11.15,36.7-2.14S612.4,304,598.83,314.21Z" transform="translate(-6.37 -5.28)" style="fill:#ebebeb"/><path d="M801.85,260.88c0,62.54-52.14,113.24-116.46,113.24S569,323.42,569,260.88s52.13-113.24,116.44-113.24S801.85,198.34,801.85,260.88Z" transform="translate(-6.37 -5.28)" style="fill:#fff"/><path d="M731,252.64a7.29,7.29,0,0,1-1.85-.47,45.51,45.51,0,0,1-25.07-59.1l17.53-43.82a45.12,45.12,0,0,1,58.8-25.2A7.28,7.28,0,0,1,775,137.57,30.65,30.65,0,0,0,735,154.69l-17.53,43.82a30.91,30.91,0,0,0,17,40.13,7.29,7.29,0,0,1-3.56,14Z" transform="translate(-6.37 -5.28)" style="fill:#fff"/><path d="M756.42,244.74c-3.36,28.11-41.4,46.64-85,41.38s-76.16-32.32-72.79-60.44,41.4-46.64,85-41.38S759.78,216.62,756.42,244.74Z" transform="translate(-6.37 -5.28)" style="fill:#293856"/><path d="M625.42,228.09a4,4,0,1,1-3.53-4.52A4,4,0,0,1,625.42,228.09Z" transform="translate(-6.37 -5.28)" style="fill:#5974b8"/><path d="M651.19,232.36a4,4,0,1,1-3.53-4.53A4,4,0,0,1,651.19,232.36Z" transform="translate(-6.37 -5.28)" style="fill:#5974b8"/><path d="M644.79,222.39a4,4,0,1,1-3.53-4.52A4.06,4.06,0,0,1,644.79,222.39Z" transform="translate(-6.37 -5.28)" style="fill:#5974b8"/><path d="M634.69,220.64a4,4,0,1,1-3.53-4.52A4,4,0,0,1,634.69,220.64Z" transform="translate(-6.37 -5.28)" style="fill:#5974b8"/><path d="M703.81,237.56a4,4,0,1,1-3.54-4.52A4.05,4.05,0,0,1,703.81,237.56Z" transform="translate(-6.37 -5.28)" style="fill:#5974b8"/><path d="M729.58,241.82A4,4,0,1,1,726,237.3,4,4,0,0,1,729.58,241.82Z" transform="translate(-6.37 -5.28)" style="fill:#5974b8"/><path d="M723.18,231.86a4,4,0,1,1-3.54-4.52A4,4,0,0,1,723.18,231.86Z" transform="translate(-6.37 -5.28)" style="fill:#5974b8"/><path d="M713.08,230.1a4,4,0,1,1-3.54-4.52A4.07,4.07,0,0,1,713.08,230.1Z" transform="translate(-6.37 -5.28)" style="fill:#5974b8"/><path d="M819.24,302.1a11.92,11.92,0,0,1,16.32,4.37l37.38,64.92a12,12,0,0,1-4.35,16.4l-94.81,55.14a11.89,11.89,0,0,1-16.31-4.37l-37.39-64.91a12,12,0,0,1,4.35-16.4Z" transform="translate(-6.37 -5.28)" style="fill:#4f5faa"/><polygon points="833.2 321.33 862.94 372.98 757.85 434.07 716.47 362.22 803.62 311.58 833.2 321.33" style="fill:#fff"/><path d="M731.54,384.25a3,3,0,0,1,4.08,1.1l18.61,32.31a3,3,0,0,1-1.09,4.1l-3.62,2.11a3,3,0,0,1-4.08-1.1l-18.61-32.31a3,3,0,0,1,1.09-4.1Z" transform="translate(-6.37 -5.28)" style="fill:#404040"/><path d="M732.89,408.51c-1.88-3.28-2-7-.56-9.5l-2.16-3.76c-3.33,3.72-3.78,9.95-.72,15.26s8.65,8,13.52,7l-2.16-3.76C737.91,413.72,734.78,411.78,732.89,408.51Z" transform="translate(-6.37 -5.28)" style="fill:#404040"/><polygon points="833.2 321.33 814.96 331.94 803.62 311.58 833.2 321.33" style="fill:#ebebeb"/><path d="M801.4,313.16c5.2,16.21,22.23,89.26,8.73,93.64s-42.1-64.95-47.3-81.16-.77-32.14,9.89-35.59S796.21,297,801.4,313.16Z" transform="translate(-6.37 -5.28)" style="fill:#ebebeb"/><path d="M392.9,409.32a52.76,52.76,0,1,0,52.76,52.75H392.9Z" transform="translate(-6.37 -5.28)" style="fill:#fff;opacity:0.5"/><path d="M452.08,456.05a52.76,52.76,0,0,0-52.76-52.75v52.75Z" transform="translate(-6.37 -5.28)" style="fill:#fff;opacity:0.7000000000000001"/><circle cx="470.49" cy="275.35" r="91.87" transform="translate(-75.27 191.1) rotate(-22.01)" style="fill:#fff;opacity:0.5"/><path d="M519.46,260.87c0,27-49,64.74-49,64.74s-49-37.7-49-64.74,38.52-41.82,49-5C479.85,219.05,519.46,233.82,519.46,260.87Z" transform="translate(-6.37 -5.28)" style="fill:#ef5c00"/></svg>