<?xml version="1.0" encoding="utf-8"?>
<!-- Generator: Adobe Illustrator 25.1.0, SVG Export Plug-In . SVG Version: 6.00 Build 0)  -->
<svg version="1.1" id="Layer_1" xmlns="http://www.w3.org/2000/svg" xmlns:xlink="http://www.w3.org/1999/xlink" x="0px" y="0px"
	 viewBox="0 0 1464.2 1252.9" style="enable-background:new 0 0 1464.2 1252.9;" xml:space="preserve">
<style type="text/css">
	.st0{fill:#050C12;}
	.st1{fill:#F5A3B5;}
	.st2{fill:#EDE9E6;}
	.st3{fill:#00241F;}
	.st4{fill:#F393AA;}
	.st5{fill:#11000D;}
	.st6{fill:#C0272D;}
	.st7{fill:#151212;}
	.st8{fill:#9BD29B;}
	.st9{fill:#62A764;}
	.st10{fill:#FDC019;}
	.st11{fill:#FFCB1E;}
	.st12{fill:#EB2148;}
</style>
<path class="st0" d="M249.1,1194.6c20.2,11.8,42.8-9.2,36.5-30.6c7.4-3,10.5-12.4,5.1-18.7c-6.1-10.8-21.7-9.2-29.4-13.7
	c-7.4-31.3-6.1-64.7,7-94.1v0.6c5.7-13.9,14.5-26.3,23.9-38.1l-0.3,0.3c6.7-7.9,42.5-38.8,12.8-31.5
	c-49.5,40.3-75.9,107.3-56.3,169.6C229.6,1151.4,228.4,1183,249.1,1194.6z"/>
<polygon class="st1" points="1123.4,992.8 1123.6,992.9 1123.4,992.8 "/>
<path class="st2" d="M867,1199.7c15.2-3.8,93.7,0.8,77.2,28.8c-36.7,24.6-88,16.8-130.7,18.8c-47.3-2.9-95.5-12.2-143-5.8
	c-50,4.4-100.5,15.9-150.8,9.6c-47.6,1.3-96.2-37-18.6-49.6L867,1199.7z"/>
<path class="st3" d="M612.8,1206.6c1,3.2,2.3,6.3,3.1,9.5c1.4,5.1,0.1,8.2-4.7,10.6c-13.4,6.9-28.7,9.4-43.6,7.3
	c-5.5-0.8-10.7-3.1-14.9-6.7c-7.2-6-7.9-12.2-2.2-19.9c0.5-0.7,1.1-1.5,1.6-2.2c9.7-6.5,20.4-8,31.7-6.3c1.8,0.3,3.6,0.5,5.5,0.8
	c1.6,0.3,2.4-0.6,2.1-2c-0.4-1.8-0.9-3.6-1.5-5.3l-18.3-61.8c5.6-1.8,11.4-1.8,17.2-1.7c3.9,13.6,7.7,27.2,11.8,40.8
	C604.3,1182.2,607.8,1194.7,612.8,1206.6z"/>
<path class="st3" d="M865.7,1199.7c3,1.6,5.8,3.3,8.6,5.1c9.2,6.9,9.5,15.8,0.6,23c-7.6,6.2-16.5,7.8-26,7.4
	c-11.2-0.5-21.7-4.1-31.9-8.5c-5-2.1-6.5-5.9-4.8-11.4c1.4-4.7,3.1-9.3,4.7-14c0.9-2.3,1.9-4.4,2.6-6.8c4.7-15,9.4-30.1,14-45.2
	c3.4,1.3,6.9,1.3,10.5,1.6c2.1,0.1,4.2,0.1,6,1.2c-3.6,12.1-7.2,24.2-10.7,36.2c-0.6,2.1-3.1,8.4-3,9.8c0.1,1,0.9,1.1,1.7,1
	C847.2,1198.4,856.4,1197.8,865.7,1199.7z"/>
<path class="st4" d="M708.5,334.9c-15,41.2-10.7-76.1-144.7-88.3c-94.2-12.3-215.5,69.5-169.8,172.9c-32.5-51.2-103.7-52-153.5-27.5
	c-86.6,39.3-146.9,191.1-57.7,255.1c-212.3-18.9-250.1,280.9-58,346.7c51.9,23,119,28.5,162.5-14.1
	c17.2,172.8,316.2,226.8,409.9,107.2l6.2-9.6c69.7,146.5,408.6,67.2,416.1-97.6c98.2,82.8,259.6-8.8,285.9-123
	c27.3-107-68.7-228.7-181.4-209.7c70.8-45.9,45-160.2-4.3-213.7c-48.6-58.7-158.1-86.2-206.8-13.9c61.4-169.2-216.5-234-294.6-102.4
	L708.5,334.9z"/>
<path class="st1" d="M682.5,408.2C633.3,206.5,325.7,278.9,431,493.7c-70-183.2-356.6-8.4-223.9,127.6
	c44.1,35.5,106.8,35.4,142.7,81.4C241.2,626.9,10.1,686,46.4,846.2c29.3,128.9,289.4,177.2,230.8,1.2
	c86.9,68.9-19.6,241.7,277.3,257.8c68.1-9.6,87.3-12.8,121-56.4c5.7-9.8,6.7-24.7,7.4-35C682.1,1010.3,683.9,411.2,682.5,408.2z"/>
<path class="st1" d="M896.1,256c-4.8-0.7-9.6-1.2-14.4-1.5h0.4C886.8,254.9,891.5,255.4,896.1,256z"/>
<path class="st1" d="M724.9,1035.1c30.8,94.1,215.8,64,274.4,33.4c104.2-54.3,57.6-158.6,130.3-220.8
	c-44.3,63.9,35.6,125.2,105.4,112.7c195.4-35,166.6-263.9-15.7-286.7c-55.4-9.7-115-0.1-162.4,29.3
	c49.1-62.4,187.3-53.2,176.8-158.1c-13.6-136.2-200.1-184.3-258-50.9c70.6-139.5-49.4-254-187.5-181.5c-25.1,9.1-63.7,66.6-64,96
	C719.3,473,718.5,968.8,724.9,1035.1z"/>
<path class="st0" d="M248.7,1195.9c20.2,11.8,42.8-9.2,36.5-30.6c7.4-3,10.5-12.4,5.1-18.7c-6.1-10.8-21.7-9.2-29.4-13.7
	c-7.4-31.3-6.1-64.7,7-94.1v0.6c5.7-13.9,14.5-26.3,23.9-38.1l-0.3,0.3c6.7-7.9,42.5-38.8,12.8-31.5
	c-49.5,40.3-75.9,107.3-56.2,169.6C229.1,1152.7,227.9,1184.3,248.7,1195.9z"/>
<path class="st5" d="M807.9,786.5c2-2.6-1,1,0.3-0.4c0.6-0.6,1.2-1.3,1.8-1.8c1.2-1.2,2.4-2.3,3.8-3.3c0.5-0.4,1-0.8,1.6-1.2
	c-2,1.4,0,0.1,0.4-0.2c1.4-0.8,2.8-1.6,4.3-2.3c0.8-0.4,4.4-1.8,2.1-1c1.5-0.5,3.1-1,4.7-1.3c1.6-0.4,3.2-0.7,4.8-0.8
	c0.3,0,3-0.3,1.3-0.2c-1.7,0.2,1.3,0,1.3,0c3.1,0,6,0.7,9.1,0.9c1.7,0.1-2.6-0.8,0.3,0c0.8,0.2,1.5,0.5,2.3,0.7c1.4,0.5,2.7,1,4,1.6
	c0.7,0.4,1.4,0.7,2.2,1.1c1.2,0.4-1.5-1,0.3,0.2c1.4,0.9,2.7,1.8,4,2.8c0.5,0.4,1,0.8,1.5,1.3c0,0,2.2,2.1,1.1,1
	c-1.1-1.1,0.8,0.9,1,1.2c0.7,0.8,1.3,1.6,1.9,2.5c3.6,4.8,10.5,5.8,15.3,2.2c0.3-0.2,0.6-0.5,0.9-0.7c4.8-4.7,5.5-12.2,1.6-17.7
	c-10.6-14.2-27.3-22.3-44.2-21.9c-18.1,0.3-35.2,8.9-46.2,23.3c-4.1,5.2-2.2,13.8,2.6,17.5C797.3,793.7,803.9,791.7,807.9,786.5
	L807.9,786.5z"/>
<path class="st5" d="M597.4,788.7c-2-2.5,1,1-0.3-0.4c-0.6-0.6-1.2-1.2-1.8-1.8c-1.2-1.1-2.4-2.2-3.8-3.3c-0.5-0.4-1-0.8-1.6-1.2
	c2,1.4,0,0.1-0.4-0.2c-1.4-0.8-2.8-1.6-4.3-2.3c-0.8-0.4-4.4-1.8-2.1-1c-1.5-0.5-3.1-0.9-4.7-1.3c-1.6-0.3-3.2-0.6-4.8-0.8
	c-0.3,0-3-0.3-1.3-0.2c1.7,0.2-1.3,0-1.3,0c-3.1,0-6,0.7-9.1,0.9c-1.7,0.1,2.5-0.8-0.3,0c-0.8,0.2-1.5,0.4-2.3,0.7
	c-1.4,0.4-2.7,1-4,1.5c-0.7,0.4-1.4,0.7-2.2,1c-1.2,0.4,1.5-1-0.3,0.2c-1.4,0.9-2.7,1.8-4,2.8c-0.5,0.4-1,0.8-1.5,1.3
	c0,0-2.2,2-1.1,1c1.1-1-0.8,0.9-1,1.2c-0.7,0.8-1.3,1.6-1.9,2.4c-3.8,4.8-10.8,5.7-15.6,1.9c-0.2-0.1-0.4-0.3-0.6-0.5
	c-4.8-4.5-5.5-11.9-1.6-17.3c10.6-13.7,27-21.7,44.3-21.5c18,0.2,35,8.5,46.2,22.6c4,5.1,2.1,13.5-2.6,17.1
	C608.1,795.8,601.5,793.8,597.4,788.7L597.4,788.7z"/>
<path class="st6" d="M750.4,871.5v-0.1h-86v0.1c-5.4,0.2-11.5,5.2-10.8,11.1c2.7,22.1,15.8,40.5,37.7,47
	c18.8,5.6,40.7,0.8,54.7-13.2c9.2-9.2,13.7-21.1,15.2-33.8C761.9,876.8,755.8,871.7,750.4,871.5z"/>
<path class="st7" d="M1341.5,915.2c-0.3-23.4-30-31.9-45.1-15.5c-6.4-4.8-16.1-2.7-18.7,5.2c-6.1,10.8,3.3,23.3,3.4,32.3
	c-23,22.4-52.3,38.5-84.3,42.5l0.6-0.3c-14.8,2.3-30,1.1-45-0.9l0.4,0.1c-9.1-1.1-57.5-17.3-33.6,5.3
	c60.1,21.7,131.1,9.8,174.3-39.1C1314.5,954.1,1342.2,939,1341.5,915.2z"/>
<path class="st8" d="M1452.8,1034.1c-2.8-7.7-127-296.1-130.3-304.3c27.1-24.7,37.3-66.1,22.5-104.4c-13.7-35.5-43.9-54.3-77.1-55.3
	c0.7,13.9,41.2,74.2,17.5,82.1c-79.8,38.8-59.2,3.2-88-55.9c-57,46.8-11.6,151.7,58.4,155.1c2.2,5.2,115.3,307.9,117.6,313
	C1397.7,1122,1473.6,1093.5,1452.8,1034.1z M1389.3,1059.8c-12.6-31.3,37-50.1,48.6-18.6C1450.5,1072.5,1400.9,1091.3,1389.3,1059.8
	L1389.3,1059.8z"/>
<path class="st9" d="M1411.5,1108.7c-65.5,5.3-138.3-307.5-164.8-346c-36.3-6.7-67.6-34.1-80.7-68.9c-18.8-46.2-0.4-90.8,36.5-119.2
	c1.1,0.6,30.8,84.2,33,83.3c0.6-0.7,46.6-16.5,45.9-18.3l-31.9-82.6c46.5-2.8,90.5,17.8,107.2,63.9c15,38.9,7.2,82.6-19.3,111.7
	C1341.3,790.6,1562.5,1108.1,1411.5,1108.7z M1401,1055.3c6,16.3,31.8,6.7,25.3-9.6C1420.3,1029.4,1394.5,1039.1,1401,1055.3
	L1401,1055.3z M1264.8,739.9l112.1,298.7c6.5-22.4,35.3-33.4,55-21.8c3.7-5-139.9-296.8-117.8-296.1
	c42.1-35.4,28.8-119.5-26.7-134.8c30.3,66.2,25.4,73.6-43,95.4c-33.6,13.8-41.2-41.1-50.9-60.5
	C1162.6,669.6,1209.2,740.5,1264.8,739.9z"/>
<path class="st10" d="M549.5,327.8C432.6,376.9,81.7,485.4,114.2,558.1c7.5,21.8,13.2,54.1,40.7,59.2c82.3,21.8,169.1,19.3,250-7.1
	c156.7-63.9,533.6-127.9,634.1-280.2c18.9-20.2,5.4-49.9-1.9-71.8c-6.8-21-28.4-33.8-50.9-30C901.6,242.5,697.9,279.5,549.5,327.8z"
	/>
<path class="st11" d="M629.4,3.1C511.5,7.5,397.1,44.7,299,110.4C168.4,208.2,105.3,368.7,153.4,517l36.9,26.1
	c0,0,46.3,19.1,237.4-36.5c48.3-14.3,103.4-31.4,165.9-51.7s117.1-38.9,164.6-55.7c187.2-67.3,213.7-110,213.7-110l14.3-42.8
	C938,98.1,792.6,5.4,629.4,3.1z"/>
<path class="st10" d="M723.8,10.3c-60.5-7.6-6.5,100.1,8.9,126.9c28.5,49.7,136.3,13.4,117.4-36.9C838.2,28.5,789.2,18.6,723.8,10.3
	z"/>
<path class="st10" d="M183.5,218.3c-17.8,21.3-23.9,45.4-17.1,66.2l0,0l10.6,32.6c6.8,21,35.3,32.6,66.4,24.7
	c35.6-9,58.9-37.4,51.2-61l-35.1-108l0,0c-3.4-10.3-22.4-11-32.7-1C211.6,186.5,197.1,202.1,183.5,218.3z"/>
<path class="st10" d="M183.5,218.3c-40.8,47.5-14.4,143.9,60.9,123.2c94.4-20.1,24.9-117.9,15-169.1
	C234,144.2,201,202.5,183.5,218.3z"/>
<path class="st11" d="M786.3,22.5c-14.3-6.8-80.4-28.8-70.6,0.8c16.9,31.5,21.7,139.5,80.3,122.7c24.8-5.8,39.6-29.5,32.7-50.9
	C818.6,75.2,813.4,35.4,786.3,22.5z"/>
<path class="st11" d="M226.8,171.8c-19.9,20.4-41.1,39.7-54.9,63.9c10.4,33.9,16.9,102.6,68.5,90.9c24.8-5.8,39.6-29.5,32.6-50.9
	C266.2,270,243.7,146.2,226.8,171.8z"/>
<path class="st10" d="M715.3,414.2c7.5-2.6,14.8-5.1,22-7.7c-22-55.4-52.9-126.8-77.9-168.1L526.7,8.8l-21.2-8.8L715.3,414.2z"/>
<path class="st10" d="M397.5,35.1l-11.9,19.6l27.5,263.8c4.1,48.2,21,124,35.8,181.8c7.3-2.2,14.7-4.5,22.3-6.8L397.5,35.1z"/>
<path class="st11" d="M715.3,414.2c-21.5-55.7-51.4-127.6-74.8-169.6L505.5,0.1c-18.2,4.4-36.4,9.5-54.7,15.4s-36,12.5-53.3,19.7
	L432,312.3c5.7,47.7,23.8,123.6,39.1,181.2L715.3,414.2z"/>
<ellipse class="st12" cx="573" cy="843.8" rx="33.9" ry="19"/>
<ellipse class="st12" cx="830.2" cy="838.7" rx="33.9" ry="19"/>
</svg>
