<svg id="Layer_1" data-name="Layer 1" xmlns="http://www.w3.org/2000/svg" viewBox="0 0 1077.49 981.91"><ellipse cx="538.74" cy="490.95" rx="538.74" ry="490.95" style="fill:#e9c46a"/><path d="M989.58,930.57c0,22.33-74.23,40.43-165.79,40.43S658,952.9,658,930.57s74.23-40.42,165.8-40.42S989.58,908.25,989.58,930.57Z" transform="translate(-44.96 -142.53)" style="fill:#3f3f3f;opacity:0.1"/><path d="M821.94,925.78c.22,18.74-88.85,19.79-89.07,1.05s19.54-34.16,44.13-34.45S821.72,907,821.94,925.78Z" transform="translate(-44.96 -142.53)" style="fill:#fff"/><path d="M933,924.47c.22,18.74-88.85,19.79-89.07,1s19.54-34.16,44.13-34.45S932.78,905.73,933,924.47Z" transform="translate(-44.96 -142.53)" style="fill:#fff"/><path d="M787.86,872.49,764,894a99.91,99.91,0,0,0,18.21,7.67,84.39,84.39,0,0,0,30.47,3.74L817,878.73Z" transform="translate(-44.96 -142.53)" style="fill:#e6eded"/><path d="M877.25,871.44l24.17,21a98.37,98.37,0,0,1-17.86,8c-10.73,3.53-21.86,5.09-31,4.6l-4.29-26.72Z" transform="translate(-44.96 -142.53)" style="fill:#e6eded"/><path d="M882,462.9c-20.87,25.28-35.56,67.09-38.32,85.83,0,0,9.24.8,10.16.52,13.55-48.67,44.52-70.05,46.63-75.45s.07-11.69-4.56-14.05A11.15,11.15,0,0,0,882,462.9Z" transform="translate(-44.96 -142.53)" style="fill:#fff"/><path d="M958.65,640.52A112.16,112.16,0,0,0,852.58,522.6l-.53,0A112.15,112.15,0,0,0,734.13,628.64c-2,38.64-8.19,154.59-8.19,154.59A112.16,112.16,0,0,0,832,901.15l.53,0A112.16,112.16,0,0,0,950.46,795.11S956.6,679.17,958.65,640.52Z" transform="translate(-44.96 -142.53)" style="fill:#fff"/><path d="M924.12,618.33c-1.25,23.76-40.23,41-87,38.53s-83.75-23.75-82.49-47.51,40.23-41,87-38.52S925.38,594.57,924.12,618.33Z" transform="translate(-44.96 -142.53)" style="fill:#3f3f3f"/><rect x="797.64" y="599.96" width="9.41" height="9.41" rx="3.25" transform="matrix(0.05, -1, 1, 0.05, 111.22, 1231.46)" style="fill:#00fff8"/><rect x="786.3" y="599.42" width="9.41" height="9.41" rx="3.25" transform="translate(101.03 1219.62) rotate(-86.98)" style="fill:#00fff8"/><rect x="806.42" y="610.85" width="9.41" height="9.41" rx="3.25" transform="translate(108.7 1250.56) rotate(-86.98)" style="fill:#00fff8"/><rect x="776.42" y="609.2" width="9.41" height="9.41" rx="3.25" transform="translate(81.6 1218.76) rotate(-86.95)" style="fill:#00fff8"/><rect x="883.12" y="604.49" width="9.41" height="9.41" rx="3.25" transform="translate(187.69 1321.12) rotate(-86.98)" style="fill:#00fff8"/><rect x="871.79" y="603.94" width="9.41" height="9.41" rx="3.25" transform="translate(177.5 1309.28) rotate(-86.98)" style="fill:#00fff8"/><path d="M901.38,618.87a3.25,3.25,0,0,0-3.07-3.42l-2.9-.15a3.26,3.26,0,0,0-3.42,3.08l-.15,2.9a3.25,3.25,0,0,0,3.07,3.42l2.91.15a3.25,3.25,0,0,0,3.41-3.08Z" transform="translate(-44.96 -142.53)" style="fill:#00fff8"/><rect x="861.91" y="613.73" width="9.41" height="9.41" rx="3.25" transform="translate(158.64 1308.91) rotate(-87)" style="fill:#00fff8"/><path d="M349.63,927.19c0,18.74,89.1,18.62,89.07-.13s-20-33.9-44.58-33.86S349.6,908.45,349.63,927.19Z" transform="translate(-44.96 -142.53)" style="fill:#fff"/><path d="M238.56,927.35c0,18.74,89.1,18.61,89.07-.13s-20-33.9-44.58-33.87S238.53,908.61,238.56,927.35Z" transform="translate(-44.96 -142.53)" style="fill:#fff"/><path d="M383,873.46l24.11,21.18a99.58,99.58,0,0,1-18.1,7.92,84.5,84.5,0,0,1-30.43,4.14L354,880.08Z" transform="translate(-44.96 -142.53)" style="fill:#e6eded"/><path d="M293.6,873.58l-23.89,21.34a97.34,97.34,0,0,0,18,7.78c10.77,3.4,21.92,4.81,31,4.2l3.93-26.77Z" transform="translate(-44.96 -142.53)" style="fill:#e6eded"/><path d="M273.45,462.59c21.76,24.51,37.94,65.77,41.37,84.4,0,0-9.2,1.13-10.13.88-15.29-48.15-47-68.41-49.31-73.73s-.49-11.68,4.05-14.2A11.15,11.15,0,0,1,273.45,462.59Z" transform="translate(-44.96 -142.53)" style="fill:#fff"/><path d="M203.17,642.85A112.16,112.16,0,0,1,304.94,521.19l.52,0A112.15,112.15,0,0,1,427.12,622.91l13.72,154.2A112.15,112.15,0,0,1,339.07,898.76l-.52,0A112.15,112.15,0,0,1,216.9,797S206.6,681.39,203.17,642.85Z" transform="translate(-44.96 -142.53)" style="fill:#fff"/><path d="M236.88,619.43c2.11,23.69,41.67,39.53,88.37,35.38s82.84-26.74,80.73-50.43S364.31,564.84,317.61,569,234.77,595.73,236.88,619.43Z" transform="translate(-44.96 -142.53)" style="fill:#3f3f3f"/><rect x="363.78" y="586.44" width="9.41" height="9.41" rx="3.25" transform="translate(-96.03 -107.45) rotate(-5.1)" style="fill:#00fff8"/><rect x="366.53" y="616.37" width="9.41" height="9.41" rx="3.25" transform="translate(-98.79 -107.01) rotate(-5.11)" style="fill:#00fff8"/><rect x="375" y="594.83" width="9.41" height="9.41" rx="3.25" transform="translate(-96.59 -106.53) rotate(-5.08)" style="fill:#00fff8"/><rect x="375.92" y="606.14" width="9.41" height="9.41" rx="3.25" transform="translate(-97.67 -106.34) rotate(-5.09)" style="fill:#00fff8"/><rect x="278.51" y="594.03" width="9.41" height="9.41" rx="3.25" transform="translate(-96.94 -115.05) rotate(-5.09)" style="fill:#00fff8"/><rect x="281.26" y="623.95" width="9.41" height="9.41" rx="3.25" transform="translate(-99.6 -114.68) rotate(-5.09)" style="fill:#00fff8"/><rect x="289.73" y="602.42" width="9.41" height="9.41" rx="3.25" transform="translate(-97.67 -114.01) rotate(-5.09)" style="fill:#00fff8"/><rect x="290.65" y="613.73" width="9.41" height="9.41" rx="3.25" transform="translate(-98.51 -113.98) rotate(-5.08)" style="fill:#00fff8"/><ellipse cx="456.74" cy="277.82" rx="135.3" ry="87.35" style="fill:#fff"/><ellipse cx="659.98" cy="170.47" rx="193.94" ry="130" style="fill:#fff"/><polygon points="408.14 340.57 384.14 410.56 439.64 360.69 408.14 340.57" style="fill:#fff"/><polygon points="652.04 289.57 703.79 375.57 696.71 277.82 652.04 289.57" style="fill:#fff"/><path d="M596.7,302.54c0-1.15.7-16.1,1-28.05a11.79,11.79,0,0,1-5.2.85v-6.1c4.65,0,5.3-4.05,5.55-6.7l6,.3c0,8.05-1.15,37.6-1.25,40Z" transform="translate(-44.96 -142.53)"/><path d="M611.25,302.54c0-1.15.7-16.1,1-28.05a11.79,11.79,0,0,1-5.2.85v-6.1c4.65,0,5.3-4.05,5.55-6.7l6,.3c0,8.05-1.15,37.6-1.25,40Z" transform="translate(-44.96 -142.53)"/><path d="M622.85,296.94a29.34,29.34,0,0,1-1.1-6.65c-.15-2.25-.15-4.5-.15-6.45,0-14.45,3.85-22.55,12.85-22.55a7.29,7.29,0,0,1,5.85,3.1c3,3.8,4.05,10.75,3.4,19.8-.9,12.75-4.5,20.35-11.6,20.35C626.75,304.54,624.1,301.14,622.85,296.94ZM634.8,267a7,7,0,0,0-1,0,3.23,3.23,0,0,0-.95.2,3.57,3.57,0,0,0-2,1.55c-1.4,2-2.6,6.2-2.6,15.15,0,14.1,1.55,14.8,3.65,14.8,3.95,0,4.65-9.6,5-15.2.7-9.65-.65-14.7-1.85-16.25C635,267.14,634.9,267,634.8,267Z" transform="translate(-44.96 -142.53)"/><path d="M651.05,302.54c.05-1.15.7-16.1,1-28.05a11.79,11.79,0,0,1-5.2.85v-6.1c4.65,0,5.3-4.05,5.55-6.7l6,.3c0,8.05-1.15,37.6-1.25,40Z" transform="translate(-44.96 -142.53)"/><path d="M662.65,296.94a29.34,29.34,0,0,1-1.1-6.65c-.15-2.25-.15-4.5-.15-6.45,0-14.45,3.85-22.55,12.85-22.55a7.29,7.29,0,0,1,5.85,3.1c2.95,3.8,4,10.75,3.4,19.8-.9,12.75-4.5,20.35-11.6,20.35C666.55,304.54,663.9,301.14,662.65,296.94Zm12-29.9a7,7,0,0,0-1,0,3.23,3.23,0,0,0-1,.2,3.57,3.57,0,0,0-1.95,1.55c-1.4,2-2.6,6.2-2.6,15.15,0,14.1,1.55,14.8,3.65,14.8,4,0,4.65-9.6,5-15.2.7-9.65-.65-14.7-1.85-16.25C674.75,267.14,674.7,267,674.6,267Z" transform="translate(-44.96 -142.53)"/><path d="M690.85,302.54c0-1.15.7-16.1,1-28.05a11.79,11.79,0,0,1-5.2.85v-6.1c4.65,0,5.3-4.05,5.55-6.7l6,.3c0,8.05-1.15,37.6-1.25,40Z" transform="translate(-44.96 -142.53)"/><path d="M702.45,296.94a29.34,29.34,0,0,1-1.1-6.65c-.15-2.25-.15-4.5-.15-6.45,0-14.45,3.85-22.55,12.85-22.55a7.29,7.29,0,0,1,5.85,3.1c3,3.8,4.05,10.75,3.4,19.8-.9,12.75-4.5,20.35-11.6,20.35C706.35,304.54,703.7,301.14,702.45,296.94ZM714.4,267a7,7,0,0,0-1,0,3.23,3.23,0,0,0-.95.2,3.57,3.57,0,0,0-2,1.55c-1.4,2-2.6,6.2-2.6,15.15,0,14.1,1.55,14.8,3.65,14.8,4,0,4.65-9.6,5.05-15.2.7-9.65-.65-14.7-1.85-16.25C714.55,267.14,714.5,267,714.4,267Z" transform="translate(-44.96 -142.53)"/><path d="M730.65,302.54c.05-1.15.7-16.1,1-28.05a11.79,11.79,0,0,1-5.2.85v-6.1c4.65,0,5.3-4.05,5.55-6.7l6,.3c0,8.05-1.15,37.6-1.25,40Z" transform="translate(-44.96 -142.53)"/><path d="M742.25,296.94a28.8,28.8,0,0,1-1.1-6.65c-.15-2.25-.15-4.5-.15-6.45,0-14.45,3.85-22.55,12.85-22.55a7.29,7.29,0,0,1,5.85,3.1c2.95,3.8,4,10.75,3.4,19.8-.9,12.75-4.5,20.35-11.6,20.35C746.15,304.54,743.5,301.14,742.25,296.94Zm12-29.9a7,7,0,0,0-1,0,3.23,3.23,0,0,0-1,.2,3.57,3.57,0,0,0-2,1.55c-1.4,2-2.6,6.2-2.6,15.15,0,14.1,1.55,14.8,3.65,14.8,3.95,0,4.65-9.6,5-15.2.7-9.65-.65-14.7-1.85-16.25C754.35,267.14,754.3,267,754.2,267Z" transform="translate(-44.96 -142.53)"/><path d="M767.49,296.94a29.34,29.34,0,0,1-1.1-6.65c-.15-2.25-.15-4.5-.15-6.45,0-14.45,3.85-22.55,12.85-22.55a7.29,7.29,0,0,1,5.86,3.1c2.95,3.8,4,10.75,3.4,19.8-.9,12.75-4.5,20.35-11.6,20.35C771.39,304.54,768.74,301.14,767.49,296.94Zm12-29.9a6.9,6.9,0,0,0-1,0,3.1,3.1,0,0,0-1,.2,3.58,3.58,0,0,0-2,1.55c-1.4,2-2.6,6.2-2.6,15.15,0,14.1,1.56,14.8,3.65,14.8,3.95,0,4.66-9.6,5.06-15.2.7-9.65-.65-14.7-1.86-16.25C779.59,267.14,779.54,267,779.45,267Z" transform="translate(-44.96 -142.53)"/><path d="M792.74,296.94a29.34,29.34,0,0,1-1.1-6.65c-.15-2.25-.15-4.5-.15-6.45,0-14.45,3.85-22.55,12.85-22.55a7.29,7.29,0,0,1,5.86,3.1c2.95,3.8,4,10.75,3.4,19.8-.9,12.75-4.5,20.35-11.6,20.35C796.64,304.54,794,301.14,792.74,296.94Zm12-29.9a6.9,6.9,0,0,0-1,0,3.1,3.1,0,0,0-1,.2,3.58,3.58,0,0,0-2,1.55c-1.4,2-2.6,6.2-2.6,15.15,0,14.1,1.56,14.8,3.65,14.8,3.95,0,4.66-9.6,5.06-15.2.7-9.65-.65-14.7-1.86-16.25C804.84,267.14,804.79,267,804.7,267Z" transform="translate(-44.96 -142.53)"/><path d="M596.7,362.54c0-1.15.7-16.1,1-28.05a11.79,11.79,0,0,1-5.2.85v-6.1c4.65,0,5.3-4.05,5.55-6.7l6,.3c0,8.05-1.15,37.6-1.25,40Z" transform="translate(-44.96 -142.53)"/><path d="M608.3,356.94a29.34,29.34,0,0,1-1.1-6.65c-.15-2.25-.15-4.5-.15-6.45,0-14.45,3.85-22.55,12.85-22.55a7.29,7.29,0,0,1,5.85,3.1c3,3.8,4,10.75,3.4,19.8-.9,12.75-4.5,20.35-11.6,20.35C612.2,364.54,609.55,361.14,608.3,356.94Zm12-29.9a7,7,0,0,0-1,0,3.23,3.23,0,0,0-1,.2,3.57,3.57,0,0,0-1.95,1.55c-1.4,2-2.6,6.2-2.6,15.15,0,14.1,1.55,14.8,3.65,14.8,4,0,4.65-9.6,5.05-15.2.7-9.65-.65-14.7-1.85-16.25C620.4,327.14,620.35,327,620.25,327Z" transform="translate(-44.96 -142.53)"/><path d="M636.5,362.54c0-1.15.7-16.1,1-28.05a11.79,11.79,0,0,1-5.2.85v-6.1c4.65,0,5.3-4.05,5.55-6.7l6,.3c0,8.05-1.15,37.6-1.25,40Z" transform="translate(-44.96 -142.53)"/><path d="M648.1,356.94a29.34,29.34,0,0,1-1.1-6.65c-.15-2.25-.15-4.5-.15-6.45,0-14.45,3.85-22.55,12.85-22.55a7.29,7.29,0,0,1,5.85,3.1c3,3.8,4.05,10.75,3.4,19.8-.9,12.75-4.5,20.35-11.6,20.35C652,364.54,649.35,361.14,648.1,356.94ZM660.05,327a7,7,0,0,0-1,0,3.23,3.23,0,0,0-.95.2,3.57,3.57,0,0,0-2,1.55c-1.4,2-2.6,6.2-2.6,15.15,0,14.1,1.55,14.8,3.65,14.8,3.95,0,4.65-9.6,5-15.2.7-9.65-.65-14.7-1.85-16.25C660.2,327.14,660.15,327,660.05,327Z" transform="translate(-44.96 -142.53)"/><path d="M676.3,362.54c.05-1.15.7-16.1,1-28.05a11.79,11.79,0,0,1-5.2.85v-6.1c4.65,0,5.3-4.05,5.55-6.7l6,.3c0,8.05-1.15,37.6-1.25,40Z" transform="translate(-44.96 -142.53)"/><path d="M687.9,356.94a29.34,29.34,0,0,1-1.1-6.65c-.15-2.25-.15-4.5-.15-6.45,0-14.45,3.85-22.55,12.85-22.55a7.29,7.29,0,0,1,5.85,3.1c2.95,3.8,4,10.75,3.4,19.8-.9,12.75-4.5,20.35-11.6,20.35C691.8,364.54,689.15,361.14,687.9,356.94Zm12-29.9a7,7,0,0,0-1,0,3.23,3.23,0,0,0-1,.2,3.57,3.57,0,0,0-1.95,1.55c-1.4,2-2.6,6.2-2.6,15.15,0,14.1,1.55,14.8,3.65,14.8,4,0,4.65-9.6,5-15.2.7-9.65-.65-14.7-1.85-16.25C700,327.14,700,327,699.85,327Z" transform="translate(-44.96 -142.53)"/><path d="M713.15,356.94a29.34,29.34,0,0,1-1.1-6.65c-.15-2.25-.15-4.5-.15-6.45,0-14.45,3.85-22.55,12.85-22.55a7.29,7.29,0,0,1,5.85,3.1c2.95,3.8,4,10.75,3.4,19.8-.9,12.75-4.5,20.35-11.6,20.35C717.05,364.54,714.4,361.14,713.15,356.94Zm12-29.9a7,7,0,0,0-1,0,3.23,3.23,0,0,0-1,.2,3.57,3.57,0,0,0-1.95,1.55c-1.4,2-2.6,6.2-2.6,15.15,0,14.1,1.55,14.8,3.65,14.8,4,0,4.65-9.6,5-15.2.7-9.65-.65-14.7-1.85-16.25C725.25,327.14,725.2,327,725.1,327Z" transform="translate(-44.96 -142.53)"/><path d="M741.35,362.54c0-1.15.7-16.1,1-28.05a11.79,11.79,0,0,1-5.2.85v-6.1c4.65,0,5.3-4.05,5.55-6.7l6,.3c0,8.05-1.15,37.6-1.25,40Z" transform="translate(-44.96 -142.53)"/><path d="M753,356.94a29.34,29.34,0,0,1-1.1-6.65c-.15-2.25-.15-4.5-.15-6.45,0-14.45,3.85-22.55,12.85-22.55a7.29,7.29,0,0,1,5.85,3.1c3,3.8,4.05,10.75,3.4,19.8-.9,12.75-4.5,20.35-11.6,20.35C756.85,364.54,754.2,361.14,753,356.94ZM764.9,327a7,7,0,0,0-1,0,3.23,3.23,0,0,0-.95.2,3.57,3.57,0,0,0-2,1.55c-1.4,2-2.6,6.2-2.6,15.15,0,14.1,1.55,14.8,3.65,14.8,4,0,4.65-9.6,5.05-15.2.7-9.65-.65-14.7-1.85-16.25C765.05,327.14,765,327,764.9,327Z" transform="translate(-44.96 -142.53)"/><path d="M781.14,362.54c.05-1.15.7-16.1,1-28.05a11.79,11.79,0,0,1-5.2.85v-6.1c4.65,0,5.31-4.05,5.56-6.7l6,.3c0,8.05-1.16,37.6-1.25,40Z" transform="translate(-44.96 -142.53)"/><path d="M792.74,356.94a29.34,29.34,0,0,1-1.1-6.65c-.15-2.25-.15-4.5-.15-6.45,0-14.45,3.85-22.55,12.85-22.55a7.29,7.29,0,0,1,5.86,3.1c2.95,3.8,4,10.75,3.4,19.8-.9,12.75-4.5,20.35-11.6,20.35C796.64,364.54,794,361.14,792.74,356.94Zm12-29.9a6.9,6.9,0,0,0-1,0,3.1,3.1,0,0,0-1,.2,3.58,3.58,0,0,0-2,1.55c-1.4,2-2.6,6.2-2.6,15.15,0,14.1,1.56,14.8,3.65,14.8,3.95,0,4.66-9.6,5.06-15.2.7-9.65-.65-14.7-1.86-16.25C804.84,327.14,804.79,327,804.7,327Z" transform="translate(-44.96 -142.53)"/><path d="M441.85,427.15a29.34,29.34,0,0,1-1.1-6.65c-.15-2.25-.15-4.5-.15-6.45,0-14.45,3.85-22.55,12.85-22.55a7.29,7.29,0,0,1,5.85,3.1c2.95,3.8,4.05,10.75,3.4,19.8-.9,12.75-4.5,20.35-11.6,20.35C445.75,434.75,443.1,431.35,441.85,427.15Zm11.95-29.9a7,7,0,0,0-1,.05,3.23,3.23,0,0,0-.95.2,3.57,3.57,0,0,0-2,1.55c-1.4,2-2.6,6.2-2.6,15.15,0,14.1,1.55,14.8,3.65,14.8,3.95,0,4.65-9.6,5.05-15.2.7-9.65-.65-14.7-1.85-16.25C454,397.35,453.9,397.25,453.8,397.25Z" transform="translate(-44.96 -142.53)"/><path d="M470.05,432.75c.05-1.15.7-16.1,1-28.05a11.79,11.79,0,0,1-5.2.85v-6.1c4.65,0,5.3-4.05,5.55-6.7l6,.3c0,8.05-1.15,37.6-1.25,39.95Z" transform="translate(-44.96 -142.53)"/><path d="M484.6,432.75c0-1.15.7-16.1,1-28.05a11.79,11.79,0,0,1-5.2.85v-6.1c4.65,0,5.3-4.05,5.55-6.7l6,.3c0,8.05-1.15,37.6-1.25,39.95Z" transform="translate(-44.96 -142.53)"/><path d="M499.15,432.75c.05-1.15.7-16.1,1-28.05a11.79,11.79,0,0,1-5.2.85v-6.1c4.65,0,5.3-4.05,5.55-6.7l6,.3c0,8.05-1.15,37.6-1.25,39.95Z" transform="translate(-44.96 -142.53)"/><path d="M510.75,427.15a29.34,29.34,0,0,1-1.1-6.65c-.15-2.25-.15-4.5-.15-6.45,0-14.45,3.85-22.55,12.85-22.55a7.29,7.29,0,0,1,5.85,3.1c2.95,3.8,4,10.75,3.4,19.8-.9,12.75-4.5,20.35-11.6,20.35C514.65,434.75,512,431.35,510.75,427.15Zm12-29.9a7,7,0,0,0-1,.05,3.23,3.23,0,0,0-1,.2,3.57,3.57,0,0,0-2,1.55c-1.4,2-2.6,6.2-2.6,15.15,0,14.1,1.55,14.8,3.65,14.8,3.95,0,4.65-9.6,5-15.2.7-9.65-.65-14.7-1.85-16.25C522.85,397.35,522.8,397.25,522.7,397.25Z" transform="translate(-44.96 -142.53)"/><path d="M539,432.75c0-1.15.7-16.1,1-28.05a11.79,11.79,0,0,1-5.2.85v-6.1c4.65,0,5.3-4.05,5.55-6.7l6,.3c0,8.05-1.15,37.6-1.25,39.95Z" transform="translate(-44.96 -142.53)"/><path d="M550.55,427.15a29.34,29.34,0,0,1-1.1-6.65c-.15-2.25-.15-4.5-.15-6.45,0-14.45,3.85-22.55,12.85-22.55a7.29,7.29,0,0,1,5.85,3.1c3,3.8,4,10.75,3.4,19.8-.9,12.75-4.5,20.35-11.6,20.35C554.45,434.75,551.8,431.35,550.55,427.15Zm12-29.9a7,7,0,0,0-1,.05,3.23,3.23,0,0,0-1,.2,3.57,3.57,0,0,0-1.95,1.55c-1.4,2-2.6,6.2-2.6,15.15,0,14.1,1.55,14.8,3.65,14.8,4,0,4.65-9.6,5.05-15.2.7-9.65-.65-14.7-1.85-16.25C562.65,397.35,562.6,397.25,562.5,397.25Z" transform="translate(-44.96 -142.53)"/><path d="M506.5,930.57c0,22.33-72.23,40.43-161.34,40.43s-161.33-18.1-161.33-40.43,72.23-40.42,161.33-40.42S506.5,908.25,506.5,930.57Z" transform="translate(-44.96 -142.53)" style="fill:#3f3f3f;opacity:0.1"/></svg>