<svg id="Layer_1" data-name="Layer 1" xmlns="http://www.w3.org/2000/svg" viewBox="0 0 609.37 965.67"><path d="M885.47,1056.36c0,25.51-127.51,46.2-284.79,46.2s-284.79-20.69-284.79-46.2,127.51-46.19,284.79-46.19S885.47,1030.85,885.47,1056.36Z" transform="translate(-295.32 -136.88)" style="fill:#d0d0d0;opacity:0.6000000000000001"/><path d="M352.39,658.88c16.53-21.83,57.6-58.56,79.42-42S436.53,666,420,687.78c-11.23,14.84-52.43,72.07-80.86,91.79-7.46,5.18-24.65,13.53-35.94,5s-8-27.4-5-35.94C309.82,716.11,341.23,673.62,352.39,658.88Z" transform="translate(-295.32 -136.88)" style="fill:#f4f4f4"/><path d="M581.13,1038.6c0,35.6-169.22,35.6-169.22,0s37.88-64.47,84.61-64.47S581.13,1003,581.13,1038.6Z" transform="translate(-295.32 -136.88)" style="fill:#fff"/><path d="M792.13,1038.6c0,35.6-169.22,35.6-169.22,0s37.88-64.47,84.61-64.47S792.13,1003,792.13,1038.6Z" transform="translate(-295.32 -136.88)" style="fill:#fff"/><path d="M517.58,936.61l-45.73,40.31a188.57,188.57,0,0,0,34.4,15c20.46,6.47,40.5,8.91,57.81,7.78l8.69-50.58Z" transform="translate(-295.32 -136.88)" style="fill:#eaeaea"/><path d="M687.42,936.61l45.44,40.47a185.66,185.66,0,0,1-34.11,14.83c-20.46,6.47-41.64,9.18-59,8.05l-7.54-50.85Z" transform="translate(-295.32 -136.88)" style="fill:#eaeaea"/><path d="M813,484.86C813,367.2,718.85,272,601.18,272h-1C482.51,272,385,367.2,385,484.86V779c0,117.67,97.51,213,215.18,213h1C718.85,992,813,896.62,813,779Z" transform="translate(-295.32 -136.88)" style="fill:#fff"/><path d="M797,701.48c-13.88-23.61-32.17-75.58-8.58-89.45s47.2,14.36,61.07,38c9.44,16,46.63,76,54,109.76,1.94,8.86,3.1,27.94-9.12,35.12s-28.38-3-35.11-9.12C833.62,762.66,806.32,717.41,797,701.48Z" transform="translate(-295.32 -136.88)" style="fill:#f4f4f4"/><path d="M747.38,446.23c0,45.19-72.19,81.83-161.26,81.83s-161.25-36.64-161.25-81.83,72.2-81.84,161.25-81.84S747.38,401,747.38,446.23Z" transform="translate(-295.32 -136.88)" style="fill:#3f3f3f"/><path d="M445,425.23h1.8a2,2,0,0,1,2,2V429a2,2,0,0,1-2,2H445a2,2,0,0,1-2-2v-1.8a2,2,0,0,1,2-2Z" transform="translate(-281.75 733.1) rotate(-89.46)" style="fill:#00fff8"/><path d="M444.94,432h1.8a2,2,0,0,1,2,2v1.8a2,2,0,0,1-2,2h-1.8a2,2,0,0,1-2-2V434a2,2,0,0,1,2-2Z" transform="translate(-289.07 739.26) rotate(-89.4)" style="fill:#00fff8"/><rect x="442.92" y="438.93" width="5.83" height="5.83" rx="2.01" transform="translate(-295.78 746.34) rotate(-89.42)" style="fill:#00fff8"/><rect x="442.92" y="445.87" width="5.83" height="5.83" rx="2.01" transform="translate(-302.69 753.23) rotate(-89.43)" style="fill:#00fff8"/><rect x="442.92" y="452.8" width="5.83" height="5.83" rx="2.01" transform="translate(-309.77 759.94) rotate(-89.41)" style="fill:#00fff8"/><rect x="442.92" y="459.73" width="5.83" height="5.83" rx="2.01" transform="translate(-316.55 766.95) rotate(-89.43)" style="fill:#00fff8"/><rect x="449.61" y="425.23" width="5.83" height="5.83" rx="2.01" transform="translate(-275.21 739.71) rotate(-89.46)" style="fill:#00fff8"/><rect x="449.53" y="438.93" width="5.83" height="5.83" rx="2.01" transform="translate(-289.24 752.95) rotate(-89.42)" style="fill:#00fff8"/><rect x="449.53" y="459.73" width="5.83" height="5.83" rx="2.01" transform="translate(-310.01 773.56) rotate(-89.43)" style="fill:#00fff8"/><path d="M458.24,425.23H460a2,2,0,0,1,2,2V429a2,2,0,0,1-2,2h-1.8a2,2,0,0,1-2-2v-1.8A2,2,0,0,1,458.24,425.23Z" transform="translate(-268.66 746.31) rotate(-89.46)" style="fill:#00fff8"/><rect x="456.14" y="438.93" width="5.83" height="5.83" rx="2.01" transform="matrix(0.01, -1, 1, 0.01, -282.7, 759.56)" style="fill:#00fff8"/><path d="M458.16,459.73H460a2,2,0,0,1,2,2v1.8a2,2,0,0,1-2,2h-1.8a2,2,0,0,1-2-2v-1.8A2,2,0,0,1,458.16,459.73Z" transform="translate(-303.47 780.17) rotate(-89.43)" style="fill:#00fff8"/><path d="M464.85,425.23h1.8a2,2,0,0,1,2,2V429a2,2,0,0,1-2,2h-1.8a2,2,0,0,1-2-2v-1.8A2,2,0,0,1,464.85,425.23Z" transform="translate(-262.12 752.92) rotate(-89.46)" style="fill:#00fff8"/><path d="M464.77,438.93h1.8a2,2,0,0,1,2,2v1.8a2,2,0,0,1-2,2h-1.8a2,2,0,0,1-2-2V441a2,2,0,0,1,2-2Z" transform="translate(-276.16 766.17) rotate(-89.42)" style="fill:#00fff8"/><rect x="462.75" y="459.73" width="5.83" height="5.83" rx="2.01" transform="translate(-296.92 786.78) rotate(-89.43)" style="fill:#00fff8"/><path d="M478.06,425.23h1.8a2,2,0,0,1,2,2V429a2,2,0,0,1-2,2h-1.8a2,2,0,0,1-2-2v-1.8A2,2,0,0,1,478.06,425.23Z" transform="translate(-249.03 766.14) rotate(-89.46)" style="fill:#00fff8"/><path d="M478,432h1.8a2,2,0,0,1,2,2v1.8a2,2,0,0,1-2,2H478a2,2,0,0,1-2-2V434a2,2,0,0,1,2-2Z" transform="translate(-256.37 772.31) rotate(-89.4)" style="fill:#00fff8"/><path d="M478,438.93h1.8a2,2,0,0,1,2,2v1.8a2,2,0,0,1-2,2H478a2,2,0,0,1-2-2v-1.8a2,2,0,0,1,2-2Z" transform="translate(-263.07 779.39) rotate(-89.42)" style="fill:#00fff8"/><path d="M478,445.87h1.8a2,2,0,0,1,2,2v1.8a2,2,0,0,1-2,2H478a2,2,0,0,1-2-2v-1.8a2,2,0,0,1,2-2Z" transform="translate(-269.97 786.27) rotate(-89.43)" style="fill:#00fff8"/><rect x="475.97" y="452.8" width="5.83" height="5.83" rx="2.01" transform="translate(-277.06 792.98) rotate(-89.41)" style="fill:#00fff8"/><path d="M478,459.73h1.8a2,2,0,0,1,2,2v1.8a2,2,0,0,1-2,2H478a2,2,0,0,1-2-2v-1.8a2,2,0,0,1,2-2Z" transform="translate(-283.83 800) rotate(-89.43)" style="fill:#00fff8"/><path d="M484.59,438.93h1.8a2,2,0,0,1,2,2v1.8a2,2,0,0,1-2,2h-1.8a2,2,0,0,1-2-2v-1.8a2,2,0,0,1,2-2Z" transform="translate(-256.53 786) rotate(-89.42)" style="fill:#00fff8"/><rect x="489.19" y="445.86" width="5.83" height="5.83" rx="2.01" transform="translate(-256.89 799.49) rotate(-89.43)" style="fill:#00fff8"/><rect x="495.88" y="425.23" width="5.83" height="5.83" rx="2.01" transform="translate(-229.39 785.96) rotate(-89.46)" style="fill:#00fff8"/><path d="M495.8,434a2,2,0,0,1,2-2l1.8,0a2,2,0,0,1,2,2l0,1.8a2,2,0,0,1-2,2l-1.8,0a2,2,0,0,1-2-2Z" transform="translate(-295.32 -136.88)" style="fill:#00fff8"/><path d="M497.81,438.93h1.8a2,2,0,0,1,2,2v1.8a2,2,0,0,1-2,2h-1.8a2,2,0,0,1-2-2v-1.8A2,2,0,0,1,497.81,438.93Z" transform="translate(-243.44 799.21) rotate(-89.42)" style="fill:#00fff8"/><path d="M497.81,445.86h1.8a2,2,0,0,1,2,2v1.8a2,2,0,0,1-2,2h-1.8a2,2,0,0,1-2-2v-1.8A2,2,0,0,1,497.81,445.86Z" transform="translate(-250.34 806.1) rotate(-89.43)" style="fill:#00fff8"/><path d="M497.81,452.8h1.8a2,2,0,0,1,2,2v1.8a2,2,0,0,1-2,2h-1.8a2,2,0,0,1-2-2v-1.8A2,2,0,0,1,497.81,452.8Z" transform="translate(-257.44 812.81) rotate(-89.41)" style="fill:#00fff8"/><path d="M497.81,459.73h1.8a2,2,0,0,1,2,2v1.8a2,2,0,0,1-2,2h-1.8a2,2,0,0,1-2-2v-1.8a2,2,0,0,1,2-2Z" transform="translate(-264.2 819.83) rotate(-89.43)" style="fill:#00fff8"/><rect x="509.09" y="425.23" width="5.83" height="5.83" rx="2.01" transform="matrix(0.01, -1, 1, 0.01, -216.29, 799.18)" style="fill:#00fff8"/><path d="M517.72,425.23h1.8a2,2,0,0,1,2,2V429a2,2,0,0,1-2,2h-1.8a2,2,0,0,1-2-2v-1.8a2,2,0,0,1,2-2Z" transform="translate(-209.75 805.79) rotate(-89.46)" style="fill:#00fff8"/><path d="M524.33,425.23h1.8a2,2,0,0,1,2,2V429a2,2,0,0,1-2,2h-1.8a2,2,0,0,1-2-2v-1.8A2,2,0,0,1,524.33,425.23Z" transform="translate(-203.2 812.4) rotate(-89.46)" style="fill:#00fff8"/><rect x="522.23" y="432" width="5.83" height="5.83" rx="2.01" transform="translate(-210.6 818.56) rotate(-89.4)" style="fill:#00fff8"/><path d="M524.25,438.93H526a2,2,0,0,1,2,2v1.8a2,2,0,0,1-2,2h-1.8a2,2,0,0,1-2-2V441A2,2,0,0,1,524.25,438.93Z" transform="translate(-217.27 825.65) rotate(-89.42)" style="fill:#00fff8"/><rect x="522.23" y="445.87" width="5.83" height="5.83" rx="2.01" transform="translate(-224.17 832.53) rotate(-89.43)" style="fill:#00fff8"/><path d="M524.25,452.8H526a2,2,0,0,1,2,2v1.8a2,2,0,0,1-2,2h-1.8a2,2,0,0,1-2-2v-1.8a2,2,0,0,1,2-2Z" transform="translate(-231.28 839.24) rotate(-89.41)" style="fill:#00fff8"/><rect x="522.23" y="459.73" width="5.83" height="5.83" rx="2.01" transform="translate(-238.04 846.26) rotate(-89.43)" style="fill:#00fff8"/><path d="M530.94,425.23h1.8a2,2,0,0,1,2,2V429a2,2,0,0,1-2,2h-1.8a2,2,0,0,1-2-2v-1.8a2,2,0,0,1,2-2Z" transform="translate(-196.66 819.01) rotate(-89.46)" style="fill:#00fff8"/><rect x="535.53" y="425.23" width="5.83" height="5.83" rx="2.01" transform="translate(-190.11 825.62) rotate(-89.46)" style="fill:#00fff8"/><path d="M550.76,425.23h1.8a2,2,0,0,1,2,2V429a2,2,0,0,1-2,2h-1.8a2,2,0,0,1-2-2v-1.8a2,2,0,0,1,2-2Z" transform="translate(-177.02 838.84) rotate(-89.46)" style="fill:#00fff8"/><path d="M548.68,434a2,2,0,0,1,2-2l1.8,0a2,2,0,0,1,2,2l0,1.8a2,2,0,0,1-2,2l-1.8,0a2,2,0,0,1-2-2Z" transform="translate(-295.32 -136.88)" style="fill:#00fff8"/><path d="M550.68,438.93h1.8a2,2,0,0,1,2,2v1.8a2,2,0,0,1-2,2h-1.8a2,2,0,0,1-2-2v-1.8a2,2,0,0,1,2-2Z" transform="translate(-191.1 852.08) rotate(-89.42)" style="fill:#00fff8"/><path d="M550.68,445.87h1.8a2,2,0,0,1,2,2v1.8a2,2,0,0,1-2,2h-1.8a2,2,0,0,1-2-2v-1.8A2,2,0,0,1,550.68,445.87Z" transform="translate(-198 858.97) rotate(-89.43)" style="fill:#00fff8"/><rect x="548.67" y="452.8" width="5.83" height="5.83" rx="2.01" transform="translate(-205.11 865.68) rotate(-89.41)" style="fill:#00fff8"/><path d="M550.68,459.73h1.8a2,2,0,0,1,2,2v1.8a2,2,0,0,1-2,2h-1.8a2,2,0,0,1-2-2v-1.8a2,2,0,0,1,2-2Z" transform="matrix(0.01, -1, 1, 0.01, -211.86, 872.69)" style="fill:#00fff8"/><path d="M557.37,425.23h1.8a2,2,0,0,1,2,2V429a2,2,0,0,1-2,2h-1.8a2,2,0,0,1-2-2v-1.8a2,2,0,0,1,2-2Z" transform="translate(-170.47 845.45) rotate(-89.46)" style="fill:#00fff8"/><path d="M557.29,438.93h1.8a2,2,0,0,1,2,2v1.8a2,2,0,0,1-2,2h-1.8a2,2,0,0,1-2-2v-1.8A2,2,0,0,1,557.29,438.93Z" transform="translate(-184.56 858.69) rotate(-89.42)" style="fill:#00fff8"/><path d="M557.29,459.73h1.8a2,2,0,0,1,2,2v1.8a2,2,0,0,1-2,2h-1.8a2,2,0,0,1-2-2v-1.8a2,2,0,0,1,2-2Z" transform="matrix(0.01, -1, 1, 0.01, -205.32, 879.3)" style="fill:#00fff8"/><rect x="561.97" y="425.23" width="5.83" height="5.83" rx="2.01" transform="translate(-163.92 852.05) rotate(-89.46)" style="fill:#00fff8"/><path d="M563.9,438.93h1.8a2,2,0,0,1,2,2v1.8a2,2,0,0,1-2,2h-1.8a2,2,0,0,1-2-2v-1.8a2,2,0,0,1,2-2Z" transform="translate(-178.01 865.3) rotate(-89.42)" style="fill:#00fff8"/><path d="M563.9,459.73h1.8a2,2,0,0,1,2,2v1.8a2,2,0,0,1-2,2h-1.8a2,2,0,0,1-2-2v-1.8A2,2,0,0,1,563.9,459.73Z" transform="translate(-198.78 885.91) rotate(-89.43)" style="fill:#00fff8"/><path d="M570.59,425.23h1.8a2,2,0,0,1,2,2V429a2,2,0,0,1-2,2h-1.8a2,2,0,0,1-2-2v-1.8A2,2,0,0,1,570.59,425.23Z" transform="translate(-157.38 858.66) rotate(-89.46)" style="fill:#00fff8"/><path d="M570.51,438.93h1.8a2,2,0,0,1,2,2v1.8a2,2,0,0,1-2,2h-1.8a2,2,0,0,1-2-2v-1.8a2,2,0,0,1,2-2Z" transform="translate(-171.48 871.91) rotate(-89.42)" style="fill:#00fff8"/><rect x="568.49" y="459.73" width="5.83" height="5.83" rx="2.01" transform="translate(-192.24 892.52) rotate(-89.43)" style="fill:#00fff8"/><path d="M583.81,425.23h1.8a2,2,0,0,1,2,2V429a2,2,0,0,1-2,2h-1.8a2,2,0,0,1-2-2v-1.8A2,2,0,0,1,583.81,425.23Z" transform="translate(-144.28 871.88) rotate(-89.46)" style="fill:#00fff8"/><path d="M583.73,432h1.8a2,2,0,0,1,2,2v1.8a2,2,0,0,1-2,2h-1.8a2,2,0,0,1-2-2V434A2,2,0,0,1,583.73,432Z" transform="translate(-151.75 878.04) rotate(-89.4)" style="fill:#00fff8"/><path d="M583.73,438.93h1.8a2,2,0,0,1,2,2v1.8a2,2,0,0,1-2,2h-1.8a2,2,0,0,1-2-2v-1.8a2,2,0,0,1,2-2Z" transform="translate(-158.39 885.12) rotate(-89.42)" style="fill:#00fff8"/><path d="M583.73,445.87h1.8a2,2,0,0,1,2,2v1.8a2,2,0,0,1-2,2h-1.8a2,2,0,0,1-2-2v-1.8A2,2,0,0,1,583.73,445.87Z" transform="translate(-165.29 892.01) rotate(-89.43)" style="fill:#00fff8"/><rect x="581.71" y="452.8" width="5.83" height="5.83" rx="2.01" transform="translate(-172.41 898.72) rotate(-89.41)" style="fill:#00fff8"/><rect x="581.71" y="459.73" width="5.83" height="5.83" rx="2.01" transform="matrix(0.01, -1, 1, 0.01, -179.15, 905.73)" style="fill:#00fff8"/><path d="M590.42,425.23h1.8a2,2,0,0,1,2,2V429a2,2,0,0,1-2,2h-1.8a2,2,0,0,1-2-2v-1.8A2,2,0,0,1,590.42,425.23Z" transform="translate(-137.74 878.49) rotate(-89.46)" style="fill:#00fff8"/><rect x="588.32" y="445.87" width="5.83" height="5.83" rx="2.01" transform="translate(-158.75 898.62) rotate(-89.43)" style="fill:#00fff8"/><path d="M597,425.23h1.8a2,2,0,0,1,2,2V429a2,2,0,0,1-2,2H597a2,2,0,0,1-2-2v-1.8a2,2,0,0,1,2-2Z" transform="translate(-131.19 885.1) rotate(-89.46)" style="fill:#00fff8"/><rect x="594.93" y="445.87" width="5.83" height="5.83" rx="2.01" transform="translate(-152.2 905.23) rotate(-89.43)" style="fill:#00fff8"/><rect x="594.93" y="452.8" width="5.83" height="5.83" rx="2.01" transform="translate(-159.33 911.93) rotate(-89.41)" style="fill:#00fff8"/><path d="M603.63,425.23h1.8a2,2,0,0,1,2,2V429a2,2,0,0,1-2,2h-1.8a2,2,0,0,1-2-2v-1.8a2,2,0,0,1,2-2Z" transform="translate(-124.65 891.71) rotate(-89.46)" style="fill:#00fff8"/><rect x="601.54" y="432" width="5.83" height="5.83" rx="2.01" transform="translate(-132.13 897.87) rotate(-89.4)" style="fill:#00fff8"/><rect x="601.54" y="438.93" width="5.83" height="5.83" rx="2.01" transform="translate(-138.76 904.95) rotate(-89.42)" style="fill:#00fff8"/><path d="M603.55,445.87h1.8a2,2,0,0,1,2,2v1.8a2,2,0,0,1-2,2h-1.8a2,2,0,0,1-2-2v-1.8A2,2,0,0,1,603.55,445.87Z" transform="translate(-145.66 911.84) rotate(-89.43)" style="fill:#00fff8"/><path d="M603.55,459.73h1.8a2,2,0,0,1,2,2v1.8a2,2,0,0,1-2,2h-1.8a2,2,0,0,1-2-2v-1.8a2,2,0,0,1,2-2Z" transform="translate(-159.52 925.56) rotate(-89.43)" style="fill:#00fff8"/><rect x="628.06" y="425.23" width="5.83" height="5.83" rx="2.01" transform="translate(-98.47 918.14) rotate(-89.46)" style="fill:#00fff8"/><rect x="627.97" y="432" width="5.83" height="5.83" rx="2.01" transform="translate(-105.98 924.3) rotate(-89.4)" style="fill:#00fff8"/><rect x="627.97" y="438.93" width="5.83" height="5.83" rx="2.01" transform="translate(-112.59 931.38) rotate(-89.42)" style="fill:#00fff8"/><rect x="627.97" y="445.87" width="5.83" height="5.83" rx="2.01" transform="translate(-119.49 938.27) rotate(-89.43)" style="fill:#00fff8"/><path d="M630,452.8h1.8a2,2,0,0,1,2,2v1.8a2,2,0,0,1-2,2H630a2,2,0,0,1-2-2v-1.8a2,2,0,0,1,2-2Z" transform="translate(-126.63 944.98) rotate(-89.41)" style="fill:#00fff8"/><rect x="627.97" y="459.73" width="5.83" height="5.83" rx="2.01" transform="translate(-133.35 951.99) rotate(-89.43)" style="fill:#00fff8"/><path d="M636.68,425.23h1.8a2,2,0,0,1,2,2V429a2,2,0,0,1-2,2h-1.8a2,2,0,0,1-2-2v-1.8A2,2,0,0,1,636.68,425.23Z" transform="translate(-91.92 924.75) rotate(-89.46)" style="fill:#00fff8"/><path d="M634.59,447.85a2,2,0,0,1,2-2h1.8a2,2,0,0,1,2,2l0,1.8a2,2,0,0,1-2,2h-1.8a2,2,0,0,1-2-2Z" transform="translate(-295.32 -136.88)" style="fill:#00fff8"/><path d="M643.29,425.23h1.8a2,2,0,0,1,2,2V429a2,2,0,0,1-2,2h-1.8a2,2,0,0,1-2-2v-1.8a2,2,0,0,1,2-2Z" transform="translate(-85.37 931.36) rotate(-89.46)" style="fill:#00fff8"/><path d="M643.2,445.86H645a2,2,0,0,1,2,2v1.8a2,2,0,0,1-2,2h-1.8a2,2,0,0,1-2-2v-1.8a2,2,0,0,1,2-2Z" transform="translate(-106.4 951.49) rotate(-89.43)" style="fill:#00fff8"/><path d="M649.9,425.23h1.8a2,2,0,0,1,2,2V429a2,2,0,0,1-2,2h-1.8a2,2,0,0,1-2-2v-1.8a2,2,0,0,1,2-2Z" transform="translate(-78.83 937.96) rotate(-89.46)" style="fill:#00fff8"/><path d="M649.82,432h1.8a2,2,0,0,1,2,2v1.8a2,2,0,0,1-2,2h-1.8a2,2,0,0,1-2-2V434a2,2,0,0,1,2-2Z" transform="translate(-86.35 944.13) rotate(-89.4)" style="fill:#00fff8"/><path d="M649.81,438.93h1.8a2,2,0,0,1,2,2v1.8a2,2,0,0,1-2,2h-1.8a2,2,0,0,1-2-2v-1.8A2,2,0,0,1,649.81,438.93Z" transform="translate(-92.96 951.21) rotate(-89.42)" style="fill:#00fff8"/><path d="M649.82,445.87h1.8a2,2,0,0,1,2,2v1.8a2,2,0,0,1-2,2h-1.8a2,2,0,0,1-2-2v-1.8a2,2,0,0,1,2-2Z" transform="translate(-99.86 958.1) rotate(-89.43)" style="fill:#00fff8"/><path d="M663.12,425.23h1.8a2,2,0,0,1,2,2V429a2,2,0,0,1-2,2h-1.8a2,2,0,0,1-2-2v-1.8A2,2,0,0,1,663.12,425.23Z" transform="translate(-65.74 951.18) rotate(-89.46)" style="fill:#00fff8"/><path d="M663,459.73h1.8a2,2,0,0,1,2,2v1.8a2,2,0,0,1-2,2H663a2,2,0,0,1-2-2v-1.8a2,2,0,0,1,2-2Z" transform="translate(-100.63 985.04) rotate(-89.43)" style="fill:#00fff8"/><path d="M669.72,425.23h1.8a2,2,0,0,1,2,2V429a2,2,0,0,1-2,2h-1.8a2,2,0,0,1-2-2v-1.8a2,2,0,0,1,2-2Z" transform="translate(-59.19 957.79) rotate(-89.46)" style="fill:#00fff8"/><path d="M669.64,459.73h1.8a2,2,0,0,1,2,2v1.8a2,2,0,0,1-2,2h-1.8a2,2,0,0,1-2-2v-1.8A2,2,0,0,1,669.64,459.73Z" transform="translate(-94.09 991.65) rotate(-89.43)" style="fill:#00fff8"/><path d="M674.33,427.22a2,2,0,0,1,2-2l1.8,0a2,2,0,0,1,2,2l0,1.8a2,2,0,0,1-2,2l-1.8,0a2,2,0,0,1-2-2Z" transform="translate(-295.32 -136.88)" style="fill:#00fff8"/><rect x="674.24" y="432" width="5.83" height="5.83" rx="2.01" transform="translate(-60.19 970.56) rotate(-89.4)" style="fill:#00fff8"/><path d="M676.25,438.93h1.8a2,2,0,0,1,2,2v1.8a2,2,0,0,1-2,2h-1.8a2,2,0,0,1-2-2v-1.8a2,2,0,0,1,2-2Z" transform="translate(-66.79 977.65) rotate(-89.42)" style="fill:#00fff8"/><path d="M676.25,445.86h1.8a2,2,0,0,1,2,2v1.8a2,2,0,0,1-2,2h-1.8a2,2,0,0,1-2-2v-1.8a2,2,0,0,1,2-2Z" transform="translate(-73.68 984.53) rotate(-89.43)" style="fill:#00fff8"/><path d="M676.25,452.8h1.8a2,2,0,0,1,2,2v1.8a2,2,0,0,1-2,2h-1.8a2,2,0,0,1-2-2v-1.8A2,2,0,0,1,676.25,452.8Z" transform="translate(-80.84 991.24) rotate(-89.41)" style="fill:#00fff8"/><rect x="674.24" y="459.73" width="5.83" height="5.83" rx="2.01" transform="translate(-87.54 998.26) rotate(-89.43)" style="fill:#00fff8"/><path d="M682.94,425.23h1.8a2,2,0,0,1,2,2V429a2,2,0,0,1-2,2h-1.8a2,2,0,0,1-2-2v-1.8a2,2,0,0,1,2-2Z" transform="translate(-46.09 971.01) rotate(-89.46)" style="fill:#00fff8"/><path d="M682.86,459.73h1.8a2,2,0,0,1,2,2v1.8a2,2,0,0,1-2,2h-1.8a2,2,0,0,1-2-2v-1.8a2,2,0,0,1,2-2Z" transform="matrix(0.01, -1, 1, 0.01, -81.01, 1004.86)" style="fill:#00fff8"/><path d="M689.55,425.23h1.8a2,2,0,0,1,2,2V429a2,2,0,0,1-2,2h-1.8a2,2,0,0,1-2-2v-1.8a2,2,0,0,1,2-2Z" transform="translate(-39.55 977.62) rotate(-89.46)" style="fill:#00fff8"/><path d="M689.47,459.73h1.8a2,2,0,0,1,2,2v1.8a2,2,0,0,1-2,2h-1.8a2,2,0,0,1-2-2v-1.8a2,2,0,0,1,2-2Z" transform="translate(-74.46 1011.47) rotate(-89.43)" style="fill:#00fff8"/><path d="M702.77,425.23h1.8a2,2,0,0,1,2,2V429a2,2,0,0,1-2,2h-1.8a2,2,0,0,1-2-2v-1.8A2,2,0,0,1,702.77,425.23Z" transform="translate(-26.45 990.84) rotate(-89.46)" style="fill:#00fff8"/><rect x="700.67" y="432" width="5.83" height="5.83" rx="2.01" transform="translate(-34.04 997) rotate(-89.4)" style="fill:#00fff8"/><rect x="700.67" y="438.93" width="5.83" height="5.83" rx="2.01" transform="translate(-40.62 1004.08) rotate(-89.42)" style="fill:#00fff8"/><path d="M702.69,445.87h1.8a2,2,0,0,1,2,2v1.8a2,2,0,0,1-2,2h-1.8a2,2,0,0,1-2-2v-1.8a2,2,0,0,1,2-2Z" transform="translate(-47.51 1010.97) rotate(-89.43)" style="fill:#00fff8"/><path d="M702.68,452.8h1.8a2,2,0,0,1,2,2v1.8a2,2,0,0,1-2,2h-1.8a2,2,0,0,1-2-2v-1.8A2,2,0,0,1,702.68,452.8Z" transform="translate(-54.67 1017.68) rotate(-89.41)" style="fill:#00fff8"/><path d="M702.69,459.73h1.8a2,2,0,0,1,2,2v1.8a2,2,0,0,1-2,2h-1.8a2,2,0,0,1-2-2v-1.8a2,2,0,0,1,2-2Z" transform="translate(-61.37 1024.69) rotate(-89.43)" style="fill:#00fff8"/><path d="M709.29,438.93h1.8a2,2,0,0,1,2,2v1.8a2,2,0,0,1-2,2h-1.8a2,2,0,0,1-2-2v-1.8a2,2,0,0,1,2-2Z" transform="translate(-34.08 1010.69) rotate(-89.42)" style="fill:#00fff8"/><path d="M715.91,445.87h1.8a2,2,0,0,1,2,2v1.8a2,2,0,0,1-2,2h-1.8a2,2,0,0,1-2-2v-1.8a2,2,0,0,1,2-2Z" transform="translate(-34.43 1024.18) rotate(-89.43)" style="fill:#00fff8"/><rect x="720.58" y="425.23" width="5.83" height="5.83" rx="2.01" transform="translate(-6.81 1010.66) rotate(-89.46)" style="fill:#00fff8"/><rect x="720.5" y="432" width="5.83" height="5.83" rx="2.01" transform="translate(-14.42 1016.82) rotate(-89.4)" style="fill:#00fff8"/><path d="M722.51,438.93h1.8a2,2,0,0,1,2,2v1.8a2,2,0,0,1-2,2h-1.8a2,2,0,0,1-2-2v-1.8a2,2,0,0,1,2-2Z" transform="translate(-20.99 1023.91) rotate(-89.42)" style="fill:#00fff8"/><path d="M722.51,445.87h1.8a2,2,0,0,1,2,2v1.8a2,2,0,0,1-2,2h-1.8a2,2,0,0,1-2-2v-1.8a2,2,0,0,1,2-2Z" transform="translate(-27.88 1030.79) rotate(-89.43)" style="fill:#00fff8"/><path d="M722.51,452.8h1.8a2,2,0,0,1,2,2v1.8a2,2,0,0,1-2,2h-1.8a2,2,0,0,1-2-2v-1.8a2,2,0,0,1,2-2Z" transform="translate(-35.05 1037.5) rotate(-89.41)" style="fill:#00fff8"/><rect x="720.5" y="459.73" width="5.83" height="5.83" rx="2.01" transform="translate(-41.74 1044.52) rotate(-89.43)" style="fill:#00fff8"/><path d="M675.93,334l0-178,0-9.63-9-9-9,8.95-9-9-9,9-9-9-9,9-9-9-9,8.95-8.94-9-9,8.95-8.94-9-9,9-8.95-9-9,8.95-9-9-9,8.95-9-9-9,9-8.95-9-9,9V333.89c25.07-8.82,56.05-14,89.59-14C619.64,319.86,650.79,325.13,675.93,334Z" transform="translate(-295.32 -136.88)" style="fill:#f4f3d9"/><rect x="232.29" y="70.29" width="116.59" height="8.22" style="fill:#aaa"/><rect x="232.29" y="100.47" width="116.59" height="8.22" style="fill:#c9c9c9"/><rect x="232.29" y="118.96" width="116.59" height="8.22" style="fill:#c9c9c9"/><rect x="232.29" y="137.44" width="116.59" height="8.22" style="fill:#c9c9c9"/><path d="M536.45,609.24a21,21,0,0,1-21.05,21H485.1a21,21,0,0,1-21.05-21h0a21.06,21.06,0,0,1,21.05-21.06h30.3a21,21,0,0,1,21.05,21.06Z" transform="translate(-295.32 -136.88)" style="fill:#d1d3d4"/><path d="M622.33,609.24a21,21,0,0,1-21.05,21H571a21,21,0,0,1-21.06-21h0A21.07,21.07,0,0,1,571,588.18h30.3a21.06,21.06,0,0,1,21.05,21.06Z" transform="translate(-295.32 -136.88)" style="fill:#d1d3d4"/><path d="M708.21,609.24a21,21,0,0,1-21.07,21H656.83a21,21,0,0,1-21-21h0a21.06,21.06,0,0,1,21-21.06h30.31a21.06,21.06,0,0,1,21.07,21.06Z" transform="translate(-295.32 -136.88)" style="fill:#d1d3d4"/><path d="M536.45,668.16a21,21,0,0,1-21.05,21.05H485.1a21.05,21.05,0,0,1-21.05-21.05h0a21.06,21.06,0,0,1,21.05-21h30.3a21,21,0,0,1,21.05,21Z" transform="translate(-295.32 -136.88)" style="fill:#d1d3d4"/><path d="M622.33,668.16a21.05,21.05,0,0,1-21.05,21.05H571a21.06,21.06,0,0,1-21.06-21.05h0a21.07,21.07,0,0,1,21.06-21h30.3a21.06,21.06,0,0,1,21.05,21Z" transform="translate(-295.32 -136.88)" style="fill:#d1d3d4"/><path d="M708.21,668.16a21.06,21.06,0,0,1-21.07,21.05H656.83a21,21,0,0,1-21-21.05h0a21.06,21.06,0,0,1,21-21h30.31a21.06,21.06,0,0,1,21.07,21Z" transform="translate(-295.32 -136.88)" style="fill:#d1d3d4"/><path d="M536.45,727.1a21,21,0,0,1-21.05,21H485.1a21.06,21.06,0,0,1-21.05-21h0A21.05,21.05,0,0,1,485.1,706h30.3a21,21,0,0,1,21.05,21.06Z" transform="translate(-295.32 -136.88)" style="fill:#d1d3d4"/><path d="M622.33,727.1a21.06,21.06,0,0,1-21.05,21H571a21.06,21.06,0,0,1-21.06-21h0A21.06,21.06,0,0,1,571,706h30.3a21.05,21.05,0,0,1,21.05,21.06Z" transform="translate(-295.32 -136.88)" style="fill:#d1d3d4"/><path d="M708.21,727.1a21.06,21.06,0,0,1-21.07,21H656.83a21.05,21.05,0,0,1-21-21h0a21.05,21.05,0,0,1,21-21.06h30.31a21.06,21.06,0,0,1,21.07,21.06Z" transform="translate(-295.32 -136.88)" style="fill:#d1d3d4"/><path d="M536.45,786a21,21,0,0,1-21.05,21H485.1a21,21,0,0,1-21.05-21h0A21.05,21.05,0,0,1,485.1,765h30.3A21,21,0,0,1,536.45,786Z" transform="translate(-295.32 -136.88)" style="fill:#d1d3d4"/><path d="M622.33,786a21,21,0,0,1-21.05,21H571a21.05,21.05,0,0,1-21.06-21h0A21.06,21.06,0,0,1,571,765h30.3A21.05,21.05,0,0,1,622.33,786Z" transform="translate(-295.32 -136.88)" style="fill:#d1d3d4"/><path d="M708.21,786a21,21,0,0,1-21.07,21H656.83a21,21,0,0,1-21-21h0a21.05,21.05,0,0,1,21-21.06h30.31A21.06,21.06,0,0,1,708.21,786Z" transform="translate(-295.32 -136.88)" style="fill:#d1d3d4"/><path d="M536.45,851.7a21,21,0,0,1-21.05,21H485.1a21,21,0,0,1-21.05-21h0a21.07,21.07,0,0,1,21.05-21.06h30.3a21.05,21.05,0,0,1,21.05,21.06Z" transform="translate(-295.32 -136.88)" style="fill:#ff584d"/><path d="M622.33,851.7a21,21,0,0,1-21.05,21H571a21.05,21.05,0,0,1-21.06-21h0A21.07,21.07,0,0,1,571,830.64h30.3a21.07,21.07,0,0,1,21.05,21.06Z" transform="translate(-295.32 -136.88)" style="fill:#e2cc2d"/><path d="M708.21,851.7a21,21,0,0,1-21.07,21H656.83a21,21,0,0,1-21-21h0a21.06,21.06,0,0,1,21-21.06h30.31a21.07,21.07,0,0,1,21.07,21.06Z" transform="translate(-295.32 -136.88)" style="fill:#6db5b5"/></svg>