<svg id="Layer_1" data-name="Layer 1" xmlns="http://www.w3.org/2000/svg" viewBox="0 0 1499.61 1335.71"><path d="M645.92,381.44c-83,45.14-115.62,157-87.28,207.32S646.76,737.86,514,847.45c-103.39,85.32-189.87-10.39-220,68.83s-5.75,462.91,363.6,546.87c192.3,33.17,213.48-56.42,275.93-107.65s338.4-212.47,513.11-194.56,291.72,13.67,261.33-220.94-230.71-619.35-462.58-589.16c-148.37,23.05-150.73,110.92-251.89,120.85S894.87,246.08,645.92,381.44Z" transform="translate(-263.09 -339.38)" style="fill:#293856;opacity:0.2"/><path d="M1762.69,1653.21c0,12.08-292.3,21.88-652.88,21.88s-846.72-11.87-846.72-24,486.14-19.81,846.72-19.81S1762.69,1641.12,1762.69,1653.21Z" transform="translate(-263.09 -339.38)" style="fill:#273856;opacity:0.2"/><g id="phone"><path d="M867.21,572.69c-42,0-80,43.31-80,85.35v894c0,42,41.1,84.3,83.13,84.3h378.83c42,0,84.17-41.23,84.17-83.26V657c0-42-38-84.31-80-84.31Z" transform="translate(-263.09 -339.38)" style="fill:#5969b0"/><path d="M1250.87,1650.05H869.68a97.15,97.15,0,0,1-97-97V656.36a97.15,97.15,0,0,1,97-97h381.19a97.15,97.15,0,0,1,97,97V1553A97.15,97.15,0,0,1,1250.87,1650.05ZM869.68,580.13a76.31,76.31,0,0,0-76.22,76.23V1553a76.31,76.31,0,0,0,76.22,76.23h381.19a76.31,76.31,0,0,0,76.22-76.23V656.36a76.31,76.31,0,0,0-76.22-76.23Z" transform="translate(-263.09 -339.38)" style="fill:#373737"/><rect x="501.62" y="439.38" width="22.51" height="45.79" style="fill:#373737"/><rect x="1070.25" y="539.3" width="22.5" height="93.67" style="fill:#373737"/><rect x="501.62" y="508.07" width="22.51" height="66.61" style="fill:#373737"/><rect x="501.62" y="597.58" width="22.51" height="66.61" style="fill:#373737"/><polygon points="622.69 1236.73 580.65 1236.73 601.67 1194.69 622.69 1236.73" style="fill:#fff;opacity:0.6000000000000001"/><path d="M1170.44,1555.09a21,21,0,1,1-21-21A21,21,0,0,1,1170.44,1555.09Z" transform="translate(-263.09 -339.38)" style="fill:#fff;opacity:0.6000000000000001"/><path d="M974.76,1555.09a21,21,0,1,1-11-18.47,16,16,0,0,0,8.71,9A20.89,20.89,0,0,1,974.76,1555.09Z" transform="translate(-263.09 -339.38)" style="fill:#fff;opacity:0.6000000000000001"/><path d="M975.07,1548a13.62,13.62,0,1,1,13.61-13.62A13.64,13.64,0,0,1,975.07,1548Zm0-23a9.38,9.38,0,1,0,9.37,9.38A9.39,9.39,0,0,0,975.07,1525Z" transform="translate(-263.09 -339.38)" style="fill:#fff"/><polygon points="806.72 1236.73 764.68 1236.73 764.68 1194.69 795.23 1194.69 806.72 1194.69 806.72 1206.52 806.72 1236.73" style="fill:#fff;opacity:0.6000000000000001"/><path d="M1069.8,1525a9.38,9.38,0,1,0,9.38,9.38A9.39,9.39,0,0,0,1069.8,1525Z" transform="translate(-263.09 -339.38)" style="fill:#fff"/><g style="opacity:0.6000000000000001"><path d="M1268.39,1536.32a5.76,5.76,0,0,1-5.75,5.75H1226a5.76,5.76,0,0,1-5.75-5.75h0a5.76,5.76,0,0,1,5.75-5.75h36.67a5.76,5.76,0,0,1,5.75,5.75Z" transform="translate(-263.09 -339.38)" style="fill:#fff"/><path d="M1268.39,1551.39a5.76,5.76,0,0,1-5.75,5.75H1226a5.76,5.76,0,0,1-5.75-5.75h0a5.75,5.75,0,0,1,5.75-5.75h36.67a5.75,5.75,0,0,1,5.75,5.75Z" transform="translate(-263.09 -339.38)" style="fill:#fff"/><path d="M1268.39,1566.45a5.76,5.76,0,0,1-5.75,5.75H1226a5.76,5.76,0,0,1-5.75-5.75h0a5.76,5.76,0,0,1,5.75-5.75h36.67a5.76,5.76,0,0,1,5.75,5.75Z" transform="translate(-263.09 -339.38)" style="fill:#fff"/></g><rect x="796.63" y="695.25" width="223.23" height="17.35" style="fill:#fff"/><rect x="796.63" y="667.24" width="223.23" height="17.34" style="fill:#fff"/><rect x="572.02" y="897.7" width="447.84" height="267.87" style="fill:#fff;opacity:0.2"/><rect x="572.02" y="342.71" width="447.84" height="166.05" style="fill:#fff;opacity:0.4"/><path d="M1285.06,1210H1056.9V1070.16h228.16Z" transform="translate(-263.09 -339.38)" style="fill:#fff;opacity:0.2"/><rect x="572.12" y="666.69" width="203.97" height="203.97" style="fill:#fff;opacity:0.4"/></g><path d="M1072.72,1261.59a31.63,31.63,0,0,1-37.87,23.8L549.79,1174.73A31.63,31.63,0,0,1,526,1136.86l66-289.07A31.61,31.61,0,0,1,629.81,824l485.06,110.66a31.61,31.61,0,0,1,23.8,37.85Z" transform="translate(-263.09 -339.38)" style="fill:#ed5e23"/><polygon points="586.04 903.64 474.16 878.12 469.54 508.07 550.23 526.48 586.04 903.64" style="fill:#fff;opacity:0.2"/><polygon points="735.92 937.84 611.11 909.36 581.98 533.73 650.66 549.4 735.92 937.84" style="fill:#fff;opacity:0.2"/><path d="M1087.33,1011.73a57.12,57.12,0,0,1-24,34.7l3.19,5.07A62.75,62.75,0,0,0,1086,967.11l-5.09,3.16A57.05,57.05,0,0,1,1087.33,1011.73Z" transform="translate(-263.09 -339.38)" style="fill:#fff"/><path d="M1075,1008.92a44.53,44.53,0,0,1-18.41,26.83l3.18,5.08a50.18,50.18,0,0,0,15.46-67.08l-5.09,3.17A44.5,44.5,0,0,1,1075,1008.92Z" transform="translate(-263.09 -339.38)" style="fill:#fff"/><path d="M1061.83,1005.91a34.39,34.39,0,0,1-12,19.06l3.18,5.08a39.93,39.93,0,0,0,11.43-49.58l-5.09,3.17A34.56,34.56,0,0,1,1061.83,1005.91Z" transform="translate(-263.09 -339.38)" style="fill:#fff"/><path d="M1048.42,1002.86a26.46,26.46,0,0,1-5.54,11l3.32,5.27a31.94,31.94,0,0,0,7.32-31.88l-5.27,3.28A26.84,26.84,0,0,1,1048.42,1002.86Z" transform="translate(-263.09 -339.38)" style="fill:#fff"/><path d="M711.61,943.15a8.13,8.13,0,0,1-9.73,6.11l-65.33-14.91a8.11,8.11,0,0,1-6.12-9.72l9.58-42a8.12,8.12,0,0,1,9.73-6.11l65.33,14.9a8.12,8.12,0,0,1,6.11,9.73Z" transform="translate(-263.09 -339.38)" style="fill:#ecd515"/><path d="M701.43,951.24l-65.34-14.91a10.15,10.15,0,0,1-7.63-12.15l9.57-42a10.16,10.16,0,0,1,12.16-7.64l65.33,14.9a10.16,10.16,0,0,1,7.64,12.16l-9.57,42A10.17,10.17,0,0,1,701.43,951.24Zm-52.15-72.73A6.1,6.1,0,0,0,642,883.1l-9.58,42a6.11,6.11,0,0,0,4.59,7.3l65.33,14.9a6.1,6.1,0,0,0,7.3-4.59l9.57-42a6.1,6.1,0,0,0-4.58-7.29Z" transform="translate(-263.09 -339.38)" style="fill:#b29b31"/><rect x="676.31" y="860.18" width="4.06" height="83.26" transform="translate(-614.85 1023.18) rotate(-77.15)" style="fill:#b29b31"/><rect x="671.34" y="881.95" width="4.06" height="83.26" transform="translate(-639.93 1035.3) rotate(-77.15)" style="fill:#b29b31"/><path d="M689.76,924.75A16.24,16.24,0,0,1,670.31,937h0a16.25,16.25,0,0,1-12.22-19.45L661.85,901a16.25,16.25,0,0,1,19.45-12.23h0a16.25,16.25,0,0,1,12.23,19.45Z" transform="translate(-263.09 -339.38)" style="fill:#ecd515"/><path d="M669.86,939a18.3,18.3,0,0,1-13.75-21.88l3.76-16.49a18.28,18.28,0,1,1,35.64,8.13l-3.76,16.49A18.3,18.3,0,0,1,669.86,939Zm11-48.17a14.24,14.24,0,0,0-17,10.7L660.07,918a14.21,14.21,0,1,0,27.71,6.32l3.77-16.49A14.24,14.24,0,0,0,680.85,890.79Z" transform="translate(-263.09 -339.38)" style="fill:#b29b31"/><path d="M632.5,1024.5l-2.3,10.06-19.44-4.44,2.29-10,6.11,1.39,4.63-20.3-6.1-1.39,1.72-7.57c3.58.4,9-1.87,12.66-4.53l2.51.57-8,34.92Z" transform="translate(-263.09 -339.38)" style="fill:#fff"/><path d="M662,1008c-2.22,9.73-9,13.21-15.8,18.65l11.28,2.57-2.52,11-21.35-4.87.71-3.13a20.76,20.76,0,0,1,6.25-10.8c7.91-7.74,12.94-10.44,13.91-14.68.57-2.48.15-5-2.13-5.5s-4.23,1.78-5,5.31l-.29,1.3-6.67-1.52c.08-.53.18-1,.29-1.44,2.1-9.21,7.14-14.38,14.52-12.69C661.3,993.58,663.9,999.8,662,1008Z" transform="translate(-263.09 -339.38)" style="fill:#fff"/><path d="M687.1,1012.3c-1,4.51-3.47,8.14-6,9.07l-.06.26c2.49,2.22,3.21,6.65,2,12.13-1.82,7.14-6.41,12.2-13.82,10.51s-9.65-8.31-8-15.43l.31-1.37L668,1029c-.66,2.94-.32,5.56,2.68,6.24s4.48-1.65,5.27-5.11c.73-3.2-.1-5-1.55-5.3l-2.74-.62,1.83-8,2.14.48c1.46.34,3-.9,3.69-4.1.61-2.67,0-5.42-2.12-5.91s-3.93,1.51-4.54,4.19l-6.25-1.43.37-1.63c1.53-6.72,6.51-11.43,13.1-9.92C686.29,999.28,688.62,1005.65,687.1,1012.3Z" transform="translate(-263.09 -339.38)" style="fill:#fff"/><path d="M692.06,1028.89l7.42,1.69,2.13-9.33a75.68,75.68,0,0,0,6.95-12.36l3.19.73-5.15,22.58,3.59.82-2.19,9.6-3.59-.82-2.1,9.21-7.12-1.63,2.1-9.2-12.55-2.87,2.22-9.72a146.85,146.85,0,0,0,13.3-25.12l7.34,1.67C705.42,1011.13,697.07,1023.37,692.06,1028.89Z" transform="translate(-263.09 -339.38)" style="fill:#fff"/><path d="M736.2,1023.17l-1.84,6.72a7.39,7.39,0,0,1,6.17-1.68c5.47,1.24,7.64,7.78,5.47,17.31-2,8.55-7.61,14.54-14.09,13.06-7.49-1.71-10-8.73-7.9-17.87l6.59,1.51c-.78,3.39-.08,6.57,2.58,7.18s4.62-2,5.48-5.76.15-7-2.39-7.62-3.74,1.69-4.35,2.45l-5.58-2.79,6.82-24.89,17.83,4.07-2.54,11.1Z" transform="translate(-263.09 -339.38)" style="fill:#fff"/><path d="M774.19,1035.27l-6.67-1.52.11-.46c.73-3.2.21-6.14-2.18-6.68s-4.46,2.28-5.54,7l-.86,3.78a7,7,0,0,1,6.21-2.15c5.09,1.16,8,6.92,6,15.86-2.29,10.05-7.84,14.69-14.51,13.17-7.49-1.71-9.58-9.47-6.11-24.68,4-17.43,9.22-23.51,16.71-21.8C773.45,1019.16,776.45,1025.34,774.19,1035.27Zm-17.61,12.94c-.94,4.11-.19,6.69,2.17,7.23s4.2-1.31,5.14-5.42.18-6.83-2.18-7.37S757.52,1044.1,756.58,1048.21Z" transform="translate(-263.09 -339.38)" style="fill:#fff"/><path d="M784.32,1065.67l-.88,3.85-8.32-1.9a79.57,79.57,0,0,1,15.82-31.83L778.58,1033l2.56-11.23,21.72,5-1.35,5.94C794.41,1041.8,787.34,1052.41,784.32,1065.67Z" transform="translate(-263.09 -339.38)" style="fill:#fff"/><path d="M824.06,1044.65c-1.14,5-3,6.94-5.3,8.75l-.06.26c1.92,3,3,6,1.75,11.32-2,8.55-7.34,12.13-14,10.61s-9.86-7.06-7.91-15.61c1.22-5.35,3.43-7.59,6.45-9.45l.06-.26c-1.29-2.63-2.14-5.16-1-10.18,2-8.55,7.45-12.24,13-11S826,1036.1,824.06,1044.65Zm-13.6-2.55c-.8,3.52.46,5.25,2.33,5.68s3.87-.56,4.68-4.08-.41-5.32-2.43-5.78S811.27,1038.57,810.46,1042.1Zm-4.23,18.54c-.8,3.52.2,5.67,2.23,6.14s4-1,4.78-4.54-.47-5.74-2.34-6.17S807,1057.11,806.23,1060.64Z" transform="translate(-263.09 -339.38)" style="fill:#fff"/><path d="M860.47,1062.3c-4,17.43-9.23,23.51-16.71,21.8-6.11-1.39-9.12-7.57-6.85-17.49l6.67,1.52-.11.45c-.73,3.2-.22,6.13,2.18,6.68s4.46-2.28,5.53-7l.87-3.78a7,7,0,0,1-6.21,2.15c-5.09-1.16-8-6.91-6-15.85,2.29-10.06,7.84-14.7,14.51-13.18C861.85,1039.33,863.94,1047.09,860.47,1062.3ZM847.18,1052c-.94,4.11-.18,6.68,2.17,7.22s4.2-1.31,5.14-5.42.18-6.83-2.18-7.37S848.12,1047.87,847.18,1052Z" transform="translate(-263.09 -339.38)" style="fill:#fff"/><path d="M885.2,1069.11c-3.17,13.9-7.7,22.69-16.23,20.74s-8.85-11.84-5.68-25.74,7.73-22.68,16.28-20.74S888.37,1055.2,885.2,1069.11Zm-13.79-6.58-1.47,6.46c-1.8,7.9-1.59,11.45,1,12s4.28-2.53,6.08-10.43l1.48-6.46c1.8-7.9,1.64-11.37-1-12S873.21,1054.63,871.41,1062.53Z" transform="translate(-263.09 -339.38)" style="fill:#fff"/><path d="M907.28,1087.19,905,1097.25l-19.44-4.44,2.29-10,6.1,1.39,4.64-20.3-6.11-1.39,1.73-7.57c3.57.4,9-1.87,12.66-4.54l2.51.58-8,34.92Z" transform="translate(-263.09 -339.38)" style="fill:#fff"/><path d="M936.83,1070.65c-2.22,9.73-9,13.21-15.8,18.65l11.27,2.57-2.52,11L908.43,1098l.72-3.13a20.75,20.75,0,0,1,6.24-10.8c7.92-7.74,13-10.44,13.91-14.68.57-2.48.16-5-2.13-5.5s-4.23,1.78-5,5.31l-.3,1.3-6.67-1.52c.08-.53.19-1,.29-1.45,2.1-9.2,7.14-14.37,14.52-12.68C936.09,1056.27,938.69,1062.49,936.83,1070.65Z" transform="translate(-263.09 -339.38)" style="fill:#fff"/><path d="M974.36,1077.84c-1,4.5-3.47,8.14-6,9.07l-.05.26c2.49,2.22,3.21,6.64,2,12.12-1.83,7.14-6.41,12.2-13.83,10.51s-9.65-8.31-8-15.43l.31-1.37,6.59,1.51c-.67,2.94-.32,5.56,2.68,6.24s4.47-1.66,5.26-5.11c.73-3.21-.09-5-1.55-5.3l-2.73-.63,1.83-8,2.13.49c1.47.33,3-.9,3.7-4.1.61-2.68,0-5.42-2.12-5.91s-3.93,1.51-4.54,4.18l-6.26-1.43.38-1.62c1.53-6.73,6.5-11.43,13.09-9.93C973.54,1064.81,975.88,1071.18,974.36,1077.84Z" transform="translate(-263.09 -339.38)" style="fill:#fff"/><path d="M979.32,1094.42l7.42,1.7,2.13-9.34c2-2.91,5.58-8.75,7-12.36l3.19.73-5.16,22.59,3.6.82-2.19,9.6-3.6-.82-2.1,9.2-7.11-1.62,2.1-9.21L972,1102.85l2.22-9.73a146.79,146.79,0,0,0,13.3-25.12l7.34,1.68C992.67,1076.66,984.32,1088.9,979.32,1094.42Z" transform="translate(-263.09 -339.38)" style="fill:#fff"/><path d="M1011,1085.85l-1.85,6.72a7.43,7.43,0,0,1,6.17-1.68c5.47,1.25,7.65,7.79,5.47,17.32-1.95,8.55-7.61,14.54-14.09,13.06-7.49-1.71-10-8.73-7.9-17.87l6.59,1.5c-.78,3.4-.08,6.58,2.58,7.18s4.62-2,5.49-5.75.15-7-2.4-7.62-3.74,1.69-4.34,2.44l-5.59-2.79,6.82-24.87,17.83,4.06-2.53,11.1Z" transform="translate(-263.09 -339.38)" style="fill:#fff"/><path d="M1049,1098l-6.66-1.52.1-.46c.73-3.2.22-6.13-2.18-6.68s-4.46,2.28-5.53,7l-.87,3.78a7,7,0,0,1,6.21-2.15c5.09,1.16,8,6.91,6,15.86-2.29,10-7.84,14.69-14.5,13.17-7.5-1.71-9.59-9.47-6.12-24.68,4-17.43,9.23-23.51,16.72-21.8C1048.23,1081.85,1051.24,1088,1049,1098Zm-17.61,12.94c-.93,4.11-.19,6.68,2.18,7.23s4.19-1.31,5.13-5.42.18-6.83-2.18-7.37S1032.3,1106.78,1031.36,1110.9Z" transform="translate(-263.09 -339.38)" style="fill:#fff"/><path d="M599.12,1138.07l-4.21-15-3,13.33-5.09-1.17L593,1107.8l4.84,1.11,4.17,15.17,3.08-13.52,5.1,1.17L604,1139.18Z" transform="translate(-263.09 -339.38)" style="fill:#fff"/><path d="M619,1142.61l.16-4-6-1.38-1.61,3.7-5.67-1.29,12.56-26,6.45,1.47,0,28.9Zm-3.34-11.3,3.74.85.43-10.18-.11,0Z" transform="translate(-263.09 -339.38)" style="fill:#fff"/><path d="M641.79,1147.8l2.26-9.89c.94-4.15,2.38-8.61,2.38-8.61l-.1,0-7.43,17.87-4.34-1,1-19.28-.1,0s-.58,4.61-1.52,8.76l-2.26,9.89-5.09-1.16,6.26-27.45,7.83,1.79-1,16.43.09,0,6.21-15.26,7.54,1.72-6.26,27.46Z" transform="translate(-263.09 -339.38)" style="fill:#fff"/><path d="M656.91,1122.37l14.93,3.41-1.5,6.59-9.38-2.15-.87,3.79,8,1.83-1.44,6.31-8-1.83-.95,4.19,9.56,2.18-1.51,6.58-15.1-3.44Z" transform="translate(-263.09 -339.38)" style="fill:#fff"/><path d="M696.45,1139.79l-.11.48-5.19-1.19,0-.16c.33-1.43,0-2.93-1.59-3.3s-2.48.32-2.7,1.28c-.93,4.11,9.87,3.17,7.67,13.38-1.56,6.82-5.45,8.82-9.79,7.83-4.84-1.1-8.08-3.9-6.3-11.72l5.25,1.2c-.68,3,.28,3.72,2,4.11,1,.23,2.46.43,2.85-1.28.9-4-10-3.12-7.56-13.82,1.45-6.39,5.66-7.94,9.75-7S697.71,1133.91,696.45,1139.79Z" transform="translate(-263.09 -339.38)" style="fill:#fff"/><path d="M703.75,1162.44c-5.42-1.23-7.71-5.91-6-13.49l3.74-16.4,5.55,1.26-3.72,16.28c-.67,3-.15,5.3,1.88,5.76s3.55-1.41,4.22-4.37l3.71-16.27,5.55,1.26-3.74,16.4C713.23,1160.45,709.16,1163.68,703.75,1162.44Z" transform="translate(-263.09 -339.38)" style="fill:#fff"/><path d="M731.82,1156.26l1.22,12.36-6.22-1.41-.78-10.72L724,1156l-2.28,10-5.54-1.27,6.26-27.45,10.56,2.41c3.84.87,4.92,5.28,3.9,9.75C736.16,1152.67,734.36,1155.45,731.82,1156.26Zm-1.65-10.58-3.64-.83-1.15,5.07,3.64.83c.85.19,1.8-.73,2.14-2.2S731,1145.87,730.17,1145.68Z" transform="translate(-263.09 -339.38)" style="fill:#fff"/><path d="M748,1172l-4.22-15-3,13.33-5.09-1.16,6.26-27.46,4.85,1.11,4.16,15.18,3.09-13.53,5.09,1.16-6.26,27.46Z" transform="translate(-263.09 -339.38)" style="fill:#fff"/><path d="M767.9,1176.58l.16-4-6-1.38-1.61,3.71-5.67-1.3,12.56-26,6.45,1.48,0,28.89Zm-3.33-11.3,3.74.85.42-10.18-.1,0Z" transform="translate(-263.09 -339.38)" style="fill:#fff"/><path d="M790.69,1181.78l2.26-9.9c.95-4.15,2.38-8.61,2.38-8.61l-.1,0-7.43,17.87-4.33-1,1-19.29-.1,0s-.58,4.62-1.53,8.77l-2.26,9.89-5.09-1.16,6.26-27.45,7.83,1.79-1,16.43.1,0,6.2-15.26,7.55,1.73L796.19,1183Z" transform="translate(-263.09 -339.38)" style="fill:#fff"/><path d="M805.82,1156.34l14.93,3.41-1.5,6.59-9.39-2.14L809,1168l8,1.83-1.43,6.3-8-1.83-1,4.19,9.56,2.18-1.5,6.58-15.11-3.44Z" transform="translate(-263.09 -339.38)" style="fill:#fff"/><path d="M771.54,1112.6c-1.94,8.5-4.84,13.84-10.57,12.53s-6.05-7.38-4.11-15.88,4.87-13.83,10.59-12.53S773.48,1104.1,771.54,1112.6Zm-9.28-4.22-.9,3.95c-1.1,4.83-.92,7,.84,7.42s2.83-1.51,3.92-6.33l.91-4c1.1-4.83,1-7-.8-7.36S763.36,1103.55,762.26,1108.38Z" transform="translate(-263.09 -339.38)" style="fill:#fff"/><path d="M786.5,1124l-1.4,6.15-13-3,1.4-6.15,4.09.93,2.83-12.4-4.09-.93,1.06-4.63c2.38.29,6-1,8.38-2.63l1.68.39-4.87,21.35Z" transform="translate(-263.09 -339.38)" style="fill:#fff"/><path d="M785.7,1132.28l11.15-30.36,3,.69L788.76,1133Z" transform="translate(-263.09 -339.38)" style="fill:#fff"/><path d="M813,1115.8c-1.36,5.94-5.81,8-10.3,11.25l7.55,1.72-1.54,6.74-14.3-3.26.43-1.92a12,12,0,0,1,4-6.55c5.18-4.65,8.5-6.25,9.1-8.84.34-1.52,0-3-1.5-3.4s-2.8,1-3.29,3.19l-.18.8-4.47-1c0-.32.11-.6.18-.88,1.28-5.63,4.58-8.74,9.52-7.61C812.3,1107,814.11,1110.81,813,1115.8Z" transform="translate(-263.09 -339.38)" style="fill:#fff"/><path d="M829.75,1118.78c-.63,2.76-2.21,5-3.89,5.49l0,.16c1.69,1.4,2.23,4.12,1.46,7.48-1.12,4.36-4.12,7.41-9.08,6.28s-6.55-5.23-5.55-9.58l.19-.84,4.41,1c-.41,1.79-.14,3.41,1.87,3.87s3-1,3.44-3.08c.45-2-.12-3-1.1-3.28l-1.83-.42,1.12-4.9,1.43.32c1,.23,2-.51,2.41-2.47.38-1.63-.06-3.33-1.49-3.65s-2.6.87-3,2.51l-4.19-1,.23-1c.93-4.11,4.19-6.94,8.61-5.93C829,1110.77,830.68,1114.71,829.75,1118.78Z" transform="translate(-263.09 -339.38)" style="fill:#fff"/><g id="_01_3_4" data-name="01 3/4"><g id="leg"><path d="M501.9,1050.67s73.24,251.92,70.34,273.32c-7.2,53,2.91,201.54,9.92,231.51l53.84-2.06c1.77-64.49,8.65-162.34,9.07-188.56.59-37.22-2-266.18-2-266.18S523.2,999,501.9,1050.67Z" transform="translate(-263.09 -339.38)" style="fill:#293856"/><polygon points="440.12 1312.25 318.76 1315.97 318.76 1265.38 374.81 1265.38 441.16 1298.56 440.12 1312.25" style="fill:#293856"/><polygon points="326.6 1265.38 365.07 1265.38 365.07 1236.61 325.13 1239.99 326.6 1265.38" style="fill:#fff"/><polygon points="365.07 1236.61 325.13 1239.99 323.71 1216.26 365.07 1214.36 365.07 1236.61" style="fill:#e2847e"/></g><g id="head"><path d="M545.9,607.16c22.64-5.71,55.22,10.31,60.35,36.78s9.93,72.69-6.84,78.57c-7.43,2.61-35.86,0-35.86,0l6,31.6h-52.1L526,708.85S471.31,626,545.9,607.16Z" transform="translate(-263.09 -339.38)" style="fill:#e2847e"/><path d="M599.26,628.08s-24,4.9-29.06,18-2.33,39.55-14.73,16.32c-6.07-11.35-15.24-8.36-20.06.83-5.92,11.31,7.47,21,6.2,24.78S528.93,708.43,526,708.85s-33-47.5-19.31-79C519.47,600.38,589.27,590.39,599.26,628.08Z" transform="translate(-263.09 -339.38)" style="fill:#293856"/><path d="M599.26,628.08s23.55-22.54,18.46-29.63c-3.13-4.34-17.37,9-20.84,5-2.79-3.29,9.33-12.51,6.68-15.91-13.86-17.81-83.64,12.54-85.5,28.9S599.26,628.08,599.26,628.08Z" transform="translate(-263.09 -339.38)" style="fill:#293856"/></g><g id="_01_Front" data-name="01 Front"><g id="leg-2" data-name="leg"><path d="M440.22,1112.19s12.09,129.28,16.56,248.62c-7.83,99.76-.58,182.07.76,195.49l50.5.09c.43-26.12,6.05-105.41,17.13-190.49,16.26-125,39.87-262.49,39.87-262.49S461,1060.33,440.22,1112.19Z" transform="translate(-263.09 -339.38)" style="fill:#293856"/><polygon points="236.99 1282.26 202.9 1272.96 203.69 1236.91 239.78 1236.91 236.99 1282.26" style="fill:#fff"/><polygon points="203.69 1236.91 239.78 1236.91 241.43 1217.01 203.69 1217.01 203.69 1236.91" style="fill:#e2847e"/><polygon points="244.96 1316.77 185.87 1316.77 185.87 1302.82 201.96 1263.4 238.81 1263.4 244.96 1302.82 244.96 1316.77" style="fill:#293856"/></g><g id="hoodie"><path d="M533.93,742.1c-23.13,1.43-53-6.19-67.95,37.49-11.44,78.78-31,382.74-31,382.74L656.08,1164s-20-291.71-47.72-408.54C599.8,741.57,553.6,740.87,533.93,742.1Z" transform="translate(-263.09 -339.38)" style="fill:#fff"/></g><g id="hand"><polygon points="415.59 809.73 423.35 837.85 442.45 835.07 442.8 808.79 415.59 809.73" style="fill:#e2847e"/><path d="M606.74,773.89S689.36,791.23,705,982.06c10.33,126.43,9.53,175.77,9.53,175.77l-36.22.51S607.49,981.44,601.08,903C598.05,865.86,606.74,773.89,606.74,773.89Z" transform="translate(-263.09 -339.38)" style="fill:#fff"/></g></g><g id="_01_Standing" data-name="01 Standing"><g id="hoodie-2" data-name="hoodie"><path d="M591.72,745.89,430.88,706.47s-32.66,101.88,48.28,106.65S591.72,745.89,591.72,745.89Z" transform="translate(-263.09 -339.38)" style="fill:#fff"/></g></g><path d="M463.81,789.91s-104.19,163.93-94,213.48,94,95.31,94,95.31Z" transform="translate(-263.09 -339.38)" style="fill:#fff"/><path d="M551.18,798.49c-49.28,28.91-97.85,8.41-97.85,8.41S496.21,850.27,551.18,798.49Z" transform="translate(-263.09 -339.38)" style="fill:#d4d1d0;opacity:0.30000000000000004"/><path d="M683.59,1166.94s-5.84,38.43.59,41.73,28,8.35,34.52,4.6c2.78-1.61,1.42-17.55,0-23.17-1.93-7.62-15-27.66-15-27.66Z" transform="translate(-263.09 -339.38)" style="fill:#e2847e"/></g><path d="M1387.29,812.83c-16.77.09-90.44-5.55-90.52-19.59s73.55-20.42,90.31-20.51,30.41,8.82,30.46,19.89S1404.06,812.75,1387.29,812.83Z" transform="translate(-263.09 -339.38)" style="fill:#ebebeb"/><path d="M1609,793.12c0,61.58-51.59,111.51-115.24,111.51s-115.25-49.93-115.25-111.51,51.6-111.5,115.25-111.5S1609,731.54,1609,793.12Z" transform="translate(-263.09 -339.38)" style="fill:#fff"/><path d="M1538.88,785a7.23,7.23,0,0,1-1.83-.46,44.75,44.75,0,0,1-24.81-58.2l17.35-43.14a44.71,44.71,0,0,1,58.19-24.82,7.17,7.17,0,1,1-5.36,13.31,30.37,30.37,0,0,0-39.52,16.86l-17.35,43.15a30.39,30.39,0,0,0,16.86,39.52,7.17,7.17,0,0,1-3.53,13.78Z" transform="translate(-263.09 -339.38)" style="fill:#fff"/><path d="M1564.06,777.23c-3.33,27.69-41,45.93-84.09,40.75s-75.37-31.83-72-59.52,41-45.92,84.09-40.74S1567.39,749.54,1564.06,777.23Z" transform="translate(-263.09 -339.38)" style="fill:#293856"/><path d="M1434.42,760.84a4,4,0,1,1-3.5-4.46A4,4,0,0,1,1434.42,760.84Z" transform="translate(-263.09 -339.38)" style="fill:#5974b8"/><path d="M1459.92,765a4,4,0,1,1-3.5-4.46A4,4,0,0,1,1459.92,765Z" transform="translate(-263.09 -339.38)" style="fill:#5974b8"/><path d="M1453.59,755.23a4,4,0,1,1-3.5-4.46A4,4,0,0,1,1453.59,755.23Z" transform="translate(-263.09 -339.38)" style="fill:#5974b8"/><path d="M1443.59,753.5a4,4,0,1,1-3.5-4.45A4,4,0,0,1,1443.59,753.5Z" transform="translate(-263.09 -339.38)" style="fill:#5974b8"/><path d="M1512,770.16a4,4,0,1,1-3.5-4.45A4,4,0,0,1,1512,770.16Z" transform="translate(-263.09 -339.38)" style="fill:#5974b8"/><path d="M1537.49,774.36a4,4,0,1,1-3.49-4.45A4,4,0,0,1,1537.49,774.36Z" transform="translate(-263.09 -339.38)" style="fill:#5974b8"/><path d="M1531.16,764.55a4,4,0,1,1-3.5-4.46A4,4,0,0,1,1531.16,764.55Z" transform="translate(-263.09 -339.38)" style="fill:#5974b8"/><path d="M1521.16,762.82a4,4,0,1,1-3.5-4.45A4,4,0,0,1,1521.16,762.82Z" transform="translate(-263.09 -339.38)" style="fill:#5974b8"/><path d="M1607.25,846.16c4.23,16.23,17,89,3.43,92.55s-38-66.2-42.23-82.42,1-31.64,11.73-34.44S1603,829.94,1607.25,846.16Z" transform="translate(-263.09 -339.38)" style="fill:#ebebeb"/><path d="M1154.68,739.24a8.79,8.79,0,1,1-8.79-8.79A8.79,8.79,0,0,1,1154.68,739.24Z" transform="translate(-263.09 -339.38)" style="fill:#fff"/><polygon points="884.33 401.38 881.28 398.33 937.98 182.63 1115.07 182.63 1115.07 186.94 939.77 186.94 884.33 401.38" style="fill:#fff"/><rect x="942.6" y="94.74" width="172.47" height="77.61" style="fill:#fff;opacity:0.4"/><rect x="984.28" y="109.47" width="91.26" height="6.47" style="fill:#fff"/><rect x="984.28" y="122.38" width="91.26" height="6.47" style="fill:#fff"/><rect x="984.28" y="135.29" width="91.26" height="6.47" style="fill:#fff"/><rect x="984.28" y="148.2" width="91.26" height="6.47" style="fill:#fff"/><rect x="1162.66" y="1035.51" width="172.47" height="77.61" style="fill:#fff;opacity:0.4"/><path d="M1233.16,1363.56a8.79,8.79,0,1,1-8.79-8.79A8.78,8.78,0,0,1,1233.16,1363.56Z" transform="translate(-263.09 -339.38)" style="fill:#fff"/><rect x="965.08" y="1022.02" width="370.77" height="4.31" style="fill:#fff"/><rect x="1248.54" y="1058.17" width="67.55" height="6.47" style="fill:#fff"/><rect x="1248.54" y="1071.08" width="67.55" height="6.47" style="fill:#fff"/><rect x="1248.54" y="1083.99" width="67.55" height="6.47" style="fill:#fff"/><path d="M1469.94,1390.46a26.23,26.23,0,1,0,26.23,26.23h-26.23Z" transform="translate(-263.09 -339.38)" style="fill:#fff;opacity:0.8"/><path d="M1499.37,1413.69a26.24,26.24,0,0,0-26.23-26.23v26.23Z" transform="translate(-263.09 -339.38)" style="fill:#fff"/><rect x="1163.38" y="717.61" width="172.46" height="77.61" style="fill:#fff;opacity:0.4"/><path d="M1215.58,1149.85a8.79,8.79,0,1,0,8.79-8.79A8.79,8.79,0,0,0,1215.58,1149.85Z" transform="translate(-263.09 -339.38)" style="fill:#fff"/><polygon points="962.81 811.99 1157.64 709.17 1335.69 709.17 1335.69 704.86 1155.85 704.86 959.76 808.95 962.81 811.99" style="fill:#fff"/><polygon points="1306.85 745.34 1303.66 751.82 1296.51 752.85 1301.68 757.89 1300.46 765.01 1306.85 761.65 1313.24 765.01 1312.02 757.89 1317.19 752.85 1310.05 751.82 1306.85 745.34" style="fill:#fff"/><polygon points="1278.51 745.34 1275.32 751.82 1268.18 752.85 1273.34 757.89 1272.13 765.01 1278.51 761.65 1284.9 765.01 1283.68 757.89 1288.85 752.85 1281.71 751.82 1278.51 745.34" style="fill:#fff"/><polygon points="1250.17 745.34 1246.98 751.82 1239.83 752.85 1245 757.89 1243.79 765.01 1250.17 761.65 1256.56 765.01 1255.35 757.89 1260.52 752.85 1253.37 751.82 1250.17 745.34" style="fill:#fff"/><polygon points="1221.84 745.34 1218.64 751.82 1211.5 752.85 1216.67 757.89 1215.44 765.01 1221.84 761.65 1228.22 765.01 1227.01 757.89 1232.17 752.85 1225.03 751.82 1221.84 745.34" style="fill:#fff"/><polygon points="1193.5 745.34 1190.3 751.82 1183.16 752.85 1188.33 757.89 1187.11 765.01 1193.5 761.65 1199.89 765.01 1198.67 757.89 1203.84 752.85 1196.69 751.82 1193.5 745.34" style="fill:#fff"/></svg>