<svg id="Layer_1" data-name="Layer 1" xmlns="http://www.w3.org/2000/svg" viewBox="0 0 635.71 963.37"><path d="M918.39,1006.36c12.75,76-620.8,76-608,0C297.64,930.38,931.19,930.38,918.39,1006.36Z" transform="translate(-282.88 -99.98)" style="fill:#333;opacity:0.1"/><path d="M403.61,564.8c60.89,54.06,31.17,137-39.39,62.08-14.47-22-102.2-85.81-76.74-130.82C329.84,474.06,384.17,550.43,403.61,564.8Z" transform="translate(-282.88 -99.98)" style="fill:#e6eded"/><path d="M594.83,988.6c0,35.6-169.21,35.6-169.21,0C423.8,905.05,596.67,905.07,594.83,988.6Z" transform="translate(-282.88 -99.98)" style="fill:#fff"/><path d="M805.83,988.6c0,35.6-169.21,35.6-169.21,0C634.8,905.05,807.67,905.07,805.83,988.6Z" transform="translate(-282.88 -99.98)" style="fill:#fff"/><path d="M531.29,886.61l-45.74,40.31c25.74,15.14,64.34,25.17,92.22,22.77C591.89,886.66,587.67,900.3,531.29,886.61Z" transform="translate(-282.88 -99.98)" style="fill:#e6eded"/><path d="M701.13,886.61l45.44,40.47c-25.9,15.24-65.07,25.13-93.07,22.88C641.15,885.58,643.66,901,701.13,886.61Z" transform="translate(-282.88 -99.98)" style="fill:#e6eded"/><path d="M664.61,105.61c-37.06,50.05-60.73,130.85-64.08,166.67,0,0,17.62.59,19.33,0C639.59,169.28,762.65,75.77,664.61,105.61Z" transform="translate(-282.88 -99.98)" style="fill:#fff"/><path d="M827,434.86c4.5-277.4-431.28-275.36-428,0C404.38,671,343.61,920.6,613.9,942,883.47,921.35,821,670,827,434.86Z" transform="translate(-282.88 -99.98)" style="fill:#fff"/><path d="M760.22,396.23c4.44,105.76-327,105.76-322.51,0C433.28,290.46,764.68,290.46,760.22,396.23Z" transform="translate(-282.88 -99.98)" style="fill:#3f3f3f"/><path d="M810.66,651.48c-47-66.52.88-140.5,52.51-51.48,9.07,24.74,80,106.85,44.9,144.88C861.82,756.65,826.32,669.9,810.66,651.48Z" transform="translate(-282.88 -99.98)" style="fill:#e6eded"/><path d="M500,366.16c-1.35-7.88-14.92-4.52-12,3.68C489.35,377.72,502.92,374.36,500,366.16Z" transform="translate(-282.88 -99.98)" style="fill:#00fff8"/><path d="M500,380.16c-1.35-7.88-14.92-4.52-12,3.68C489.35,391.72,502.92,388.36,500,380.16Z" transform="translate(-282.88 -99.98)" style="fill:#00fff8"/><path d="M500,394.16c-1.35-7.88-14.92-4.52-12,3.68C489.35,405.72,502.92,402.36,500,394.16Z" transform="translate(-282.88 -99.98)" style="fill:#00fff8"/><path d="M500,408.16c-1.35-7.88-14.92-4.52-12,3.68C489.35,419.72,502.92,416.36,500,408.16Z" transform="translate(-282.88 -99.98)" style="fill:#00fff8"/><path d="M500,422.16c-1.35-7.88-14.92-4.52-12,3.68C489.35,433.72,502.92,430.36,500,422.16Z" transform="translate(-282.88 -99.98)" style="fill:#00fff8"/><path d="M514,394.16c-1.35-7.88-14.92-4.52-12,3.68C503.35,405.72,516.92,402.36,514,394.16Z" transform="translate(-282.88 -99.98)" style="fill:#00fff8"/><path d="M528,366.16c-1.35-7.88-14.92-4.52-12,3.68C517.35,377.72,530.92,374.36,528,366.16Z" transform="translate(-282.88 -99.98)" style="fill:#00fff8"/><path d="M528,380.16c-1.35-7.88-14.92-4.52-12,3.68C517.35,391.72,530.92,388.36,528,380.16Z" transform="translate(-282.88 -99.98)" style="fill:#00fff8"/><path d="M528,394.16c-1.35-7.88-14.92-4.52-12,3.68C517.35,405.72,530.92,402.36,528,394.16Z" transform="translate(-282.88 -99.98)" style="fill:#00fff8"/><path d="M528,408.16c-1.35-7.88-14.92-4.52-12,3.68C517.35,419.72,530.92,416.36,528,408.16Z" transform="translate(-282.88 -99.98)" style="fill:#00fff8"/><path d="M528,422.16c-1.35-7.88-14.92-4.52-12,3.68C517.35,433.72,530.92,430.36,528,422.16Z" transform="translate(-282.88 -99.98)" style="fill:#00fff8"/><path d="M546,366.16c-1.35-7.88-14.92-4.52-12,3.68C535.35,377.72,548.92,374.36,546,366.16Z" transform="translate(-282.88 -99.98)" style="fill:#00fff8"/><path d="M546,380.16c-1.35-7.88-14.92-4.52-12,3.68C535.35,391.72,548.92,388.36,546,380.16Z" transform="translate(-282.88 -99.98)" style="fill:#00fff8"/><path d="M546,394.16c-1.35-7.88-14.92-4.52-12,3.68C535.35,405.72,548.92,402.36,546,394.16Z" transform="translate(-282.88 -99.98)" style="fill:#00fff8"/><path d="M546,408.16c-1.35-7.88-14.92-4.52-12,3.68C535.35,419.72,548.92,416.36,546,408.16Z" transform="translate(-282.88 -99.98)" style="fill:#00fff8"/><path d="M546,422.16c-1.35-7.88-14.92-4.52-12,3.68C535.35,433.72,548.92,430.36,546,422.16Z" transform="translate(-282.88 -99.98)" style="fill:#00fff8"/><path d="M560,366.16c-1.35-7.88-14.92-4.52-12,3.68C549.35,377.72,562.92,374.36,560,366.16Z" transform="translate(-282.88 -99.98)" style="fill:#00fff8"/><path d="M560,394.16c-1.35-7.88-14.92-4.52-12,3.68C549.35,405.72,562.92,402.36,560,394.16Z" transform="translate(-282.88 -99.98)" style="fill:#00fff8"/><path d="M560,422.16c-1.35-7.88-14.92-4.52-12,3.68C549.35,433.72,562.92,430.36,560,422.16Z" transform="translate(-282.88 -99.98)" style="fill:#00fff8"/><path d="M574,366.16c-1.35-7.88-14.92-4.52-12,3.68C563.35,377.72,576.92,374.36,574,366.16Z" transform="translate(-282.88 -99.98)" style="fill:#00fff8"/><path d="M574,394.16c-1.35-7.88-14.92-4.52-12,3.68C563.35,405.72,576.92,402.36,574,394.16Z" transform="translate(-282.88 -99.98)" style="fill:#00fff8"/><path d="M574,422.16c-1.35-7.88-14.92-4.52-12,3.68C563.35,433.72,576.92,430.36,574,422.16Z" transform="translate(-282.88 -99.98)" style="fill:#00fff8"/><path d="M592,366.16c-1.35-7.88-14.92-4.52-12,3.68C581.35,377.72,594.92,374.36,592,366.16Z" transform="translate(-282.88 -99.98)" style="fill:#00fff8"/><path d="M592,380.16c-1.35-7.88-14.92-4.52-12,3.68C581.35,391.72,594.92,388.36,592,380.16Z" transform="translate(-282.88 -99.98)" style="fill:#00fff8"/><path d="M592,394.16c-1.35-7.88-14.92-4.52-12,3.68C581.35,405.72,594.92,402.36,592,394.16Z" transform="translate(-282.88 -99.98)" style="fill:#00fff8"/><path d="M592,408.16c-1.35-7.88-14.92-4.52-12,3.68C581.35,419.72,594.92,416.36,592,408.16Z" transform="translate(-282.88 -99.98)" style="fill:#00fff8"/><path d="M592,422.16c-1.35-7.88-14.92-4.52-12,3.68C581.35,433.72,594.92,430.36,592,422.16Z" transform="translate(-282.88 -99.98)" style="fill:#00fff8"/><path d="M606,422.16c-1.35-7.88-14.92-4.52-12,3.68C595.35,433.72,608.92,430.36,606,422.16Z" transform="translate(-282.88 -99.98)" style="fill:#00fff8"/><path d="M620,422.16c-1.35-7.88-14.92-4.52-12,3.68C609.35,433.72,622.92,430.36,620,422.16Z" transform="translate(-282.88 -99.98)" style="fill:#00fff8"/><path d="M638,366.16c-1.35-7.88-14.92-4.52-12,3.68C627.35,377.72,640.92,374.36,638,366.16Z" transform="translate(-282.88 -99.98)" style="fill:#00fff8"/><path d="M638,380.16c-1.35-7.88-14.92-4.52-12,3.68C627.35,391.72,640.92,388.36,638,380.16Z" transform="translate(-282.88 -99.98)" style="fill:#00fff8"/><path d="M638,394.16c-1.35-7.88-14.92-4.52-12,3.68C627.35,405.72,640.92,402.36,638,394.16Z" transform="translate(-282.88 -99.98)" style="fill:#00fff8"/><path d="M638,408.16c-1.35-7.88-14.92-4.52-12,3.68C627.35,419.72,640.92,416.36,638,408.16Z" transform="translate(-282.88 -99.98)" style="fill:#00fff8"/><path d="M638,422.16c-1.35-7.88-14.92-4.52-12,3.68C627.35,433.72,640.92,430.36,638,422.16Z" transform="translate(-282.88 -99.98)" style="fill:#00fff8"/><path d="M652,422.16c-1.35-7.88-14.92-4.52-12,3.68C641.35,433.72,654.92,430.36,652,422.16Z" transform="translate(-282.88 -99.98)" style="fill:#00fff8"/><path d="M666,422.16c-1.35-7.88-14.92-4.52-12,3.68C655.35,433.72,668.92,430.36,666,422.16Z" transform="translate(-282.88 -99.98)" style="fill:#00fff8"/><path d="M684,366.16c-1.35-7.88-14.92-4.52-12,3.68C673.35,377.72,686.92,374.36,684,366.16Z" transform="translate(-282.88 -99.98)" style="fill:#00fff8"/><path d="M684,380.16c-1.35-7.88-14.92-4.52-12,3.68C673.35,391.72,686.92,388.36,684,380.16Z" transform="translate(-282.88 -99.98)" style="fill:#00fff8"/><path d="M684,394.16c-1.35-7.88-14.92-4.52-12,3.68C673.35,405.72,686.92,402.36,684,394.16Z" transform="translate(-282.88 -99.98)" style="fill:#00fff8"/><path d="M684,408.16c-1.35-7.88-14.92-4.52-12,3.68C673.35,419.72,686.92,416.36,684,408.16Z" transform="translate(-282.88 -99.98)" style="fill:#00fff8"/><path d="M684,422.16c-1.35-7.88-14.92-4.52-12,3.68C673.35,433.72,686.92,430.36,684,422.16Z" transform="translate(-282.88 -99.98)" style="fill:#00fff8"/><path d="M698,366.16c-1.35-7.88-14.92-4.52-12,3.68C687.35,377.72,700.92,374.36,698,366.16Z" transform="translate(-282.88 -99.98)" style="fill:#00fff8"/><path d="M698,422.16c-1.35-7.88-14.92-4.52-12,3.68C687.35,433.72,700.92,430.36,698,422.16Z" transform="translate(-282.88 -99.98)" style="fill:#00fff8"/><path d="M712,366.16c-1.35-7.88-14.92-4.52-12,3.68C701.35,377.72,714.92,374.36,712,366.16Z" transform="translate(-282.88 -99.98)" style="fill:#00fff8"/><path d="M712,380.16c-1.35-7.88-14.92-4.52-12,3.68C701.35,391.72,714.92,388.36,712,380.16Z" transform="translate(-282.88 -99.98)" style="fill:#00fff8"/><path d="M712,394.16c-1.35-7.88-14.92-4.52-12,3.68C701.35,405.72,714.92,402.36,712,394.16Z" transform="translate(-282.88 -99.98)" style="fill:#00fff8"/><path d="M712,408.16c-1.35-7.88-14.92-4.52-12,3.68C701.35,419.72,714.92,416.36,712,408.16Z" transform="translate(-282.88 -99.98)" style="fill:#00fff8"/><path d="M712,422.16c-1.35-7.88-14.92-4.52-12,3.68C701.35,433.72,714.92,430.36,712,422.16Z" transform="translate(-282.88 -99.98)" style="fill:#00fff8"/></svg>