<svg id="Layer_1" data-name="Layer 1" xmlns="http://www.w3.org/2000/svg" viewBox="0 0 831.17 870.22"><path d="M765.67,1018.46c0,24.72-136.85,44.76-305.67,44.76s-305.67-20-305.67-44.76S291.18,973.71,460,973.71,765.67,993.75,765.67,1018.46Z" transform="translate(-154.33 -193)" style="fill:#4f8e8e;opacity:0.5"/><path d="M654.5,241.17v385h331v-385Z" transform="translate(-154.33 -193)" style="fill:#4f8e8e;opacity:0.5"/><rect x="481.67" y="46" width="331" height="349" style="fill:#2d2d2d"/><g style="opacity:0.5"><rect x="516.67" y="47" width="2" height="348" style="fill:#6eb5ce"/><rect x="553.67" y="47" width="2" height="348" style="fill:#6eb5ce"/><rect x="590.67" y="47" width="2" height="348" style="fill:#6eb5ce"/><rect x="627.67" y="47" width="2" height="348" style="fill:#6eb5ce"/><rect x="664.67" y="47" width="2" height="348" style="fill:#6eb5ce"/><rect x="701.67" y="47" width="2" height="348" style="fill:#6eb5ce"/><rect x="738.67" y="47" width="2" height="348" style="fill:#6eb5ce"/><rect x="775.67" y="47" width="2" height="348" style="fill:#6eb5ce"/><rect x="481.67" y="72" width="331" height="2" style="fill:#6eb5ce"/><rect x="481.67" y="109" width="331" height="2" style="fill:#6eb5ce"/><rect x="481.67" y="146" width="331" height="2" style="fill:#6eb5ce"/><rect x="481.67" y="183" width="331" height="2" style="fill:#6eb5ce"/><rect x="481.67" y="220" width="331" height="2" style="fill:#6eb5ce"/><rect x="481.67" y="257" width="331" height="2" style="fill:#6eb5ce"/><rect x="481.67" y="294" width="331" height="2" style="fill:#6eb5ce"/><rect x="481.67" y="331" width="331" height="2" style="fill:#6eb5ce"/><rect x="481.67" y="368" width="331" height="2" style="fill:#6eb5ce"/></g><rect x="481.67" y="29" width="331" height="18" style="fill:#24546c"/><rect x="481.67" y="395" width="331" height="19" style="fill:#24546c"/><path d="M821.61,219.64a19.8,19.8,0,0,0-39.57,0H760.81V248H844V219.64Zm-19.61-11a10.91,10.91,0,0,1,10.92,10.91H791.08A10.91,10.91,0,0,1,802,208.68Z" transform="translate(-154.33 -193)" style="fill:#eaf8f9"/><rect x="642.08" width="11.6" height="21.82" style="fill:#2d2d2d"/><path d="M836.42,282.32a4.17,4.17,0,0,1,5.17-1.65c1,.44,2,2.48,1.5,4.67-.68,1-2.56,3.14-4.25,5.07a194.75,194.75,0,0,0-24.13,33.21C821,307.4,828.54,293,836.42,282.32Z" transform="translate(-154.33 -193)" style="fill:none"/><path d="M720.57,385.35a112.47,112.47,0,0,1,79.08-33.67l5.94-.08,0-.09,7.09.69A113.27,113.27,0,0,1,914.91,465V588h-227V465A112.73,112.73,0,0,1,720.57,385.35Z" transform="translate(-154.33 -193)" style="fill:none"/><path d="M922.91,588h8V465A129.33,129.33,0,0,0,825.25,337.81c8.91-17.65,19.16-29.42,25.66-36.89,4.05-4.65,6.28-7.22,7.25-10.13,3.28-9.9-1.14-20.77-10.06-24.74a19.94,19.94,0,0,0-8.15-1.74,20.33,20.33,0,0,0-16.39,8.49c-15.47,20.9-25.36,48.12-30,63.09A129.25,129.25,0,0,0,671.91,465V588h16V465A113.24,113.24,0,0,1,799.65,351.68l5.94-.08,0-.09,7.09.69A113.27,113.27,0,0,1,914.91,465V588ZM814.71,323.62c6.29-16.22,13.83-30.65,21.71-41.3a4.17,4.17,0,0,1,5.17-1.65c1,.44,2,2.48,1.5,4.67-.68,1-2.56,3.14-4.25,5.07A194.75,194.75,0,0,0,814.71,323.62Z" transform="translate(-154.33 -193)" style="fill:#61d7f7"/><path d="M679.91,465A121.26,121.26,0,0,1,799.54,343.68c6.18-21.51,16.7-47.54,30.45-66.12a12.08,12.08,0,0,1,14.85-4.2c5.13,2.28,7.7,9,5.72,14.91-1.58,4.78-22.69,21.8-37.08,56A121.3,121.3,0,0,1,922.91,465V588h-243Z" transform="translate(-154.33 -193)" style="fill:#47768a"/><path d="M566.08,731c-16.48-8.89-35.91-4.83-44.79,11.65s-1.6,35,14.87,43.83c11.21,6,65.69,26.89,89,31.09,6.1,1.1,19.17,1.41,23.76-7.12s-2.79-19.32-7.11-23.77C625.35,769.77,577.21,737,566.08,731Z" transform="translate(-154.33 -193)" style="fill:#e6eded"/><path d="M418.28,1018.48c0,25,118.62,25,118.62,0s-26.55-45.19-59.31-45.19S418.28,993.53,418.28,1018.48Z" transform="translate(-154.33 -193)" style="fill:#fff"/><path d="M270.38,1018.48c0,25,118.61,25,118.61,0s-26.55-45.19-59.3-45.19S270.38,993.53,270.38,1018.48Z" transform="translate(-154.33 -193)" style="fill:#fff"/><path d="M462.83,947l32.06,28.26a132.54,132.54,0,0,1-24.12,10.5c-14.34,4.54-28.38,6.25-40.52,5.46l-6.09-35.45Z" transform="translate(-154.33 -193)" style="fill:#e6eded"/><path d="M343.78,947l-31.85,28.37a130.21,130.21,0,0,0,23.91,10.39c14.33,4.54,29.19,6.44,41.32,5.65l5.29-35.64Z" transform="translate(-154.33 -193)" style="fill:#e6eded"/><path d="M369.38,399.54c26,35.08,42.56,91.72,44.91,116.83,0,0-12.34.41-13.55,0-14.59-65.68-54.26-96.29-56.69-103.62s.73-15.55,7-18.36S364.78,393.33,369.38,399.54Z" transform="translate(-154.33 -193)" style="fill:#fff"/><path d="M255,630.33C255,547.85,321.75,480,404.23,480h.7C487.41,480,556,547.85,556,630.33V836.48C556,919,487.41,984,404.93,984h-.7C321.75,984,255,919,255,836.48Z" transform="translate(-154.33 -193)" style="fill:#fff"/><path d="M302.35,603.25c0,31.68,50.61,57.36,113,57.36s113-25.68,113-57.36-50.61-57.36-113-57.36S302.35,571.57,302.35,603.25Z" transform="translate(-154.33 -193)" style="fill:#3f3f3f"/><path d="M345,582a3.8,3.8,0,0,1,4-4h3.86a3.88,3.88,0,0,1,4.12,4v3.85a4,4,0,0,1-4.12,4.16H349a4,4,0,0,1-4-4.16Z" transform="translate(-154.33 -193)" style="fill:#00fff8"/><path d="M358,582a3.8,3.8,0,0,1,4-4h3.86a3.88,3.88,0,0,1,4.12,4v3.85a4,4,0,0,1-4.12,4.16H362a4,4,0,0,1-4-4.16Z" transform="translate(-154.33 -193)" style="fill:#00fff8"/><path d="M332,595a3.8,3.8,0,0,1,4-4h3.86a3.88,3.88,0,0,1,4.12,4v3.85a4,4,0,0,1-4.12,4.16H336a4,4,0,0,1-4-4.16Z" transform="translate(-154.33 -193)" style="fill:#00fff8"/><path d="M345,595a3.8,3.8,0,0,1,4-4h3.86a3.88,3.88,0,0,1,4.12,4v3.85a4,4,0,0,1-4.12,4.16H349a4,4,0,0,1-4-4.16Z" transform="translate(-154.33 -193)" style="fill:#00fff8"/><path d="M358,595a3.8,3.8,0,0,1,4-4h3.86a3.88,3.88,0,0,1,4.12,4v3.85a4,4,0,0,1-4.12,4.16H362a4,4,0,0,1-4-4.16Z" transform="translate(-154.33 -193)" style="fill:#00fff8"/><path d="M371,595a3.8,3.8,0,0,1,4-4h3.86a3.88,3.88,0,0,1,4.12,4v3.85a4,4,0,0,1-4.12,4.16H375a4,4,0,0,1-4-4.16Z" transform="translate(-154.33 -193)" style="fill:#00fff8"/><path d="M332,608a3.8,3.8,0,0,1,4-4h3.86a3.88,3.88,0,0,1,4.12,4v3.85a4,4,0,0,1-4.12,4.16H336a4,4,0,0,1-4-4.16Z" transform="translate(-154.33 -193)" style="fill:#00fff8"/><path d="M345,608a3.8,3.8,0,0,1,4-4h3.86a3.88,3.88,0,0,1,4.12,4v3.85a4,4,0,0,1-4.12,4.16H349a4,4,0,0,1-4-4.16Z" transform="translate(-154.33 -193)" style="fill:#00fff8"/><path d="M358,608a3.8,3.8,0,0,1,4-4h3.86a3.88,3.88,0,0,1,4.12,4v3.85a4,4,0,0,1-4.12,4.16H362a4,4,0,0,1-4-4.16Z" transform="translate(-154.33 -193)" style="fill:#00fff8"/><path d="M371,608a3.8,3.8,0,0,1,4-4h3.86a3.88,3.88,0,0,1,4.12,4v3.85a4,4,0,0,1-4.12,4.16H375a4,4,0,0,1-4-4.16Z" transform="translate(-154.33 -193)" style="fill:#00fff8"/><path d="M345,621a3.8,3.8,0,0,1,4-4h3.86a3.88,3.88,0,0,1,4.12,4v3.85a4,4,0,0,1-4.12,4.16H349a4,4,0,0,1-4-4.16Z" transform="translate(-154.33 -193)" style="fill:#00fff8"/><path d="M358,621a3.8,3.8,0,0,1,4-4h3.86a3.88,3.88,0,0,1,4.12,4v3.85a4,4,0,0,1-4.12,4.16H362a4,4,0,0,1-4-4.16Z" transform="translate(-154.33 -193)" style="fill:#00fff8"/><path d="M462,582a3.8,3.8,0,0,1,4-4h3.86a3.88,3.88,0,0,1,4.12,4v3.85a4,4,0,0,1-4.12,4.16H466a4,4,0,0,1-4-4.16Z" transform="translate(-154.33 -193)" style="fill:#00fff8"/><path d="M475,582a3.8,3.8,0,0,1,4-4h3.86a3.88,3.88,0,0,1,4.12,4v3.85a4,4,0,0,1-4.12,4.16H479a4,4,0,0,1-4-4.16Z" transform="translate(-154.33 -193)" style="fill:#00fff8"/><path d="M449,595a3.8,3.8,0,0,1,4-4h3.86a3.88,3.88,0,0,1,4.12,4v3.85a4,4,0,0,1-4.12,4.16H453a4,4,0,0,1-4-4.16Z" transform="translate(-154.33 -193)" style="fill:#00fff8"/><path d="M462,595a3.8,3.8,0,0,1,4-4h3.86a3.88,3.88,0,0,1,4.12,4v3.85a4,4,0,0,1-4.12,4.16H466a4,4,0,0,1-4-4.16Z" transform="translate(-154.33 -193)" style="fill:#00fff8"/><path d="M475,595a3.8,3.8,0,0,1,4-4h3.86a3.88,3.88,0,0,1,4.12,4v3.85a4,4,0,0,1-4.12,4.16H479a4,4,0,0,1-4-4.16Z" transform="translate(-154.33 -193)" style="fill:#00fff8"/><path d="M488,595a3.8,3.8,0,0,1,4-4h3.86a3.88,3.88,0,0,1,4.12,4v3.85a4,4,0,0,1-4.12,4.16H492a4,4,0,0,1-4-4.16Z" transform="translate(-154.33 -193)" style="fill:#00fff8"/><path d="M449,608a3.8,3.8,0,0,1,4-4h3.86a3.88,3.88,0,0,1,4.12,4v3.85a4,4,0,0,1-4.12,4.16H453a4,4,0,0,1-4-4.16Z" transform="translate(-154.33 -193)" style="fill:#00fff8"/><path d="M462,608a3.8,3.8,0,0,1,4-4h3.86a3.88,3.88,0,0,1,4.12,4v3.85a4,4,0,0,1-4.12,4.16H466a4,4,0,0,1-4-4.16Z" transform="translate(-154.33 -193)" style="fill:#00fff8"/><path d="M475,608a3.8,3.8,0,0,1,4-4h3.86a3.88,3.88,0,0,1,4.12,4v3.85a4,4,0,0,1-4.12,4.16H479a4,4,0,0,1-4-4.16Z" transform="translate(-154.33 -193)" style="fill:#00fff8"/><path d="M488,608a3.8,3.8,0,0,1,4-4h3.86a3.88,3.88,0,0,1,4.12,4v3.85a4,4,0,0,1-4.12,4.16H492a4,4,0,0,1-4-4.16Z" transform="translate(-154.33 -193)" style="fill:#00fff8"/><path d="M462,621a3.8,3.8,0,0,1,4-4h3.86a3.88,3.88,0,0,1,4.12,4v3.85a4,4,0,0,1-4.12,4.16H466a4,4,0,0,1-4-4.16Z" transform="translate(-154.33 -193)" style="fill:#00fff8"/><path d="M475,621a3.8,3.8,0,0,1,4-4h3.86a3.88,3.88,0,0,1,4.12,4v3.85a4,4,0,0,1-4.12,4.16H479a4,4,0,0,1-4-4.16Z" transform="translate(-154.33 -193)" style="fill:#00fff8"/><path d="M244.2,560.32v21.81s7.7,3.21,8.34,7.06,1.92,47.46,13.47,59,44.9,30.15,84.68,16,46.82-46.83,48.1-56.45,4.42-18.6,13.44-19.25H419c9,.65,12.15,9.63,13.44,19.25s8.33,42.34,48.1,56.45,73.13-4.49,84.68-16,12.83-55.16,13.47-59,8.34-7.06,8.34-7.06V560.32s-38.49-5.77-54.53-7.05-53.24-.65-74.41,5.13A227.48,227.48,0,0,1,419,565.45a27.74,27.74,0,0,1-6.73,0,227.48,227.48,0,0,1-39.09-7.05c-21.18-5.78-58.38-6.42-74.41-5.13S244.2,560.32,244.2,560.32Zm204.07,20c3.85-5.77,27.62-19.25,54.71-18.77s42.79,3.49,50.65,10.59c14.92,13.47,7.71,60.14,0,69.76S506,669.85,468,645.32,444.42,586.14,448.27,580.37Zm-170.71-8.18c8-6.94,23.57-10.1,50.65-10.59s50.86,13,54.71,18.77,18.28,40.41-19.72,65-77.95,6.25-85.64-3.37S262.57,585.18,277.56,572.19Z" transform="translate(-154.33 -193)" style="fill:#405194"/><path d="M569.78,571.39a5,5,0,1,0,5-5A5,5,0,0,0,569.78,571.39Z" transform="translate(-154.33 -193)" style="fill:#3f3f3f"/><path d="M250.35,571.39a5,5,0,1,0,5-5A5,5,0,0,0,250.35,571.39Z" transform="translate(-154.33 -193)" style="fill:#3f3f3f"/><path d="M258.6,798.61c13.67-12.8,9-95-4.7-82.21-9.29,8.7-70.81,93.08-82.2,113.82-3,5.43-8.44,20.72-1.82,27.79s20.21,2.5,25.8-.19C216.94,847.63,249.38,807.25,258.6,798.61Z" transform="translate(-154.33 -193)" style="fill:#e6eded"/><polygon points="723.28 314.96 728.8 320.11 437.03 640.19 423.06 627.14 723.28 314.96" style="fill:#3f3f3f"/><path d="M808.19,478.37a29.82,29.82,0,0,1-7.88,1.13,21.93,21.93,0,0,1-6.1-.83,24.68,24.68,0,0,1-10.84-6.55c-3.56,1.45-11,4.09-18.11,4.09a24.68,24.68,0,0,1-4.32-.36c-7-1.27-15.15-5.77-17.92-7.39a70.89,70.89,0,0,1-9.54.71c-5.51,0-9.4-.85-11.92-2.6-5.22-3.64-5-10.2-4.49-13.36-2.85-3-9.28-11.26-6.64-21,2.08-7.65,8.21-11.9,12-13.88a15.86,15.86,0,0,1,1.07-14.86,20.47,20.47,0,0,1,13.86-9.66c-.17-3.57,1.05-9.08,7.92-14.82a16,16,0,0,1,10.62-3.63,24.51,24.51,0,0,1,6.07.81c1.52-3.63,5-9.35,12-11.31a25.94,25.94,0,0,1,6.85-.95,23.23,23.23,0,0,1,12.54,3.65c2.29-2.51,6.65-5.7,14.13-5.85a23,23,0,0,1,17.58,7.38,23.77,23.77,0,0,1,14.16-4.89,23.05,23.05,0,0,1,6.22.87c9.18,2.57,13.21,11.24,14.73,15.87a22,22,0,0,1,3-.21,16.16,16.16,0,0,1,12.23,5,19.52,19.52,0,0,1,5,15.57c5.55,1.6,13.12,6.43,15.31,17.39,2.16,10.79-3.89,19.49-7,23.12,1.93,3.69,4.61,11.57-.81,21-5.22,9.09-12.31,11.55-16,12.22-1.72,6.17-8.32,22.52-30.22,23.54-.67,0-1.33,0-2,0C820,498.6,811.12,484.52,808.19,478.37ZM859,387.3l-3.21,1-.66-3.3c0-.12-2.41-11.69-11.26-14.17a17,17,0,0,0-4.6-.65A18.38,18.38,0,0,0,827,375.41l-2.65,2.89-2.1-3.32a17.24,17.24,0,0,0-14.15-7.28h-.39c-8.23.17-10.8,5.18-10.89,5.36L795,376.9l-3-3a16.67,16.67,0,0,0-11.07-4,19.71,19.71,0,0,0-5.25.73c-6.91,1.91-8.8,9.88-8.82,9.95l-.78,3.55-3.34-1.44a19,19,0,0,0-6.77-1.34,10.21,10.21,0,0,0-6.77,2.23c-7.66,6.41-5.56,11.46-5.49,11.61l2.31,4.68-5.23-.35h-.28c-1.72,0-7.68.52-11.86,7.15-3.52,5.57.28,11.16.43,11.38l2.36,3.31-3.86,1.28c-.09,0-9.15,3.12-11.33,11.14-2.3,8.5,6,16.13,6.1,16.2l1.39,1.24-.5,1.8c0,.06-1.62,6.25,1.78,8.62.82.58,3,1.53,8.49,1.53a65.72,65.72,0,0,0,9.65-.8l1.12-.19,1,.6c.09.06,9.46,5.85,16.78,7.16a18.37,18.37,0,0,0,3.26.27c8.23,0,17.57-4.38,17.66-4.43l2.3-1.09,1.46,2.1a18.32,18.32,0,0,0,9.2,6.12,16,16,0,0,0,4.43.59,24.27,24.27,0,0,0,8.37-1.61l3-1.31,1,3.16c.06.18,6.23,18.86,27,18.86l1.7,0c21.86-1,25-19.95,25.09-20.74l.44-2.57h2.59c.32,0,7.81-.11,13.18-9.45s.11-16.24-.1-16.52L881,441.13l2-1.88c.09-.09,9-8.69,6.92-19.39-2.42-12.12-12.72-13.15-13.14-13.19l-3.74-.29,1.1-3.59c.09-.3,2.16-7.38-3-13a10.2,10.2,0,0,0-7.83-3.08A15.2,15.2,0,0,0,859,387.3Z" transform="translate(-154.33 -193)" style="fill:#fff"/><path d="M867.11,469.78s-3,20.88-26.31,22S810.89,472,810.89,472s-7.13,3.07-14,1.09a30.25,30.25,0,0,1-11.64-6.77s-13.87,4.92-21.5,4.27-18.16-7.14-18.16-7.14-15.21,1.93-20.33-1.23-1.64-11.13-1.64-11.13-9.27-8.27-6.59-18.12c2.49-9.2,14-11.14,14-11.14A14.51,14.51,0,0,1,730,405.14c5.28-8.92,14.68-5.21,14.68-5.21s-4.85-8,4.37-15.68c6.39-5.35,16-1.49,16-1.49s-.11-9.95,11.47-13a17.13,17.13,0,0,1,17.69,5.46A18.88,18.88,0,0,1,809,367.25c10.94-.22,16,9.34,16,9.34s7.55-8.27,18.8-5.12c10.19,2.85,12.64,15.53,12.64,15.53s8.76-2.81,14.28,3.14c6.13,6.62,3.47,15,3.47,15s12.2.91,15,14.7c2.35,11.81-7.36,20.88-7.36,20.88s6.39,8.16.31,18.74S867.11,469.78,867.11,469.78Z" transform="translate(-154.33 -193)" style="fill:#61d7f7;stroke:#fff;stroke-miterlimit:10"/><path d="M838,418.23l-1.44.07.43-1.37a19.31,19.31,0,0,0,.44-7.66c-.83-5.63-4.08-9.92-9.69-12.75a10.16,10.16,0,0,0-4.64-1c-6.68,0-13.91,5-14,5l-.73.51-.59-.67c-.06-.06-5.55-6.21-12.52-6.88-7.8-.77-12.86,10-12.91,10.12l-.33.69-.75-.13S774.76,401,770.75,403c-5.6,2.74-7.56,9.81-7.57,9.88l-1.26,6-.71-6c0-.1-1.08-10,7.47-13.22a17.1,17.1,0,0,1,6-1.07,19.14,19.14,0,0,1,5.14.71c1.11-2.8,5-10.62,14.78-11.25,7.45-.48,12.13,4.45,13.8,6.59a22.7,22.7,0,0,1,14.24-4.93,25.29,25.29,0,0,1,6.55.88c12.93,3.41,13,18.29,12.76,22.84a20.9,20.9,0,0,1,2.52-.15c4,0,8.79,1.6,13.15,6.08,10.59,10.88-4.41,21.6-4.41,21.6s10.5-10.37-.24-19.55c-3.79-3.23-11.47-3.12-13.92-3.12C838.41,418.2,838,418.23,838,418.23Z" transform="translate(-154.33 -193)" style="fill:#fff"/><path d="M762,424.89a5.94,5.94,0,0,1,2.31-.22,15.17,15.17,0,0,1,9.26,3.44c1-5.2,4.57-12.23,13.24-12.84,8.32-.58,13.86,5.51,16.08,10.38,3.3-3.19,8.76-6.45,14.87-6.45a17.89,17.89,0,0,1,6.6,1.28c9.48,3.74,10.59,17.61,10.7,21.9a22.74,22.74,0,0,1,3.7-.31c4.62,0,8.18,1.54,10.39,4.38,8.39,10.8-7.11,20.05-7.11,20.05s11.25-11.5,3-17.05a19.9,19.9,0,0,0-10.19-3.2,19.19,19.19,0,0,0-2.43.14l-1,.15-.1-1c0-.16-1.61-15.83-10-19.73a12.16,12.16,0,0,0-5.15-1.13c-6,0-11.33,4.22-13,5.65a2.74,2.74,0,0,1-1,.84l-.93.45-.42-.95c0-.1-4.91-10.85-13.49-10.47-9,.42-11.08,12.38-11.1,12.5l-.24,1.43-1.25-.73a2.45,2.45,0,0,1-.54-.45c-1-.88-5.79-4.73-10-4.73a9.37,9.37,0,0,0-1.73.24c-5.83,1.09-1.28,13.83-1.28,13.83S751,429.51,762,424.89Z" transform="translate(-154.33 -193)" style="fill:#fff"/></svg>