<svg id="Layer_1" data-name="Layer 1" xmlns="http://www.w3.org/2000/svg" viewBox="0 0 229.45 183.37"><path d="M209.55,181c1.88,7.76,8.24,12.82,14.47,17.22,1.57,1.11,9.14,6.19,14.38,9a2.84,2.84,0,0,1-.12-.67,6.38,6.38,0,0,1,1-3.5,1.93,1.93,0,0,1,3.25,2.08,3.22,3.22,0,0,1,4.48,2.44c1.14,4.64-3.87,5.19-6.94,4.17-7.76-2.57-15.61-8.07-22-13-5.78-4.54-10.61-9.67-12.37-17C205.14,179.27,209,178.58,209.55,181Z" transform="translate(-53.09 -58.14)"/><path d="M90.7,181c-1.87,7.76-8.23,12.82-14.46,17.22-1.57,1.11-9.15,6.19-14.38,9a2.84,2.84,0,0,0,.11-.67,6.22,6.22,0,0,0-1-3.5,2,2,0,0,0-2.71-.46,1.94,1.94,0,0,0-.53,2.54,3.21,3.21,0,0,0-4.48,2.44c-1.14,4.64,3.86,5.19,6.93,4.17,7.76-2.57,15.62-8.07,22-13,5.78-4.54,10.61-9.67,12.38-17C95.12,179.27,91.29,178.58,90.7,181Z" transform="translate(-53.09 -58.14)"/><path d="M223.58,160.76c-13-27.88-52.59-28.59-75.49-13.06-13.43-18.13-45.66-12.4-61,1.51-23.29,21.19-13.75,56,9.06,73.3,24.82,18.83,64.4,25.66,92.48,10.75a73.32,73.32,0,0,0,30.43-30.59C225.46,190.4,229.73,173.92,223.58,160.76Z" transform="translate(-53.09 -58.14)" style="fill:#e9292f"/><path d="M179.42,186.24c-6.29,0-6.3,9.78,0,9.78S185.73,186.24,179.42,186.24Z" transform="translate(-53.09 -58.14)" style="fill:#bb2326"/><path d="M120.84,186.24c-6.3,0-6.31,9.78,0,9.78S127.14,186.24,120.84,186.24Z" transform="translate(-53.09 -58.14)" style="fill:#bb2326"/><path d="M157.46,195.32c-.14-1.23-2.09-1.24-2,0,.44,3.83-2.43,5.78-5.38,6-2.95-.21-5.83-2.16-5.39-6,.14-1.24-1.8-1.23-1.94,0-.57,5,3.17,7.55,7.06,7.84v0l.27,0,.26,0v0C154.29,202.87,158,200.28,157.46,195.32Z" transform="translate(-53.09 -58.14)"/><path d="M128,177.43c-8.19,0-8.2,12.72,0,12.72S136.2,177.43,128,177.43Z" transform="translate(-53.09 -58.14)"/><path d="M129.33,179.71a2.49,2.49,0,0,0-2.45,2.45v.32a2.45,2.45,0,1,0,4.89,0v-.32A2.48,2.48,0,0,0,129.33,179.71Z" transform="translate(-53.09 -58.14)" style="fill:#fff"/><path d="M172.25,177.43c-8.19,0-8.2,12.72,0,12.72S180.45,177.43,172.25,177.43Z" transform="translate(-53.09 -58.14)"/><path d="M173.57,179.71a2.49,2.49,0,0,0-2.45,2.45v.32a2.45,2.45,0,1,0,4.89,0v-.32A2.48,2.48,0,0,0,173.57,179.71Z" transform="translate(-53.09 -58.14)" style="fill:#fff"/><path d="M209.6,181.14c1.88,7.75,8.23,12.81,14.47,17.21,1.57,1.11,9.14,6.19,14.38,9a2.84,2.84,0,0,1-.12-.67,6.22,6.22,0,0,1,1-3.5,1.93,1.93,0,0,1,3.24,2.08,3.22,3.22,0,0,1,4.49,2.44c1.14,4.64-3.87,5.19-6.94,4.17-7.76-2.58-15.62-8.07-22-13.05-5.78-4.53-10.61-9.67-12.38-17C205.18,179.4,209,178.71,209.6,181.14Z" transform="translate(-53.09 -58.14)"/><path d="M90.75,181.14c-1.88,7.75-8.23,12.81-14.47,17.21-1.57,1.11-9.14,6.19-14.38,9a2.84,2.84,0,0,0,.12-.67,6.3,6.3,0,0,0-1-3.5,1.93,1.93,0,0,0-3.24,2.08,3.22,3.22,0,0,0-4.49,2.44c-1.14,4.64,3.87,5.19,6.94,4.17,7.76-2.58,15.62-8.07,22-13.05,5.78-4.53,10.61-9.67,12.38-17C95.17,179.4,91.34,178.71,90.75,181.14Z" transform="translate(-53.09 -58.14)"/><path d="M223.62,160.9c-13-27.89-52.58-28.59-75.48-13.07-13.43-18.13-45.66-12.4-61,1.52-23.29,21.18-13.75,56,9,73.3,24.82,18.83,64.4,25.65,92.49,10.74a73.24,73.24,0,0,0,30.42-30.59C225.51,190.53,229.77,174.05,223.62,160.9Z" transform="translate(-53.09 -58.14)" style="fill:#e9292f"/><path d="M179.47,186.37c-6.3,0-6.31,9.78,0,9.78S185.77,186.37,179.47,186.37Z" transform="translate(-53.09 -58.14)" style="fill:#bb2326"/><path d="M120.88,186.37c-6.29,0-6.3,9.78,0,9.78S127.19,186.37,120.88,186.37Z" transform="translate(-53.09 -58.14)" style="fill:#bb2326"/><path d="M157.5,195.46c-.14-1.23-2.08-1.25-1.94,0,.44,3.82-2.44,5.77-5.39,6-2.94-.21-5.82-2.16-5.38-6,.14-1.25-1.8-1.23-1.95,0-.57,5,3.17,7.54,7.07,7.83v0h.53v0C154.34,203,158.08,200.42,157.5,195.46Z" transform="translate(-53.09 -58.14)"/><path d="M128.05,177.56c-8.18,0-8.19,12.72,0,12.72S136.25,177.56,128.05,177.56Z" transform="translate(-53.09 -58.14)"/><path d="M129.37,179.85a2.48,2.48,0,0,0-2.44,2.44v.33a2.45,2.45,0,0,0,4.89,0v-.33A2.47,2.47,0,0,0,129.37,179.85Z" transform="translate(-53.09 -58.14)" style="fill:#fff"/><path d="M172.29,177.56c-8.18,0-8.19,12.72,0,12.72S180.49,177.56,172.29,177.56Z" transform="translate(-53.09 -58.14)"/><path d="M173.62,179.85a2.48,2.48,0,0,0-2.45,2.44v.33a2.45,2.45,0,0,0,4.89,0v-.33A2.46,2.46,0,0,0,173.62,179.85Z" transform="translate(-53.09 -58.14)" style="fill:#fff"/><path d="M218.7,163.92q-10,7.28-20.59,13.64a26,26,0,0,0-7.93-11.21,2.25,2.25,0,0,0-.38-.51c-8.31-7.43-25.71-5-32,4.13a18.53,18.53,0,0,0-3.2,12.46,13.87,13.87,0,0,0-10.17.41A18.55,18.55,0,0,0,141.28,170c-6.29-9.09-23.7-11.56-32-4.13a2.25,2.25,0,0,0-.38.51,26,26,0,0,0-7.77,10.79q-10.25-6.19-19.92-13.22c-2.2-1.59-4.61,1.86-2.42,3.45q10.32,7.5,21.26,14a17.75,17.75,0,0,0,1.13,9.38c5,12,21.33,15.26,31.83,9.24a23.51,23.51,0,0,0,10.1-11.88,2,2,0,0,0,1.06-.4,9.56,9.56,0,0,1,11.74.19A23.53,23.53,0,0,0,166.07,200c10.5,6,26.88,2.77,31.83-9.24a17.73,17.73,0,0,0,1.2-8.91q11.34-6.75,22-14.5C223.31,165.78,220.9,162.33,218.7,163.92Zm-90.5,33.66c-8.44,3.27-21.11-.19-23.66-10-2.24-8.6,3.73-17,11.06-20.68,7.68-3,19.48.08,23.11,6.86C143.73,183.14,137.29,194.07,128.2,197.58Zm66.34-10c-2.55,9.8-15.22,13.26-23.67,10-9.09-3.51-15.53-14.44-10.51-23.81,3.63-6.78,15.43-9.87,23.11-6.86C190.8,170.6,196.77,179,194.54,187.59Z" transform="translate(-53.09 -58.14)" style="fill:#7fbc41"/><path d="M150.1,160.12c-25.54.47-47.42-7.63-57.71-14.85-7.89-5.56-10-12.93,3.62-12.06,3.79.25,7.39,1.55,13,2.93h82c5.67-1.38,9.29-2.68,13.13-2.93,13.59-.87,11.5,6.5,3.61,12.06-10.28,7.22-32.16,15.32-57.7,14.85Z" transform="translate(-53.09 -58.14)" style="fill:#30302f;fill-rule:evenodd"/><path d="M190.34,61.38a.77.77,0,0,0,.07-.29c0-2.78-18.12-3-40.35-3s-40.15.17-40.15,3a.77.77,0,0,0,.07.29c6.64,25.22,7.26,50.23-1.07,74.91,18.17,9.82,62.63,9.82,82.51,0C183.12,111.61,183.7,86.6,190.34,61.38Z" transform="translate(-53.09 -58.14)" style="fill:#131414"/><path d="M108.91,136.29A118.27,118.27,0,0,0,113.49,118a164.23,164.23,0,0,0,73.35-.09,116.82,116.82,0,0,0,4.58,18.41c-19.88,9.82-64.34,9.82-82.51,0Z" transform="translate(-53.09 -58.14)" style="fill:#662d91;fill-rule:evenodd"/><path d="M264.12,139.1c1.05-4.49-1.24-6.68-3-.81s-26,88.89-26,88.89l5.47,1.46S263.07,143.58,264.12,139.1Z" transform="translate(-53.09 -58.14)" style="fill:#352736"/><path d="M255.67,156.76c2.83-9.66,4.94-16.89,5.43-18.47,1.78-5.87,4.07-3.68,3,.81-.29,1.23-2.21,8.61-4.84,18.63Z" transform="translate(-53.09 -58.14)" style="fill:#d4a334"/><path d="M249.53,150.24s-5.28-6.54-5-9.71,4.23-10.06,4.23-10.06-5.38,5.13-9.7,5S229,131.22,229,131.22s5.77,5.57,5,9.71S229.77,151,229.77,151s5.91-5.26,9.71-5S249.53,150.24,249.53,150.24Z" transform="translate(-53.09 -58.14)" style="fill:#faaf40"/><path d="M262.23,113.64s1.87-3.87,3.39-4.43,5.58-.23,5.58-.23-3.54-1.36-4.42-3.39-.24-5.58-.24-5.58-1.3,3.89-3.39,4.42a20.73,20.73,0,0,1-5.58.23s3.72,1.59,4.43,3.41S262.23,113.64,262.23,113.64Z" transform="translate(-53.09 -58.14)" style="fill:#faaf40"/><path d="M269.31,167.05s1.87-3.88,3.4-4.43,5.58-.23,5.58-.23-3.56-1.37-4.42-3.4-.23-5.57-.23-5.57-1.32,3.88-3.41,4.42a21.18,21.18,0,0,1-5.58.23s3.73,1.59,4.43,3.4S269.31,167.05,269.31,167.05Z" transform="translate(-53.09 -58.14)" style="fill:#faaf40"/><path d="M238.61,171.83s-.48-2.4,0-3.19a11.88,11.88,0,0,1,2.46-2s-2.09.6-3.18,0a7.14,7.14,0,0,1-2-2.46s.74,2.22,0,3.18a12.13,12.13,0,0,1-2.46,2s2.23-.56,3.19,0A8.83,8.83,0,0,1,238.61,171.83Z" transform="translate(-53.09 -58.14)" style="fill:#faaf40"/><path d="M282.54,125.21s-2.1-1.26-2.35-2.16a11.32,11.32,0,0,1,.16-3.17s-1,1.94-2.16,2.34a7.07,7.07,0,0,1-3.18-.15s2.14,1,2.34,2.15a12.3,12.3,0,0,1-.14,3.18s1.08-2,2.15-2.34A8.88,8.88,0,0,1,282.54,125.21Z" transform="translate(-53.09 -58.14)" style="fill:#faaf40"/><path d="M241.64,115.13s-2.1-1.25-2.34-2.15a11.51,11.51,0,0,1,.15-3.18s-1,2-2.15,2.35a7.07,7.07,0,0,1-3.18-.15s2.13.94,2.34,2.15a12.65,12.65,0,0,1-.15,3.18s1.09-2,2.15-2.34A9,9,0,0,1,241.64,115.13Z" transform="translate(-53.09 -58.14)" style="fill:#faaf40"/></svg>