<svg id="Layer_1" data-name="Layer 1" xmlns="http://www.w3.org/2000/svg" viewBox="0 0 657 186"><path d="M68.13,114.58V62.08h15v45h30v7.5Z" transform="translate(-1 -1)"/><path d="M128.13,114.58v-7.5h-7.5V84.58h7.5v-7.5h37.5v7.5h7.5v22.5h-7.5v7.5Zm7.5-7.5h22.5V84.58h-22.5Z" transform="translate(-1 -1)"/><path d="M188.13,114.58v-7.5h-7.5V84.58h7.5v-7.5h37.5v7.5h7.5v22.5h-7.5v7.5Zm7.5-7.5h22.5V84.58h-22.5Z" transform="translate(-1 -1)"/><path d="M240.63,122.08v-45h45v7.5h7.5v15h-7.5v7.5h-30v15Zm15-22.5h22.5v-15h-22.5Z" transform="translate(-1 -1)"/><path d="M308.13,114.58v-7.5h-7.5v-45h15v15h30v7.5h7.5v22.5h-7.5v7.5Zm7.5-7.5h22.5V84.58h-22.5Z" transform="translate(-1 -1)"/><path d="M383.13,84.58h7.5v7.5h-7.5v22.5h-15V77.08h15Zm30-7.5v7.5h-22.5v-7.5Z" transform="translate(-1 -1)"/><path d="M428.13,114.58v-7.5h-7.5V84.58h7.5v-7.5h37.5v7.5h7.5v15h-37.5v7.5h30v7.5Zm7.5-22.5h22.5v-7.5h-22.5Z" transform="translate(-1 -1)"/><path d="M488.13,114.58v-7.5h-7.5v-7.5h7.5v-7.5h30v-7.5h-30v-7.5h37.5v7.5h7.5v30Zm7.5-7.5h22.5v-7.5h-22.5Z" transform="translate(-1 -1)"/><path d="M540.63,114.58V62.08h15v30h15v-7.5h7.5v-7.5h15v7.5h-7.5v7.5h-7.5v7.5h7.5v7.5h7.5v7.5h-15v-7.5h-7.5v-7.5h-15v15Z" transform="translate(-1 -1)"/><path d="M623.13,84.58h7.5v7.5h-7.5v22.5h-15V77.08h15Zm30-7.5v7.5h-22.5v-7.5Z" transform="translate(-1 -1)"/><rect x="60" y="121" width="597" height="20" style="fill:#e9c46a"/><path d="M571,187H28A27,27,0,0,1,1,160V28A27,27,0,0,1,28,1H571a27,27,0,0,1,27,27V45H568V31H31V157H568V143h30v17A27,27,0,0,1,571,187Z" transform="translate(-1 -1)" style="fill:#56cfe1"/></svg>