<svg id="Layer_1" data-name="Layer 1" xmlns="http://www.w3.org/2000/svg" viewBox="0 0 191.54 183.37"><rect x="36.18" width="29.67" height="183.05" style="fill:#4160e0"/><rect x="65.85" y="42.83" width="29.67" height="140.22" style="fill:#b043dd"/><rect x="6.51" y="21.46" width="29.67" height="161.6" style="fill:#43dddd"/><rect x="95.53" y="53.09" width="29.67" height="129.96" style="fill:#d845b9"/><rect x="125.2" y="31.72" width="29.67" height="151.34" style="fill:#d68847"/><rect x="154.87" y="9.49" width="29.67" height="173.57" style="fill:#d3c248"/><line x1="0.34" y1="27.87" x2="52.49" y2="15.9" style="fill:#ed1c24;stroke:#ed1c24;stroke-miterlimit:10;stroke-width:3px"/><line x1="50.78" y1="15.04" x2="110.83" y2="74.89" style="fill:none;stroke:#ed1c24;stroke-miterlimit:10;stroke-width:3px"/><line x1="109.9" y1="75.75" x2="190.57" y2="7.35" style="fill:none;stroke:#ed1c24;stroke-miterlimit:10;stroke-width:3px"/><path d="M165.25,129.23c1.61,6.63,7,11,12.37,14.72,1.34,1,7.82,5.29,12.3,7.68a2.13,2.13,0,0,1-.1-.57,5.35,5.35,0,0,1,.84-3,1.65,1.65,0,0,1,2.78,1.77,2.75,2.75,0,0,1,3.83,2.09c1,4-3.31,4.44-5.93,3.57-6.64-2.21-13.35-6.9-18.78-11.16-4.94-3.88-9.07-8.26-10.58-14.51C161.48,127.75,164.75,127.16,165.25,129.23Z" transform="translate(-19.34)"/><path d="M63.64,129.23c-1.61,6.63-7,11-12.37,14.72-1.35,1-7.82,5.29-12.3,7.68a2.61,2.61,0,0,0,.1-.57,5.28,5.28,0,0,0-.85-3,1.64,1.64,0,0,0-2.77,1.77,2.75,2.75,0,0,0-3.83,2.09c-1,4,3.3,4.44,5.93,3.57,6.63-2.21,13.35-6.9,18.78-11.16,4.94-3.88,9.07-8.26,10.58-14.51C67.41,127.75,64.14,127.16,63.64,129.23Z" transform="translate(-19.34)"/><path d="M177.24,114.45c-11.14-23.84-45-24.45-64.54-11.17-11.48-15.51-39-10.61-52.12,1.29-19.91,18.12-11.75,47.88,7.74,62.67,21.23,16.1,55.07,21.94,79.08,9.19a62.66,62.66,0,0,0,26-26.16C178.85,139.78,182.5,125.69,177.24,114.45Z" transform="translate(-19.34)" style="fill:#e9292f"/><path d="M138,86a124.61,124.61,0,0,0-17.09,3,80.77,80.77,0,0,1,1.46-16.54c1.23-6.24,2.68-13.74,8.68-17.1,3.62-2,.37-7.6-3.26-5.57-12.55,7-13.82,27.06-13.32,40.86a50.16,50.16,0,0,0-23.55-5c-3.78.11-4.2,5.08-.86,6.34l15.81,5.93c-5.22,2.59-10,5.74-13.78,10.46-2.19,2.76.49,6.89,3.91,5.06q9.77-5.22,19-11.23l4.83,12.93c1,2.67,5.59,3.43,6.22,0a48.47,48.47,0,0,0,.8-9.68,34.5,34.5,0,0,0,8.26,5.27c2.43,1.11,5.58-.72,4.74-3.64C138.56,102.39,135,99,131,96.14a34.88,34.88,0,0,0,8.63-4.09C142.06,90.46,141.41,85.69,138,86Z" transform="translate(-19.34)" style="fill:#7fbc41"/><path d="M138.89,135.69c-5.38,0-5.39,8.37,0,8.37S144.28,135.69,138.89,135.69Z" transform="translate(-19.34)" style="fill:#bb2326"/><path d="M90,135.69c-5.38,0-5.39,8.37,0,8.37S95.39,135.69,90,135.69Z" transform="translate(-19.34)" style="fill:#bb2326"/><path d="M123.64,147.12c-.58-1.41-3.62-1.37-8.67-1.3-5.38.07-9.22.12-9.76,1.73-.72,2.16,4.31,7.46,9.76,7.16C120.13,154.43,124.48,149.17,123.64,147.12Z" transform="translate(-19.34)" style="fill:#1d1d1b"/><path d="M115,154.71a10.08,10.08,0,0,0,5.4-2.11,12.33,12.33,0,0,0-11.88,0A10.4,10.4,0,0,0,115,154.71Z" transform="translate(-19.34)" style="fill:#bb2326"/><path d="M102.59,130.55a7.65,7.65,0,0,0-10.78-.41c-1.17,1.14.43,3.12,1.61,2a5.08,5.08,0,0,1,7.19,0C101.73,133.35,103.71,131.75,102.59,130.55Z" transform="translate(-19.34)"/><path d="M137.15,130.55a7.64,7.64,0,0,0-10.77-.41c-1.18,1.14.43,3.12,1.6,2a5.09,5.09,0,0,1,7.2,0C136.29,133.35,138.27,131.75,137.15,130.55Z" transform="translate(-19.34)"/><path d="M172.84,117q-8.55,6.23-17.6,11.66a22.36,22.36,0,0,0-6.78-9.58,2.2,2.2,0,0,0-.33-.44c-7.1-6.35-22-4.24-27.37,3.53A15.88,15.88,0,0,0,118,132.85a11.9,11.9,0,0,0-8.7.36,15.87,15.87,0,0,0-2.68-11c-5.38-7.77-20.26-9.88-27.37-3.53a1.82,1.82,0,0,0-.32.44,22.16,22.16,0,0,0-6.65,9.23c-5.84-3.54-11.52-7.29-17-11.31-1.88-1.36-3.94,1.59-2.07,3q8.82,6.4,18.17,12a15.3,15.3,0,0,0,1,8c4.24,10.27,18.24,13.05,27.22,7.89a20.06,20.06,0,0,0,8.63-10.15,1.73,1.73,0,0,0,.91-.35,8.2,8.2,0,0,1,10,.17,20.08,20.08,0,0,0,8.69,10.33c9,5.16,23,2.38,27.22-7.89a15.09,15.09,0,0,0,1-7.62q9.71-5.77,18.83-12.4C176.78,118.62,174.72,115.67,172.84,117ZM95.46,145.81c-7.21,2.79-18-.17-20.23-8.54-1.91-7.35,3.19-14.53,9.46-17.68,6.57-2.58,16.65.06,19.76,5.86C108.74,133.46,103.23,142.81,95.46,145.81Zm56.72-8.54c-2.18,8.37-13,11.33-20.23,8.54-7.77-3-13.28-12.35-9-20.36,3.11-5.8,13.19-8.44,19.76-5.86C149,122.74,154.09,129.92,152.18,137.27Z" transform="translate(-19.34)" style="fill:#7fbc41"/></svg>