<svg id="Layer_1" data-name="Layer 1" xmlns="http://www.w3.org/2000/svg" viewBox="0 0 1172 1436.86"><ellipse cx="586" cy="1405.09" rx="586" ry="31.77" style="fill:#2a3756;opacity:0.1"/><path d="M1334.87,921.13c-14.49,10.83-82,53.18-91.06,41s50.68-64.87,65.16-75.7,32-11.84,39.18-2.27S1349.35,910.3,1334.87,921.13Z" transform="translate(-481 -312.14)" style="fill:#ebeced"/><ellipse cx="946.27" cy="552.34" rx="124.3" ry="120.27" style="fill:#fff"/><path d="M1475.92,855.74a7.77,7.77,0,0,1-2-.51,48.25,48.25,0,0,1-26.77-62.76l18.71-46.54a48.26,48.26,0,0,1,62.76-26.77,7.74,7.74,0,1,1-5.77,14.36,32.79,32.79,0,0,0-42.63,18.18l-18.71,46.54a32.76,32.76,0,0,0,18.18,42.63,7.74,7.74,0,0,1-3.81,14.87Z" transform="translate(-481 -312.14)" style="fill:#fff"/><path d="M1503.08,847.34c-3.59,29.86-44.19,49.54-90.69,43.95s-81.29-34.33-77.7-64.19,44.19-49.54,90.69-44S1506.67,817.48,1503.08,847.34Z" transform="translate(-481 -312.14)" style="fill:#2a3756"/><path d="M1363.25,829.66a4.32,4.32,0,1,1-3.77-4.8A4.31,4.31,0,0,1,1363.25,829.66Z" transform="translate(-481 -312.14)" style="fill:#527bef"/><path d="M1390.76,834.19a4.32,4.32,0,1,1-3.77-4.8A4.31,4.31,0,0,1,1390.76,834.19Z" transform="translate(-481 -312.14)" style="fill:#527bef"/><path d="M1383.93,823.61a4.32,4.32,0,1,1-3.77-4.8A4.31,4.31,0,0,1,1383.93,823.61Z" transform="translate(-481 -312.14)" style="fill:#527bef"/><path d="M1373.15,821.75a4.32,4.32,0,1,1-3.77-4.81A4.33,4.33,0,0,1,1373.15,821.75Z" transform="translate(-481 -312.14)" style="fill:#527bef"/><path d="M1446.92,839.72a4.32,4.32,0,1,1-3.77-4.81A4.32,4.32,0,0,1,1446.92,839.72Z" transform="translate(-481 -312.14)" style="fill:#527bef"/><path d="M1474.43,844.25a4.32,4.32,0,1,1-3.77-4.81A4.31,4.31,0,0,1,1474.43,844.25Z" transform="translate(-481 -312.14)" style="fill:#527bef"/><path d="M1467.6,833.66a4.32,4.32,0,1,1-3.77-4.8A4.33,4.33,0,0,1,1467.6,833.66Z" transform="translate(-481 -312.14)" style="fill:#527bef"/><path d="M1456.81,831.8A4.32,4.32,0,1,1,1453,827,4.31,4.31,0,0,1,1456.81,831.8Z" transform="translate(-481 -312.14)" style="fill:#527bef"/><path d="M1551.1,920c5.54,17.21,23.72,94.81,9.31,99.45s-44.94-69-50.48-86.19-.82-34.14,10.54-37.8S1545.55,902.79,1551.1,920Z" transform="translate(-481 -312.14)" style="fill:#ebeced"/><polygon points="206.34 252.49 203.51 248.44 326.69 153.33 329.53 157.38 206.34 252.49" style="fill:#fff"/><polygon points="566.43 245.3 565.78 166.28 470.61 64.38 411.84 96.8 409.45 92.46 471.59 58.19 570.71 164.31 571.38 245.26 566.43 245.3" style="fill:#fff"/><rect x="1052.64" y="418.57" width="44.59" height="4.95" transform="translate(-501.52 473.24) rotate(-39.79)" style="fill:#fff"/><polygon points="841.25 257.5 742.65 201.72 610.57 174.29 611.57 169.45 744.42 197.03 843.69 253.2 841.25 257.5" style="fill:#fff"/><polygon points="904.85 444.15 770.4 350.73 836.8 313.33 839.23 317.64 779.7 351.17 907.67 440.09 904.85 444.15" style="fill:#fff"/><rect x="1106.23" y="578.86" width="99.06" height="4.95" transform="translate(-608.6 432.65) rotate(-33.96)" style="fill:#fff"/><polygon points="755.64 154.03 750.92 152.53 772.6 84.07 705.22 69.96 706.23 65.11 778.97 80.35 755.64 154.03" style="fill:#fff"/><path d="M1001.89,373.42a49.79,49.79,0,1,1-49.79-49.79A49.79,49.79,0,0,1,1001.89,373.42Z" transform="translate(-481 -312.14)" style="fill:#fff"/><path d="M1109.52,472.26a60.35,60.35,0,1,1-60.34-60.35A60.34,60.34,0,0,1,1109.52,472.26Z" transform="translate(-481 -312.14)" style="fill:#fff"/><g id="_3" data-name="3"><rect x="527" y="164.86" width="16" height="26" style="fill:#ef5c00"/><rect x="543" y="147.86" width="17" height="43" style="fill:#edd600"/><rect x="560" y="138.86" width="17" height="52" style="fill:#4e5eaf"/><rect x="577" y="164.86" width="16" height="26" style="fill:#ef5c00"/><rect x="593" y="122.86" width="15" height="68" style="fill:#4e5eaf"/></g><path d="M1290.24,665.13a46.7,46.7,0,1,1-46.7-46.7A46.69,46.69,0,0,1,1290.24,665.13Z" transform="translate(-481 -312.14)" style="fill:#fff"/><path d="M888.19,434.78a39.54,39.54,0,1,1-39.54-39.54A39.53,39.53,0,0,1,888.19,434.78Z" transform="translate(-481 -312.14)" style="fill:#fff"/><path d="M848.65,488.57a53.8,53.8,0,1,1,53.79-53.79A53.85,53.85,0,0,1,848.65,488.57Zm0-102.64a48.85,48.85,0,1,0,48.85,48.85A48.91,48.91,0,0,0,848.65,385.93Z" transform="translate(-481 -312.14)" style="fill:#fff"/><g id="_2" data-name="2"><path d="M848.68,434.84l8.75-23.74A25.3,25.3,0,1,0,874,434.84a26.83,26.83,0,0,0-.35-4.23Z" transform="translate(-481 -312.14)" style="fill:#ef5c00"/><path d="M878.87,426.28a25.32,25.32,0,0,0-16.18-19.51l-8.75,23.74Z" transform="translate(-481 -312.14)" style="fill:#4e5eaf"/></g><path d="M1418.59,601.24A47.56,47.56,0,1,1,1371,553.68,47.56,47.56,0,0,1,1418.59,601.24Z" transform="translate(-481 -312.14)" style="fill:#fff"/><path d="M1371,662a60.8,60.8,0,1,1,60.8-60.8A60.87,60.87,0,0,1,1371,662Zm0-116.66a55.86,55.86,0,1,0,55.85,55.86A55.92,55.92,0,0,0,1371,545.38Z" transform="translate(-481 -312.14)" style="fill:#fff"/><path d="M1367.28,579.84a17.89,17.89,0,0,1,5,24.8h0a17.89,17.89,0,0,1-24.79,5h0a17.89,17.89,0,0,1-5-24.8h0a17.9,17.9,0,0,1,24.8-5Z" transform="translate(-481 -312.14)" style="fill:#4e5eaf;opacity:0.30000000000000004"/><path d="M1373.89,605.47a19.72,19.72,0,1,1-5.53-27.34A19.74,19.74,0,0,1,1373.89,605.47Zm-29.8-19.76a16,16,0,1,0,22.23-4.5A16.05,16.05,0,0,0,1344.09,585.71Z" transform="translate(-481 -312.14)" style="fill:#2a3756"/><path d="M1375.57,600.38l26.84,17.8a5.06,5.06,0,0,1,1.38,7.05l0,.09a5.08,5.08,0,0,1-7,1.47L1369.86,609Z" transform="translate(-481 -312.14)" style="fill:#2a3756"/><path d="M1101.84,622.18a51.94,51.94,0,1,1-51.93-51.94A51.94,51.94,0,0,1,1101.84,622.18Z" transform="translate(-481 -312.14)" style="fill:#fff"/><path d="M1049.91,689.42a67.24,67.24,0,1,1,67.23-67.24A67.32,67.32,0,0,1,1049.91,689.42Zm0-129.53a62.29,62.29,0,1,0,62.29,62.29A62.36,62.36,0,0,0,1049.91,559.89Z" transform="translate(-481 -312.14)" style="fill:#fff"/><path d="M1085.38,598a29.11,29.11,0,0,0-2.47,11h-1.85a31.15,31.15,0,0,1,2.08-10.46l-3.29,0,0-1.86,6.11,0Z" transform="translate(-481 -312.14)" style="fill:#fff"/><path d="M1281.93,513.31A59.92,59.92,0,1,1,1222,453.38,59.92,59.92,0,0,1,1281.93,513.31Z" transform="translate(-481 -312.14)" style="fill:#fff"/><path d="M1181,525.29c0,7.17,5.5,13.71,12.66,13.71h25.41l36.47,13.77L1243.37,539h6.37c7.17,0,12.26-6.54,12.26-13.71V496.44c0-7.16-5.09-12.44-12.26-12.44h-56.08A12.27,12.27,0,0,0,1181,496.44Z" transform="translate(-481 -312.14)" style="fill:#4e5eaf"/><path d="M1207.9,513.49a3.44,3.44,0,0,1,3.37,3.37,3.34,3.34,0,0,1-3.37,3.32,3.74,3.74,0,0,1-3.38-3.32A3.41,3.41,0,0,1,1207.9,513.49Z" transform="translate(-481 -312.14)" style="fill:#fff"/><path d="M1220.76,513.49a3.44,3.44,0,0,1,3.37,3.37,3.33,3.33,0,0,1-3.37,3.32,3.75,3.75,0,0,1-3.38-3.32A3.41,3.41,0,0,1,1220.76,513.49Z" transform="translate(-481 -312.14)" style="fill:#fff"/><path d="M1233.62,513.49a3.44,3.44,0,0,1,3.37,3.37,3.33,3.33,0,0,1-3.37,3.32,3.75,3.75,0,0,1-3.38-3.32A3.41,3.41,0,0,1,1233.62,513.49Z" transform="translate(-481 -312.14)" style="fill:#fff"/><path d="M1175.55,369.62a42.92,42.92,0,1,1-42.92-42.91A42.92,42.92,0,0,1,1175.55,369.62Z" transform="translate(-481 -312.14)" style="fill:#fff"/><path d="M1132.63,427.11a57.49,57.49,0,1,1,57.49-57.49A57.55,57.55,0,0,1,1132.63,427.11Zm0-110a52.54,52.54,0,1,0,52.54,52.53A52.6,52.6,0,0,0,1132.63,317.09Z" transform="translate(-481 -312.14)" style="fill:#fff"/><g id="Lamp"><path d="M1143.83,386.87H1121.6s-4.53-18.52-4.53-22.16a15.74,15.74,0,0,1,31.47,0C1148.54,367.92,1143.83,386.87,1143.83,386.87Z" transform="translate(-481 -312.14)" style="fill:#edd600"/><path d="M1135.36,361.84a10.58,10.58,0,0,1-1.66,5.65,5,5,0,0,0,2.11,1.8c.49-3.44,1.4-6.23,2.88-7.4a2.84,2.84,0,0,1,3-.39c1.21.52,1.67,1.93,1.21,3.79-.56,2.28-2.65,5.43-5.58,5.86a62.69,62.69,0,0,0,.6,17l-1.73.31a71.4,71.4,0,0,1-.63-17.39,3,3,0,0,0-5.68,0,122.64,122.64,0,0,1-.22,17.27l-1.75-.14c0-.06.45-5.48.42-11.3,0-2.32-.09-4.25-.22-5.86a7.37,7.37,0,0,1-3.46-2.65c-1.25-1.59-2.44-4.05-1.68-5.75a2.54,2.54,0,0,1,2.34-1.47,2.65,2.65,0,0,1,2.09.83c1.22,1.24,1.92,4,2.3,7.26a5.67,5.67,0,0,0,1.87-1.8,10.3,10.3,0,0,1-1.5-5.26c.07-1.84,1-2.94,2.6-2.94A2.53,2.53,0,0,1,1135.36,361.84Zm-1.75.16c-.08-.88-.49-.95-.9-.95-.24,0-.8,0-.85,1.25a8,8,0,0,0,.81,3.4A7.81,7.81,0,0,0,1133.61,362Zm-7.42,1.27a.86.86,0,0,0-.72-.32c-.69.05-.81.32-.86.43-.29.66.18,2.32,1.46,4a7.09,7.09,0,0,0,1.89,1.73C1127.49,365.24,1126.71,363.8,1126.19,363.27Zm15,1.6c.22-.89.13-1.61-.2-1.75a1.09,1.09,0,0,0-1.25.14c-.93.73-1.69,2.95-2.18,6C1139.4,368.69,1140.83,366.51,1141.24,364.87Z" transform="translate(-481 -312.14)" style="fill:#c9b109"/><path d="M1121.6,386.72l1,8.07a5.89,5.89,0,0,0,5.72,5.92h.25v1.22a2.76,2.76,0,0,0,3,2.63h2.61a2.9,2.9,0,0,0,3.14-2.63v-1.48c2.45-.08,5.74-2.44,5.74-5.55l.83-8.18Z" transform="translate(-481 -312.14)" style="fill:#2a3756"/></g><rect x="650.13" y="19.82" width="2.8" height="10.56" rx="1.28" style="fill:#edd600"/><path d="M1141.85,346.17a1.28,1.28,0,0,1-1.81-.07h0a1.27,1.27,0,0,1,.06-1.8l5.92-5.52a1.28,1.28,0,0,1,1.81.07h0a1.28,1.28,0,0,1-.06,1.81Z" transform="translate(-481 -312.14)" style="fill:#edd600"/><path d="M1118.88,338.78a1.27,1.27,0,0,0-1.8.07h0a1.27,1.27,0,0,0,.06,1.81l5.92,5.51a1.28,1.28,0,0,0,1.81-.07h0a1.28,1.28,0,0,0-.06-1.8Z" transform="translate(-481 -312.14)" style="fill:#edd600"/><path d="M1285.78,390.65c0,16.41-12.92,29.72-28.84,29.72s-28.84-13.31-28.84-29.72,12.91-29.73,28.84-29.73S1285.78,374.23,1285.78,390.65Z" transform="translate(-481 -312.14)" style="fill:#fff"/><path d="M1061.56,630.05V603.48a11.65,11.65,0,0,0-23.3,0v26.57h-4.36V603.48a16,16,0,0,1,32,0v26.57Z" transform="translate(-481 -312.14)" style="fill:#4e5eaf"/><path d="M1028.29,616v33.37h43.24V616Zm16.24,23.45,2.67-7.12a4.63,4.63,0,1,1,5.42,0l2.67,7.12Z" transform="translate(-481 -312.14)" style="fill:#4e5eaf"/><path d="M987.07,373.87a20.27,20.27,0,1,1-20.26-20.27A20.26,20.26,0,0,1,987.07,373.87Z" transform="translate(-481 -312.14)" style="fill:#edd600"/><path d="M967.91,383.26c0-5.42-4-9.82-8.95-9.82a8.32,8.32,0,0,0-4.36,1.24c-1.65-7.1-7.59-12.37-14.68-12.37-8.11,0-14.73,6.89-15.13,15.54-3.88.76-6.95,4.25-7.66,8.68H967.4A10.61,10.61,0,0,0,967.91,383.26Z" transform="translate(-481 -312.14)" style="fill:#4e5eaf"/><path d="M1243.8,698a31.59,31.59,0,1,1,31.59-31.58A31.63,31.63,0,0,1,1243.8,698Zm0-58a26.4,26.4,0,1,0,26.4,26.4A26.42,26.42,0,0,0,1243.8,640Z" transform="translate(-481 -312.14)" style="fill:#ef5c00"/><polygon points="774.13 363.29 760.95 355.32 760.95 332.24 764.66 332.24 764.66 353.23 776.05 360.11 774.13 363.29" style="fill:#4e5eaf"/><rect x="759" y="68.86" width="26" height="18" style="fill:#ef5c00"/><path d="M1277,387h-1v-4.4a3.4,3.4,0,0,0-3.46-3.6h-31.36c-2.06,0-4.18,1.54-4.18,3.6v15.45a4.33,4.33,0,0,0,4.18,3.95h31.36a3.71,3.71,0,0,0,3.46-3.95V394h1a1.75,1.75,0,0,0,2-1.76v-3.36A1.84,1.84,0,0,0,1277,387Zm-3,10.91a1.35,1.35,0,0,1-1.21,1.09h-31.58a1.35,1.35,0,0,1-1.21-1.09V382.74c0-.51.7-.74,1.21-.74h31.58c.51,0,1.21.23,1.21.74Z" transform="translate(-481 -312.14)" style="fill:#2a3756"/><g id="_04_3_4" data-name="04 3/4"><g id="_04_Standing" data-name="04 Standing"><g id="leg"><polygon points="382.19 1394.68 262.73 1398.48 265.54 1356.64 316.13 1343.09 382.19 1373.96 382.19 1394.68" style="fill:#fff"/><path d="M784.47,1381.66c.65-41.49,9.33-166.72,9.33-166.72S678.35,973.79,654.59,1031.36c0,0,80.15,280.78,82.67,304.72s-17.6,70-4.35,152.47c6.62,41.25,21.16,178.32,21.16,178.32l35-9.48S784,1410.91,784.47,1381.66Z" transform="translate(-481 -312.14)" style="fill:#e2857e"/></g></g><path id="head" d="M686.51,548.93c25.24-6.38,60.09-1.29,67.28,41,5,29.64,11.08,81.05-7.62,87.6-8.29,2.9-40,0-40,0l9,47.63-60.41-12.4,9.53-50.47S603.35,569.94,686.51,548.93Z" transform="translate(-481 -312.14)" style="fill:#e2857e"/><path d="M596.49,755S502,923.09,519.24,974.09c22.3,65.81,101.72,84.13,101.72,84.13Z" transform="translate(-481 -312.14)" style="fill:#4e5eaf"/><g id="_04_Front" data-name="04 Front"><g id="leg-2" data-name="leg"><path d="M579,1116.58s14.1,96.81,19,222.23c4.27,110-19,110.51.88,265.18l2.59,57.28,31.82,15.47s7.53-174.12,48.82-586.54C682.05,1090.2,602.07,1058.76,579,1116.58Z" transform="translate(-481 -312.14)" style="fill:#e2857e"/><polygon points="163.83 1403.07 106.45 1403.07 106.45 1387.52 116.94 1343.56 153.81 1343.56 163.83 1387.52 163.83 1403.07" style="fill:#fff"/></g><g id="hand"><polygon points="354.07 837.77 362.72 869.12 384.02 866.03 384.4 836.72 354.07 837.77" style="fill:#e2857e"/><path d="M754.73,719.85s79.5,31.07,96.89,243.82c11.53,141,23.38,196,23.38,196l-40.38.57S755.7,963,748.56,875.48C745.18,834.12,754.73,719.85,754.73,719.85Z" transform="translate(-481 -312.14)" style="fill:#4e5eaf"/><path d="M878.54,1205c-1.08-21.68-12.88-38.72-26.35-38.06a17.35,17.35,0,0,0-10.7,4.69c-3.15,2.82-.4,20,1.4,27.28a51.92,51.92,0,0,1,1.46,12.43c0,9.49-2.39,17.94-6.13,23.45,4.78,6.91,11.11,11,17.86,10.69C869.56,1244.82,879.62,1226.69,878.54,1205Z" transform="translate(-481 -312.14)" style="fill:#e2857e"/></g><path id="dress" d="M660.09,704.89c-25.8,1.6-54.22,6.11-62.15,33.05-5.33,36.72,3.21,140.11-19,260.23-17.86,168.76-15.58,366.24-15.58,366.24l246.51,1.83s3.14-185-22.14-352.24c-17.13-113.28-3-225-18.84-276.11-7.5-24.1-40.69-28.74-57.34-31.93C709.64,705.59,682,703.52,660.09,704.89Z" transform="translate(-481 -312.14)" style="fill:#4e5eaf"/></g><path id="hair" d="M637.5,546.66h0C553,609.7,604.52,884,535.4,926.52,694.51,932.19,681.72,639.1,681.72,639.1c1.41-4.25-13.51-15-6.9-27.62,5.37-10.26,15.59-13.59,22.35-.92,0,0,17.64-52.22,38.16-56.06C721.54,528.24,659.59,526,637.5,546.66Z" transform="translate(-481 -312.14)" style="fill:#fff"/></g></svg>